{
copyright = "Copyright (c) 2011 by vernon adams. All rights reserved.";
designer = "vernon adams";
designerURL = "http://www.newtypography.co.uk";
familyName = Monofett;
customParameters = (
{
name = glyphOrder;
value = (
.notdef,
glyph1,
uni000D,
space,
exclam,
quotedbl,
numbersign,
dollar,
percent,
ampersand,
quotesingle,
parenleft,
parenright,
asterisk,
plus,
comma,
hyphen,
period,
slash,
zero,
one,
two,
three,
four,
five,
six,
seven,
eight,
nine,
colon,
semicolon,
less,
equal,
greater,
question,
at,
A,
B,
C,
D,
E,
F,
G,
H,
I,
J,
K,
L,
M,
N,
O,
P,
Q,
R,
S,
T,
U,
V,
W,
X,
Y,
Z,
bracketleft,
backslash,
bracketright,
asciicircum,
underscore,
grave,
a,
b,
c,
d,
e,
f,
g,
h,
i,
j,
k,
l,
m,
n,
o,
p,
q,
r,
s,
t,
u,
v,
w,
x,
y,
z,
braceleft,
bar,
braceright,
asciitilde,
uni00A0,
exclamdown,
cent,
sterling,
currency,
yen,
brokenbar,
section,
dieresis,
copyright,
ordfeminine,
guillemotleft,
uni00AD,
registered,
overscore,
degree,
plusminus,
uni00B2,
uni00B3,
acute,
uni00B5,
paragraph,
middot,
cedilla,
uni00B9,
ordmasculine,
guillemotright,
onequarter,
onehalf,
threequarters,
questiondown,
Agrave,
Aacute,
Acircumflex,
Atilde,
Adieresis,
Aring,
AE,
Ccedilla,
Egrave,
Eacute,
Ecircumflex,
Edieresis,
Igrave,
Iacute,
Icircumflex,
Idieresis,
Eth,
Ntilde,
Ograve,
Oacute,
Ocircumflex,
Otilde,
Odieresis,
multiply,
Oslash,
Ugrave,
Uacute,
Ucircumflex,
Udieresis,
Yacute,
Thorn,
germandbls,
agrave,
aacute,
acircumflex,
atilde,
adieresis,
aring,
ae,
ccedilla,
egrave,
eacute,
ecircumflex,
edieresis,
igrave,
iacute,
icircumflex,
idieresis,
eth,
ntilde,
oacute,
ocircumflex,
otilde,
odieresis,
divide,
oslash,
ugrave,
uacute,
ucircumflex,
udieresis,
yacute,
thorn,
ydieresis,
Amacron,
amacron,
Abreve,
abreve,
Aogonek,
aogonek,
Cacute,
cacute,
Ccircumflex,
ccircumflex,
Cdotaccent,
cdotaccent,
Ccaron,
ccaron,
Dcaron,
dcaron,
Dcroat,
dslash,
Emacron,
emacron,
Ebreve,
ebreve,
Edotaccent,
edotaccent,
Eogonek,
eogonek,
Ecaron,
ecaron,
Gcircumflex,
gcircumflex,
Gbreve,
gbreve,
Gdotaccent,

glyphs = (
{
glyphname = exclam;
layers = (
{
layerId = "F859EBB1-02CE-49D6-A9DD-2E3CD13E297E";
paths = (
{
nodes = (
"168 1370 OFFCURVE",
"-4 1198 OFFCURVE",
"-4 989 CURVE SMOOTH",
"-4 381 LINE SMOOTH",
"-4 176 OFFCURVE",
"164 0 OFFCURVE",
"430 0 CURVE SMOOTH",
"701 0 OFFCURVE",
"873 172 OFFCURVE",
"873 381 CURVE SMOOTH",
"873 989 LINE SMOOTH",
"873 1197 OFFCURVE",
"703 1365 OFFCURVE",
"438 1370 CURVE"
);
},
{
nodes = (
"512 1280 LINE",
"471 627 LINE",
"412 627 LINE",
"371 1280 LINE"
);
},
{
nodes = (
"389 545 LINE",
"496 545 LINE",
"512 438 LINE",
"389 438 LINE"
);
}
);
width = 869;
}
);
unicode = 0021;
},
{
glyphname = quotedbl;
layers = (
{
layerId = "F859EBB1-02CE-49D6-A9DD-2E3CD13E297E";
paths = (
{
nodes = (
"168 1370 OFFCURVE",
"-4 1198 OFFCURVE",
"-4 989 CURVE SMOOTH",
"-4 381 LINE SMOOTH",
"-4 176 OFFCURVE",
"164 0 OFFCURVE",
"430 0 CURVE SMOOTH",
"701 0 OFFCURVE",
"873 172 OFFCURVE",
"873 381 CURVE SMOOTH",
"873 989 LINE SMOOTH",
"873 1197 OFFCURVE",
"703 1365 OFFCURVE",
"438 1370 CURVE"
);
},
{
nodes = (
"424 1280 LINE",
"424 1024 LINE",
"324 1024 LINE",
"324 1280 LINE"
);
},
{
nodes = (
"574 1280 LINE",
"574 1024 LINE",
"473 1024 LINE",
"473 1280 LINE"
);
}
);
width = 869;
}
);
unicode = 0022;
},
{
glyphname = numbersign;
layers = (
{
layerId = "F859EBB1-02CE-49D6-A9DD-2E3CD13E297E";
paths = (
{
nodes = (
"438 1370 LINE SMOOTH",
"168 1370 OFFCURVE",
"-4 1198 OFFCURVE",
"-4 989 CURVE SMOOTH",
"-4 381 LINE SMOOTH",
"-4 172 OFFCURVE",
"168 0 OFFCURVE",
"438 0 CURVE SMOOTH",
"551 0 LINE SMOOTH",
"821 0 OFFCURVE",
"993 172 OFFCURVE",
"993 381 CURVE SMOOTH",
"993 989 LINE SMOOTH",
"993 1198 OFFCURVE",
"821 1370 OFFCURVE",
"551 1370 CURVE SMOOTH"
);
},
{
nodes = (
"737 1055 LINE",
"727 950 LINE",
"662 950 LINE",
"639 729 LINE",
"703 729 LINE",
"692 623 LINE",
"629 623 LINE",
"614 494 LINE",
"510 494 LINE",
"522 623 LINE",
"432 623 LINE",
"418 494 LINE",
"313 494 LINE",
"326 623 LINE",
"260 623 LINE",
"272 729 LINE",
"338 729 LINE",
"361 950 LINE",
"295 950 LINE",
"305 1055 LINE",
"371 1055 LINE",
"385 1184 LINE",
"492 1184 LINE",
"477 1055 LINE",
"567 1055 LINE",
"582 1184 LINE",
"686 1184 LINE",
"674 1055 LINE"
);
},
{
nodes = (
"557 950 LINE",
"467 950 LINE",
"442 729 LINE",
"535 729 LINE"
);
}
);
width = 989;
}
);
unicode = 0023;
},
{
glyphname = dollar;
layers = (
{
layerId = "F859EBB1-02CE-49D6-A9DD-2E3CD13E297E";
paths = (
{
nodes = (
"565 559 LINE",
"565 772 LINE",
"494 772 LINE",
"393 784 LINE",
"328 848 LINE",
"315 932 LINE",
"315 1036 LINE",
"328 1120 LINE",
"393 1184 LINE",
"494 1198 LINE",
"565 1198 LINE",
"565 1280 LINE",
"647 1280 LINE",
"647 1198 LINE",
"711 1198 LINE",
"811 1184 LINE",
"877 1120 LINE",
"893 1014 LINE",
"789 1004 LINE",
"770 1079 LINE",
"709 1092 LINE",
"647 1092 LINE",
"647 877 LINE",
"703 877 LINE",
"807 866 LINE",
"870 803 LINE",
"885 717 LINE",
"885 614 LINE",
"870 528 LINE",
"807 465 LINE",
"705 453 LINE",
"647 453 LINE",
"647 334 LINE",
"565 334 LINE",
"565 453 LINE",
"496 453 LINE",
"393 465 LINE",
"330 528 LINE",
"311 637 LINE",
"420 647 LINE",
"436 569 LINE",
"498 559 LINE"
);
},
{
nodes = (
"565 877 LINE",
"565 1092 LINE",
"500 1092 LINE",
"434 1079 LINE",
"420 1020 LINE",
"420 948 LINE",
"427 928 OFFCURVE",
"427 912 OFFCURVE",
"434 889 CURVE",
"496 877 LINE"
);
},
{
nodes = (
"647 559 LINE",
"698 559 LINE",
"764 569 LINE",
"768 586 OFFCURVE",
"775 608 OFFCURVE",
"778 625 CURVE",
"778 707 LINE",
"774 726 OFFCURVE",
"768 741 OFFCURVE",
"764 762 CURVE",
"703 772 LINE",
"647 772 LINE"
);
},
{
nodes = (
"438 1370 LINE SMOOTH",
"168 1370 OFFCURVE",
"-4 1198 OFFCURVE",
"-4 989 CURVE SMOOTH",
"-4 381 LINE SMOOTH",
"-4 172 OFFCURVE",
"168 0 OFFCURVE",
"438 0 CURVE SMOOTH",
"746 0 LINE SMOOTH",
"1016 0 OFFCURVE",
"1188 172 OFFCURVE",
"1188 381 CURVE SMOOTH",
"1188 989 LINE SMOOTH",
"1188 1198 OFFCURVE",
"1016 1370 OFFCURVE",
"746 1370 CURVE SMOOTH"
);
}
);
width = 1184;
}
);
unicode = 0024;
},
{
glyphname = percent;
layers = (
{
layerId = "F859EBB1-02CE-49D6-A9DD-2E3CD13E297E";
paths = (
{
nodes = (
"756 1200 LINE",
"545 494 LINE",
"445 518 LINE",
"653 1231 LINE"
);
},
{
nodes = (
"514 1024 LINE",
"504 965 LINE",
"438 907 LINE",
"371 893 LINE",
"326 893 LINE",
"252 903 LINE",
"189 967 LINE",
"180 1024 LINE",
"180 1096 LINE",
"191 1155 LINE",
"256 1212 LINE",
"326 1227 LINE",
"369 1227 LINE",
"445 1217 LINE",
"506 1153 LINE",
"514 1096 LINE"
);
},
{
nodes = (
"410 1038 LINE",
"410 1081 LINE",
"399 1114 LINE",
"363 1122 LINE",
"334 1122 LINE",
"319 1118 OFFCURVE",
"311 1118 OFFCURVE",
"295 1114 CURVE",
"285 1081 LINE",
"285 1038 LINE",
"295 1006 LINE",
"332 997 LINE",
"363 997 LINE",
"399 1006 LINE"
);
},
{
nodes = (
"1030 625 LINE",
"1020 567 LINE",
"957 504 LINE",
"883 494 LINE",
"838 494 LINE",
"770 508 LINE",
"705 565 LINE",
"694 625 LINE",
"694 696 LINE",
"703 754 LINE",
"766 817 LINE",
"840 827 LINE",
"883 827 LINE",
"952 813 LINE",
"1018 756 LINE",
"1030 696 LINE"
);
},
{
nodes = (
"924 639 LINE",
"924 682 LINE",
"914 715 LINE",
"875 723 LINE",
"846 723 LINE",
"809 715 LINE",
"799 682 LINE",
"799 639 LINE",
"809 606 LINE",
"846 598 LINE",
"877 598 LINE",
"914 606 LINE"
);
},
{
nodes = (
"438 1370 LINE SMOOTH",
"168 1370 OFFCURVE",
"-4 1198 OFFCURVE",
"-4 989 CURVE SMOOTH",
"-4 381 LINE SMOOTH",
"-4 172 OFFCURVE",
"168 0 OFFCURVE",
"438 0 CURVE SMOOTH",
"746 0 LINE SMOOTH",
"1016 0 OFFCURVE",
"1188 172 OFFCURVE",
"1188 381 CURVE SMOOTH",
"1188 989 LINE SMOOTH",
"1188 1198 OFFCURVE",
"1016 1370 OFFCURVE",
"746 1370 CURVE SMOOTH"
);
}
);
width = 1184;
}
);
unicode = 0025;
},
{
glyphname = ampersand;
layers = (
{
layerId = "F859EBB1-02CE-49D6-A9DD-2E3CD13E297E";
paths = (
{
nodes = (
"438 1370 LINE SMOOTH",
"168 1370 OFFCURVE",
"-4 1198 OFFCURVE",
"-4 989 CURVE SMOOTH",
"-4 381 LINE SMOOTH",
"-4 172 OFFCURVE",
"168 0 OFFCURVE",
"438 0 CURVE SMOOTH",
"746 0 LINE SMOOTH",
"1016 0 OFFCURVE",
"1188 172 OFFCURVE",
"1188 381 CURVE SMOOTH",
"1188 989 LINE SMOOTH",
"1188 1198 OFFCURVE",
"1016 1370 OFFCURVE",
"746 1370 CURVE SMOOTH"
);
},
{
nodes = (
"907 1026 LINE",
"907 928 LINE",
"991 928 LINE",
"907 821 LINE",
"907 614 LINE",
"893 528 LINE",
"830 465 LINE",
"727 453 LINE",
"549 453 LINE",
"449 465 LINE",
"383 528 LINE",
"369 614 LINE",
"369 766 LINE",
"404 829 LINE",
"469 874 LINE",
"404 918 LINE",
"369 981 LINE",
"369 1118 LINE",
"383 1202 LINE",
"447 1266 LINE",
"549 1280 LINE",
"727 1280 LINE",
"830 1266 LINE",
"791 1163 LINE",
"721 1174 LINE",
"555 1174 LINE",
"485 1163 LINE",
"475 1108 LINE",
"475 997 LINE",
"490 938 LINE",
"555 928 LINE",
"801 928 LINE",
"801 1026 LINE"
);
},
{
nodes = (
"801 821 LINE",
"555 821 LINE",
"485 811 LINE",
"475 756 LINE",
"475 629 LINE",
"490 569 LINE",
"555 559 LINE",
"721 559 LINE",
"787 569 LINE",
"801 625 LINE"
);
}
);
width = 1184;
}
);
unicode = 0026;
},
{
glyphname = quotesingle;
layers = (
{
layerId = "F859EBB1-02CE-49D6-A9DD-2E3CD13E297E";
paths = (
{
nodes = (
"168 1370 OFFCURVE",
"-4 1198 OFFCURVE",
"-4 989 CURVE SMOOTH",
"-4 381 LINE SMOOTH",
"-4 176 OFFCURVE",
"164 0 OFFCURVE",
"430 0 CURVE SMOOTH",
"701 0 OFFCURVE",
"873 172 OFFCURVE",
"873 381 CURVE SMOOTH",
"873 989 LINE SMOOTH",
"873 1197 OFFCURVE",
"703 1365 OFFCURVE",
"438 1370 CURVE"
);
},
{
nodes = (
"492 1280 LINE",
"492 1024 LINE",
"391 1024 LINE",
"391 1280 LINE"
);
}
);
width = 869;
}
);
unicode = 0027;
},
{
glyphname = parenleft;
layers = (
{
layerId = "F859EBB1-02CE-49D6-A9DD-2E3CD13E297E";
paths = (
{
nodes = (
"633 324 LINE",
"510 324 LINE",
"410 336 LINE",
"344 399 LINE",
"332 485 LINE",
"332 1120 LINE",
"344 1204 LINE",
"410 1270 LINE",
"510 1282 LINE",
"633 1282 LINE",
"633 1176 LINE",
"516 1176 LINE",
"451 1165 LINE",
"444 1145 OFFCURVE",
"443 1126 OFFCURVE",
"436 1106 CURVE",
"436 500 LINE",
"451 440 LINE",
"516 430 LINE",
"633 430 LINE"
);
},
{
nodes = (
"438 1370 LINE SMOOTH",
"168 1370 OFFCURVE",
"-4 1198 OFFCURVE",
"-4 989 CURVE SMOOTH",
"-4 381 LINE SMOOTH",
"-4 172 OFFCURVE",
"168 0 OFFCURVE",
"438 0 CURVE SMOOTH",
"553 0 LINE SMOOTH",
"823 0 OFFCURVE",
"995 172 OFFCURVE",
"995 381 CURVE SMOOTH",
"995 989 LINE SMOOTH",
"995 1198 OFFCURVE",
"823 1370 OFFCURVE",
"553 1370 CURVE SMOOTH"
);
}
);
width = 991;
}
);
unicode = 0028;
},
{
glyphname = parenright;
layers = (
{
layerId = "F859EBB1-02CE-49D6-A9DD-2E3CD13E297E";
paths = (
{
nodes = (
"475 430 LINE",
"540 440 LINE",
"555 500 LINE",
"555 1106 LINE",
"548 1126 OFFCURVE",
"547 1145 OFFCURVE",
"540 1165 CURVE",
"475 1176 LINE",
"358 1176 LINE",
"358 1282 LINE",
"481 1282 LINE",
"581 1270 LINE",
"647 1204 LINE",
"659 1120 LINE",
"659 485 LINE",
"647 399 LINE",
"581 336 LINE",
"481 324 LINE",
"358 324 LINE",
"358 430 LINE"
);
},
{
nodes = (
"438 1370 LINE SMOOTH",
"168 1370 OFFCURVE",
"-4 1198 OFFCURVE",
"-4 989 CURVE SMOOTH",
"-4 381 LINE SMOOTH",
"-4 172 OFFCURVE",
"168 0 OFFCURVE",
"438 0 CURVE SMOOTH",
"553 0 LINE SMOOTH",
"823 0 OFFCURVE",
"995 172 OFFCURVE",
"995 381 CURVE SMOOTH",
"995 989 LINE SMOOTH",
"995 1198 OFFCURVE",
"823 1370 OFFCURVE",
"553 1370 CURVE SMOOTH"
);
}
);
width = 991;
}
);
unicode = 0029;
},
{
glyphname = asterisk;
layers = (
{
layerId = "F859EBB1-02CE-49D6-A9DD-2E3CD13E297E";
paths = (
{
nodes = (
"727 989 LINE",
"576 989 LINE",
"653 856 LINE",
"561 803 LINE",
"479 936 LINE",
"455 893 OFFCURVE",
"422 842 OFFCURVE",
"399 803 CURVE",
"305 856 LINE",
"385 989 LINE",
"234 989 LINE",
"234 1096 LINE",
"383 1096 LINE",
"305 1229 LINE",
"399 1282 LINE",
"479 1149 LINE",
"561 1282 LINE",
"653 1229 LINE",
"574 1096 LINE",
"727 1096 LINE"
);
},
{
nodes = (
"709 0 OFFCURVE",
"881 172 OFFCURVE",
"881 381 CURVE SMOOTH",
"881 989 LINE SMOOTH",
"881 1198 OFFCURVE",
"709 1370 OFFCURVE",
"438 1370 CURVE SMOOTH",
"168 1370 OFFCURVE",
"-4 1198 OFFCURVE",
"-4 989 CURVE SMOOTH",
"-4 381 LINE SMOOTH",
"-4 172 OFFCURVE",
"168 0 OFFCURVE",
"438 0 CURVE SMOOTH"
);
}
);
width = 877;
}
);
unicode = 002A;
},
{
glyphname = plus;
layers = (
{
layerId = "F859EBB1-02CE-49D6-A9DD-2E3CD13E297E";
paths = (
{
nodes = (
"694 979 LINE",
"498 979 LINE",
"498 784 LINE",
"393 784 LINE",
"393 979 LINE",
"199 979 LINE",
"199 1085 LINE",
"393 1085 LINE",
"393 1282 LINE",
"498 1282 LINE",
"498 1085 LINE",
"694 1085 LINE"
);
},
{
nodes = (
"709 0 OFFCURVE",
"881 172 OFFCURVE",
"881 381 CURVE SMOOTH",
"881 989 LINE SMOOTH",
"881 1198 OFFCURVE",
"709 1370 OFFCURVE",
"438 1370 CURVE SMOOTH",
"168 1370 OFFCURVE",
"-4 1198 OFFCURVE",
"-4 989 CURVE SMOOTH",
"-4 381 LINE SMOOTH",
"-4 172 OFFCURVE",
"168 0 OFFCURVE",
"438 0 CURVE SMOOTH"
);
}
);
width = 877;
}
);
unicode = 002B;
},
{
glyphname = comma;
layers = (
{
layerId = "F859EBB1-02CE-49D6-A9DD-2E3CD13E297E";
paths = (
{
nodes = (
"709 0 OFFCURVE",
"881 172 OFFCURVE",
"881 381 CURVE SMOOTH",
"881 989 LINE SMOOTH",
"881 1198 OFFCURVE",
"709 1370 OFFCURVE",
"438 1370 CURVE SMOOTH",
"168 1370 OFFCURVE",
"-4 1198 OFFCURVE",
"-4 989 CURVE SMOOTH",
"-4 381 LINE SMOOTH",
"-4 172 OFFCURVE",
"168 0 OFFCURVE",
"438 0 CURVE SMOOTH"
);
},
{
nodes = (
"399 352 LINE",
"438 453 LINE",
"373 453 LINE",
"373 582 LINE",
"524 582 LINE",
"524 453 LINE",
"463 324 LINE"
);
}
);
width = 877;
}
);
unicode = 002C;
},
{
glyphname = hyphen;
layers = (
{
layerId = "F859EBB1-02CE-49D6-A9DD-2E3CD13E297E";
paths = (
{
nodes = (
"250 918 LINE",
"250 1026 LINE",
"627 1026 LINE",
"627 918 LINE"
);
},
{
nodes = (
"709 0 OFFCURVE",
"881 172 OFFCURVE",
"881 381 CURVE SMOOTH",
"881 989 LINE SMOOTH",
"881 1198 OFFCURVE",
"709 1370 OFFCURVE",
"438 1370 CURVE SMOOTH",
"168 1370 OFFCURVE",
"-4 1198 OFFCURVE",
"-4 989 CURVE SMOOTH",
"-4 381 LINE SMOOTH",
"-4 172 OFFCURVE",
"168 0 OFFCURVE",
"438 0 CURVE SMOOTH"
);
}
);
width = 877;
}
);
unicode = 002D;
},
{
glyphname = period;
layers = (
{
layerId = "F859EBB1-02CE-49D6-A9DD-2E3CD13E297E";
paths = (
{
nodes = (
"373 453 LINE",
"373 582 LINE",
"504 582 LINE",
"504 453 LINE"
);
},
{
nodes = (
"709 0 OFFCURVE",
"881 172 OFFCURVE",
"881 381 CURVE SMOOTH",
"881 989 LINE SMOOTH",
"881 1198 OFFCURVE",
"709 1370 OFFCURVE",
"438 1370 CURVE SMOOTH",
"168 1370 OFFCURVE",
"-4 1198 OFFCURVE",
"-4 989 CURVE SMOOTH",
"-4 381 LINE SMOOTH",
"-4 172 OFFCURVE",
"168 0 OFFCURVE",
"438 0 CURVE SMOOTH"
);
}
);
width = 877;
}
);
unicode = 002E;
},
{
glyphname = slash;
layers = (
{
layerId = "F859EBB1-02CE-49D6-A9DD-2E3CD13E297E";
paths = (
{
nodes = (
"168 1370 OFFCURVE",
"-4 1198 OFFCURVE",
"-4 989 CURVE SMOOTH",
"-4 381 LINE SMOOTH",
"-4 172 OFFCURVE",
"168 0 OFFCURVE",
"438 0 CURVE SMOOTH",
"709 0 OFFCURVE",
"881 172 OFFCURVE",
"881 381 CURVE SMOOTH",
"881 989 LINE SMOOTH",
"881 1198 OFFCURVE",
"709 1370 OFFCURVE",
"438 1370 CURVE SMOOTH"
);
},
{
nodes = (
"561 1249 LINE",
"424 426 LINE",
"315 426 LINE",
"453 1249 LINE"
);
}
);
width = 877;
}
);
unicode = 002F;
},
{
glyphname = zero;
layers = (
{
layerId = "F859EBB1-02CE-49D6-A9DD-2E3CD13E297E";
paths = (
{
nodes = (
"438 1370 LINE SMOOTH",
"168 1370 OFFCURVE",
"-4 1198 OFFCURVE",
"-4 989 CURVE SMOOTH",
"-4 381 LINE SMOOTH",
"-4 172 OFFCURVE",
"168 0 OFFCURVE",
"438 0 CURVE SMOOTH",
"746 0 LINE SMOOTH",
"1016 0 OFFCURVE",
"1188 172 OFFCURVE",
"1188 381 CURVE SMOOTH",
"1188 989 LINE SMOOTH",
"1188 1198 OFFCURVE",
"1016 1370 OFFCURVE",
"746 1370 CURVE SMOOTH"
);
},
{
nodes = (
"946 614 LINE",
"932 528 LINE",
"868 465 LINE",
"766 453 LINE",
"498 453 LINE",
"397 465 LINE",
"332 528 LINE",
"320 614 LINE",
"320 1118 LINE",
"332 1202 LINE",
"395 1266 LINE",
"498 1280 LINE",
"766 1280 LINE",
"868 1266 LINE",
"932 1202 LINE",
"946 1118 LINE"
);
},
{
nodes = (
"840 625 LINE",
"840 1104 LINE",
"830 1163 LINE",
"760 1174 LINE",
"504 1174 LINE",
"434 1163 LINE",
"424 1108 LINE",
"424 629 LINE",
"438 569 LINE",
"504 559 LINE",
"760 559 LINE",
"825 569 LINE"
);
}
);
width = 1184;
}
);
unicode = 0030;
},
{
glyphname = one;
layers = (
{
layerId = "F859EBB1-02CE-49D6-A9DD-2E3CD13E297E";
paths = (
{
nodes = (
"674 455 LINE",
"567 455 LINE",
"567 1169 LINE",
"438 1124 LINE",
"438 1231 LINE",
"584 1282 LINE",
"674 1282 LINE"
);
},
{
nodes = (
"438 1370 LINE SMOOTH",
"168 1370 OFFCURVE",
"-4 1198 OFFCURVE",
"-4 989 CURVE SMOOTH",
"-4 381 LINE SMOOTH",
"-4 172 OFFCURVE",
"168 0 OFFCURVE",
"438 0 CURVE SMOOTH",
"746 0 LINE SMOOTH",
"1016 0 OFFCURVE",
"1188 172 OFFCURVE",
"1188 381 CURVE SMOOTH",
"1188 989 LINE SMOOTH",
"1188 1198 OFFCURVE",
"1016 1370 OFFCURVE",
"746 1370 CURVE SMOOTH"
);
}
);
width = 1184;
}
);
unicode = 0031;
},
{
glyphname = two;
layers = (
{
layerId = "F859EBB1-02CE-49D6-A9DD-2E3CD13E297E";
paths = (
{
nodes = (
"438 1370 LINE SMOOTH",
"168 1370 OFFCURVE",
"-4 1198 OFFCURVE",
"-4 989 CURVE SMOOTH",
"-4 381 LINE SMOOTH",
"-4 172 OFFCURVE",
"168 0 OFFCURVE",
"438 0 CURVE SMOOTH",
"746 0 LINE SMOOTH",
"1016 0 OFFCURVE",
"1188 172 OFFCURVE",
"1188 381 CURVE SMOOTH",
"1188 989 LINE SMOOTH",
"1188 1198 OFFCURVE",
"1016 1370 OFFCURVE",
"746 1370 CURVE SMOOTH"
);
},
{
nodes = (
"922 965 LINE",
"907 879 LINE",
"862 836 LINE",
"746 803 LINE",
"506 803 LINE",
"434 786 LINE",
"430 767 OFFCURVE",
"430 745 OFFCURVE",
"426 729 CURVE",
"426 557 LINE",
"887 557 LINE",
"887 453 LINE",
"385 453 LINE",
"322 516 LINE",
"322 741 LINE",
"334 825 LINE",
"379 870 LINE",
"496 903 LINE",
"735 903 LINE",
"801 920 LINE",
"808 940 OFFCURVE",
"808 958 OFFCURVE",
"815 979 CURVE",
"815 1104 LINE",
"805 1163 LINE",
"735 1174 LINE",
"506 1174 LINE",
"436 1163 LINE",
"424 1085 LINE",
"318 1096 LINE",
"334 1202 LINE",
"397 1266 LINE",
"500 1280 LINE",
"741 1280 LINE",
"844 1266 LINE",
"907 1202 LINE",
"922 1118 LINE"
);
}
);
width = 1184;
}
);
unicode = 0032;
},
{
glyphname = three;
layers = (
{
layerId = "F859EBB1-02CE-49D6-A9DD-2E3CD13E297E";
paths = (
{
nodes = (
"438 1370 LINE SMOOTH",
"168 1370 OFFCURVE",
"-4 1198 OFFCURVE",
"-4 989 CURVE SMOOTH",
"-4 381 LINE SMOOTH",
"-4 172 OFFCURVE",
"168 0 OFFCURVE",
"438 0 CURVE SMOOTH",
"746 0 LINE SMOOTH",
"1016 0 OFFCURVE",
"1188 172 OFFCURVE",
"1188 381 CURVE SMOOTH",
"1188 989 LINE SMOOTH",
"1188 1198 OFFCURVE",
"1016 1370 OFFCURVE",
"746 1370 CURVE SMOOTH"
);
},
{
nodes = (
"911 612 LINE",
"897 526 LINE",
"834 463 LINE",
"731 451 LINE",
"465 451 LINE",
"363 463 LINE",
"299 526 LINE",
"281 635 LINE",
"389 645 LINE",
"406 567 LINE",
"467 557 LINE",
"725 557 LINE",
"791 567 LINE",
"795 584 OFFCURVE",
"802 606 OFFCURVE",
"805 623 CURVE",
"805 754 LINE",
"795 813 LINE",
"727 821 LINE",
"447 821 LINE",
"447 915 LINE",
"725 915 LINE",
"791 926 LINE",
"795 942 OFFCURVE",
"802 965 OFFCURVE",
"805 981 CURVE",
"805 1102 LINE",
"795 1161 LINE",
"725 1171 LINE",
"471 1171 LINE",
"402 1161 LINE",
"389 1083 LINE",
"281 1094 LINE",
"299 1200 LINE",
"363 1264 LINE",
"465 1278 LINE",
"731 1278 LINE",
"834 1264 LINE",
"897 1200 LINE",
"911 1116 LINE",
"911 977 LINE",
"897 893 LINE",
"873 868 LINE",
"880 861 OFFCURVE",
"890 850 OFFCURVE",
"897 846 CURVE",
"911 762 LINE"
);
}
);
width = 1184;
}
);
unicode = 0033;
},
{
glyphname = four;
layers = (
{
layerId = "F859EBB1-02CE-49D6-A9DD-2E3CD13E297E";
paths = (
{
nodes = (
"438 1370 LINE SMOOTH",
"168 1370 OFFCURVE",
"-4 1198 OFFCURVE",
"-4 989 CURVE SMOOTH",
"-4 381 LINE SMOOTH",
"-4 172 OFFCURVE",
"168 0 OFFCURVE",
"438 0 CURVE SMOOTH",
"746 0 LINE SMOOTH",
"1016 0 OFFCURVE",
"1188 172 OFFCURVE",
"1188 381 CURVE SMOOTH",
"1188 989 LINE SMOOTH",
"1188 1198 OFFCURVE",
"1016 1370 OFFCURVE",
"746 1370 CURVE SMOOTH"
);
},
{
nodes = (
"438 659 LINE",
"375 723 LINE",
"361 807 LINE",
"361 1280 LINE",
"467 1280 LINE",
"467 821 LINE",
"477 762 LINE",
"547 752 LINE",
"711 752 LINE",
"711 1280 LINE",
"817 1280 LINE",
"817 754 LINE",
"971 754 LINE",
"971 647 LINE",
"817 647 LINE",
"817 453 LINE",
"711 453 LINE",
"711 647 LINE",
"541 647 LINE"
);
}
);
width = 1184;
}
);
unicode = 0034;
},
{
glyphname = five;
layers = (
{
layerId = "F859EBB1-02CE-49D6-A9DD-2E3CD13E297E";
paths = (
{
nodes = (
"438 1370 LINE SMOOTH",
"168 1370 OFFCURVE",
"-4 1198 OFFCURVE",
"-4 989 CURVE SMOOTH",
"-4 381 LINE SMOOTH",
"-4 172 OFFCURVE",
"168 0 OFFCURVE",
"438 0 CURVE SMOOTH",
"746 0 LINE SMOOTH",
"1016 0 OFFCURVE",
"1188 172 OFFCURVE",
"1188 381 CURVE SMOOTH",
"1188 989 LINE SMOOTH",
"1188 1198 OFFCURVE",
"1016 1370 OFFCURVE",
"746 1370 CURVE SMOOTH"
);
},
{
nodes = (
"936 612 LINE",
"922 528 LINE",
"858 465 LINE",
"758 453 LINE",
"512 453 LINE",
"412 465 LINE",
"348 526 LINE",
"326 604 LINE",
"440 616 LINE",
"451 569 LINE",
"514 557 LINE",
"756 557 LINE",
"815 569 LINE",
"819 586 OFFCURVE",
"827 606 OFFCURVE",
"830 623 CURVE",
"830 782 LINE",
"819 842 LINE",
"752 852 LINE",
"518 852 LINE",
"434 840 LINE",
"332 840 LINE",
"332 1217 LINE",
"395 1280 LINE",
"895 1280 LINE",
"895 1176 LINE",
"438 1176 LINE",
"438 946 LINE",
"512 958 LINE",
"758 958 LINE",
"858 944 LINE",
"922 881 LINE",
"936 797 LINE"
);
}
);
width = 1184;
}
);
unicode = 0035;
},
{
glyphname = six;
layers = (
{
layerId = "F859EBB1-02CE-49D6-A9DD-2E3CD13E297E";
paths = (
{
nodes = (
"438 1370 LINE SMOOTH",
"168 1370 OFFCURVE",
"-4 1198 OFFCURVE",
"-4 989 CURVE SMOOTH",
"-4 381 LINE SMOOTH",
"-4 172 OFFCURVE",
"168 0 OFFCURVE",
"438 0 CURVE SMOOTH",
"746 0 LINE SMOOTH",
"1016 0 OFFCURVE",
"1188 172 OFFCURVE",
"1188 381 CURVE SMOOTH",
"1188 989 LINE SMOOTH",
"1188 1198 OFFCURVE",
"1016 1370 OFFCURVE",
"746 1370 CURVE SMOOTH"
);
},
{
nodes = (
"961 612 LINE",
"946 528 LINE",
"881 465 LINE",
"780 453 LINE",
"512 453 LINE",
"410 465 LINE",
"346 528 LINE",
"332 612 LINE",
"332 1118 LINE",
"346 1202 LINE",
"410 1266 LINE",
"512 1280 LINE",
"782 1280 LINE",
"899 1255 LINE",
"879 1151 LINE",
"774 1163 LINE",
"449 1163 LINE",
"438 1108 LINE",
"438 948 LINE",
"512 961 LINE",
"780 961 LINE",
"883 946 LINE",
"946 883 LINE",
"961 799 LINE"
);
},
{
nodes = (
"854 629 LINE",
"854 784 LINE",
"844 844 LINE",
"774 854 LINE",
"518 854 LINE",
"449 844 LINE",
"438 788 LINE",
"438 629 LINE",
"441 617 OFFCURVE",
"450 585 OFFCURVE",
"453 569 CURVE",
"514 557 LINE",
"774 557 LINE",
"840 569 LINE"
);
}
);
width = 1184;
}
);
unicode = 0036;
},
{
glyphname = seven;
layers = (
{
layerId = "F859EBB1-02CE-49D6-A9DD-2E3CD13E297E";
paths = (
{
nodes = (
"592 453 LINE",
"469 453 LINE",
"731 1174 LINE",
"420 1174 LINE",
"420 1280 LINE",
"852 1280 LINE",
"852 1194 LINE"
);
},
{
nodes = (
"438 1370 LINE SMOOTH",
"168 1370 OFFCURVE",
"-4 1198 OFFCURVE",
"-4 989 CURVE SMOOTH",
"-4 381 LINE SMOOTH",
"-4 172 OFFCURVE",
"168 0 OFFCURVE",
"438 0 CURVE SMOOTH",
"746 0 LINE SMOOTH",
"1016 0 OFFCURVE",
"1188 172 OFFCURVE",
"1188 381 CURVE SMOOTH",
"1188 989 LINE SMOOTH",
"1188 1198 OFFCURVE",
"1016 1370 OFFCURVE",
"746 1370 CURVE SMOOTH"
);
}
);
width = 1184;
}
);
unicode = 0037;
},
{
glyphname = eight;
layers = (
{
layerId = "F859EBB1-02CE-49D6-A9DD-2E3CD13E297E";
paths = (
{
nodes = (
"438 1370 LINE SMOOTH",
"168 1370 OFFCURVE",
"-4 1198 OFFCURVE",
"-4 989 CURVE SMOOTH",
"-4 381 LINE SMOOTH",
"-4 172 OFFCURVE",
"168 0 OFFCURVE",
"438 0 CURVE SMOOTH",
"746 0 LINE SMOOTH",
"1016 0 OFFCURVE",
"1188 172 OFFCURVE",
"1188 381 CURVE SMOOTH",
"1188 989 LINE SMOOTH",
"1188 1198 OFFCURVE",
"1016 1370 OFFCURVE",
"746 1370 CURVE SMOOTH"
);
},
{
nodes = (
"864 1266 LINE",
"928 1202 LINE",
"942 1118 LINE",
"942 981 LINE",
"928 897 LINE",
"903 874 LINE",
"928 850 LINE",
"942 766 LINE",
"942 614 LINE",
"928 528 LINE",
"862 465 LINE",
"762 453 LINE",
"494 453 LINE",
"393 465 LINE",
"328 528 LINE",
"313 614 LINE",
"313 766 LINE",
"328 850 LINE",
"352 874 LINE",
"328 897 LINE",
"313 981 LINE",
"313 1118 LINE",
"328 1202 LINE",
"391 1266 LINE",
"494 1280 LINE",
"762 1280 LINE"
);
},
{
nodes = (
"821 569 LINE",
"836 629 LINE",
"836 756 LINE",
"825 811 LINE",
"756 821 LINE",
"500 821 LINE",
"430 811 LINE",
"420 756 LINE",
"420 629 LINE",
"434 569 LINE",
"500 559 LINE",
"756 559 LINE"
);
},
{
nodes = (
"821 938 LINE",
"836 997 LINE",
"836 1108 LINE",
"825 1163 LINE",
"756 1174 LINE",
"500 1174 LINE",
"430 1163 LINE",
"420 1108 LINE",
"420 997 LINE",
"434 938 LINE",
"500 928 LINE",
"756 928 LINE"
);
}
);
width = 1184;
}
);
unicode = 0038;
},
{
glyphname = nine;
layers = (
{
layerId = "F859EBB1-02CE-49D6-A9DD-2E3CD13E297E";
paths = (
{
nodes = (
"438 1370 LINE SMOOTH",
"168 1370 OFFCURVE",
"-4 1198 OFFCURVE",
"-4 989 CURVE SMOOTH",
"-4 381 LINE SMOOTH",
"-4 172 OFFCURVE",
"168 0 OFFCURVE",
"438 0 CURVE SMOOTH",
"746 0 LINE SMOOTH",
"1016 0 OFFCURVE",
"1188 172 OFFCURVE",
"1188 381 CURVE SMOOTH",
"1188 989 LINE SMOOTH",
"1188 1198 OFFCURVE",
"1016 1370 OFFCURVE",
"746 1370 CURVE SMOOTH"
);
},
{
nodes = (
"301 1120 LINE",
"315 1204 LINE",
"381 1268 LINE",
"481 1280 LINE",
"750 1280 LINE",
"852 1268 LINE",
"916 1204 LINE",
"930 1120 LINE",
"930 614 LINE",
"916 530 LINE",
"852 467 LINE",
"750 453 LINE",
"479 453 LINE",
"363 477 LINE",
"383 582 LINE",
"488 569 LINE",
"813 569 LINE",
"823 625 LINE",
"823 784 LINE",
"750 772 LINE",
"481 772 LINE",
"379 786 LINE",
"315 850 LINE",
"301 934 LINE"
);
},
{
nodes = (
"408 1104 LINE",
"408 948 LINE",
"418 889 LINE",
"488 879 LINE",
"744 879 LINE",
"813 889 LINE",
"823 944 LINE",
"823 1110 LINE",
"809 1163 LINE",
"748 1176 LINE",
"488 1176 LINE",
"422 1163 LINE"
);
}
);
width = 1184;
}
);
unicode = 0039;
},
{
glyphname = colon;
layers = (
{
layerId = "F859EBB1-02CE-49D6-A9DD-2E3CD13E297E";
paths = (
{
nodes = (
"373 453 LINE",
"373 582 LINE",
"504 582 LINE",
"504 453 LINE"
);
},
{
nodes = (
"709 0 OFFCURVE",
"881 172 OFFCURVE",
"881 381 CURVE SMOOTH",
"881 989 LINE SMOOTH",
"881 1198 OFFCURVE",
"709 1370 OFFCURVE",
"438 1370 CURVE SMOOTH",
"168 1370 OFFCURVE",
"-4 1198 OFFCURVE",
"-4 989 CURVE SMOOTH",
"-4 381 LINE SMOOTH",
"-4 172 OFFCURVE",
"168 0 OFFCURVE",
"438 0 CURVE SMOOTH"
);
},
{
nodes = (
"373 741 LINE",
"373 870 LINE",
"504 870 LINE",
"504 741 LINE"
);
}
);
width = 877;
}
);
unicode = 003A;
},
{
glyphname = semicolon;
layers = (
{
layerId = "F859EBB1-02CE-49D6-A9DD-2E3CD13E297E";
paths = (
{
nodes = (
"709 0 OFFCURVE",
"881 172 OFFCURVE",
"881 381 CURVE SMOOTH",
"881 989 LINE SMOOTH",
"881 1198 OFFCURVE",
"709 1370 OFFCURVE",
"438 1370 CURVE SMOOTH",
"168 1370 OFFCURVE",
"-4 1198 OFFCURVE",
"-4 989 CURVE SMOOTH",
"-4 381 LINE SMOOTH",
"-4 172 OFFCURVE",
"168 0 OFFCURVE",
"438 0 CURVE SMOOTH"
);
},
{
nodes = (
"399 352 LINE",
"438 453 LINE",
"373 453 LINE",
"373 582 LINE",
"524 582 LINE",
"524 453 LINE",
"463 324 LINE"
);
},
{
nodes = (
"389 741 LINE",
"389 870 LINE",
"520 870 LINE",
"520 741 LINE"
);
}
);
width = 877;
}
);
unicode = 003B;
},
{
glyphname = less;
layers = (
{
layerId = "F859EBB1-02CE-49D6-A9DD-2E3CD13E297E";
paths = (
{
nodes = (
"467 1559 LINE SMOOTH",
"178 1559 OFFCURVE",
"-4 1376 OFFCURVE",
"-4 1153 CURVE SMOOTH",
"-4 504 LINE SMOOTH",
"-4 275 OFFCURVE",
"186 96 OFFCURVE",
"481 96 CURVE SMOOTH",
"795 96 OFFCURVE",
"993 258 OFFCURVE",
"993 504 CURVE SMOOTH",
"993 1153 LINE SMOOTH",
"993 1376 OFFCURVE",
"808 1559 OFFCURVE",
"516 1559 CURVE SMOOTH"
);
},
{
nodes = (
"270 784 LINE",
"270 811 LINE",
"596 1188 LINE",
"643 1141 LINE",
"344 797 LINE",
"643 453 LINE",
"596 408 LINE"
);
}
);
width = 989;
}
);
unicode = 003C;
},
{
glyphname = equal;
layers = (
{
layerId = "F859EBB1-02CE-49D6-A9DD-2E3CD13E297E";
paths = (
{
nodes = (
"510 96 LINE SMOOTH",
"805 96 OFFCURVE",
"993 275 OFFCURVE",
"993 504 CURVE SMOOTH",
"993 1153 LINE SMOOTH",
"993 1376 OFFCURVE",
"811 1559 OFFCURVE",
"522 1559 CURVE SMOOTH",
"473 1559 LINE SMOOTH",
"181 1559 OFFCURVE",
"-4 1376 OFFCURVE",
"-4 1153 CURVE SMOOTH",
"-4 504 LINE SMOOTH",
"-4 279 OFFCURVE",
"178 96 OFFCURVE",
"469 96 CURVE SMOOTH"
);
},
{
nodes = (
"709 700 LINE",
"318 700 LINE",
"318 768 LINE",
"709 768 LINE"
);
},
{
nodes = (
"709 899 LINE",
"318 899 LINE",
"318 963 LINE",
"709 963 LINE"
);
}
);
width = 989;
}
);
unicode = 003D;
},
{
glyphname = greater;
layers = (
{
layerId = "F859EBB1-02CE-49D6-A9DD-2E3CD13E297E";
paths = (
{
nodes = (
"510 96 LINE SMOOTH",
"805 96 OFFCURVE",
"993 275 OFFCURVE",
"993 504 CURVE SMOOTH",
"993 1153 LINE SMOOTH",
"993 1376 OFFCURVE",
"811 1559 OFFCURVE",
"522 1559 CURVE SMOOTH",
"473 1559 LINE SMOOTH",
"181 1559 OFFCURVE",
"-4 1376 OFFCURVE",
"-4 1153 CURVE SMOOTH",
"-4 504 LINE SMOOTH",
"-4 279 OFFCURVE",
"178 96 OFFCURVE",
"469 96 CURVE SMOOTH"
);
},
{
nodes = (
"393 408 LINE",
"346 453 LINE",
"645 797 LINE",
"346 1141 LINE",
"393 1188 LINE",
"719 811 LINE",
"719 784 LINE"
);
}
);
width = 989;
}
);
unicode = 003E;
},
{
glyphname = question;
layers = (
{
layerId = "F859EBB1-02CE-49D6-A9DD-2E3CD13E297E";
paths = (
{
nodes = (
"678 565 LINE",
"678 463 LINE",
"572 463 LINE",
"572 565 LINE"
);
},
{
nodes = (
"624 872 LINE",
"827 872 LINE",
"838 950 LINE",
"838 1106 LINE",
"827 1173 LINE",
"751 1184 LINE",
"475 1173 LINE",
"471 1150 OFFCURVE",
"468 1118 OFFCURVE",
"464 1097 CURVE",
"377 1105 LINE",
"394 1198 LINE",
"451 1255 LINE",
"549 1270 LINE",
"754 1270 LINE",
"852 1255 LINE",
"909 1198 LINE",
"924 1116 LINE",
"924 940 LINE",
"909 858 LINE",
"852 801 LINE",
"753 787 LINE",
"668 787 LINE",
"668 622 LINE",
"582 622 LINE",
"582 818 LINE"
);
},
{
nodes = (
"438 1370 LINE SMOOTH",
"168 1370 OFFCURVE",
"-4 1198 OFFCURVE",
"-4 989 CURVE SMOOTH",
"-4 381 LINE SMOOTH",
"-4 172 OFFCURVE",
"168 0 OFFCURVE",
"438 0 CURVE SMOOTH",
"746 0 LINE SMOOTH",
"1016 0 OFFCURVE",
"1188 172 OFFCURVE",
"1188 381 CURVE SMOOTH",
"1188 989 LINE SMOOTH",
"1188 1198 OFFCURVE",
"1016 1370 OFFCURVE",
"746 1370 CURVE SMOOTH"
);
}
);
width = 1184;
}
);
unicode = 003F;
},
{
glyphname = at;
layers = (
{
layerId = "F859EBB1-02CE-49D6-A9DD-2E3CD13E297E";
paths = (
{
nodes = (
"438 1370 LINE SMOOTH",
"168 1370 OFFCURVE",
"-4 1198 OFFCURVE",
"-4 989 CURVE SMOOTH",
"-4 381 LINE SMOOTH",
"-4 172 OFFCURVE",
"168 0 OFFCURVE",
"438 0 CURVE SMOOTH",
"746 0 LINE SMOOTH",
"1016 0 OFFCURVE",
"1188 172 OFFCURVE",
"1188 381 CURVE SMOOTH",
"1188 989 LINE SMOOTH",
"1188 1198 OFFCURVE",
"1016 1370 OFFCURVE",
"746 1370 CURVE SMOOTH"
);
},
{
nodes = (
"832 625 LINE",
"848 565 LINE",
"944 565 LINE",
"961 625 LINE",
"961 909 LINE SMOOTH",
"961 1048 OFFCURVE",
"924 1204 OFFCURVE",
"666 1204 CURVE SMOOTH",
"298 1204 OFFCURVE",
"268 1073 OFFCURVE",
"268 946 CURVE SMOOTH",
"268 836 LINE SMOOTH",
"268 516 OFFCURVE",
"281 427 OFFCURVE",
"566 427 CURVE SMOOTH",
"595 427 OFFCURVE",
"627 428 OFFCURVE",
"662 430 CURVE",
"655 340 LINE",
"391 355 LINE",
"191 406 OFFCURVE",
"182 572 OFFCURVE",
"182 847 CURVE SMOOTH",
"182 903 OFFCURVE",
"181 936 OFFCURVE",
"180 946 CURVE",
"180 961 LINE SMOOTH",
"180 1123 OFFCURVE",
"231 1294 OFFCURVE",
"666 1294 CURVE SMOOTH",
"1016 1294 OFFCURVE",
"1047 1044 OFFCURVE",
"1047 889 CURVE SMOOTH",
"1047 748 LINE SMOOTH",
"1047 698 OFFCURVE",
"1047 674 OFFCURVE",
"1049 659 CURVE",
"1034 565 LINE",
"993 496 LINE",
"803 496 LINE",
"754 596 LINE",
"637 567 LINE",
"582 567 LINE",
"473 580 LINE",
"404 649 LINE",
"386 696 LINE",
"386 731 LINE",
"404 776 LINE",
"473 846 LINE",
"582 860 LINE",
"637 860 LINE",
"737 848 LINE",
"737 942 LINE",
"721 999 LINE",
"635 1014 LINE",
"557 1014 LINE",
"455 993 LINE",
"436 1065 LINE",
"555 1090 LINE",
"637 1090 LINE",
"746 1077 LINE",
"815 1008 LINE",
"832 915 LINE"
);
},
{
nodes = (
"481 715 LINE",
"498 659 LINE",
"590 647 LINE",
"629 647 LINE",
"737 659 LINE",
"737 766 LINE",
"633 776 LINE",
"590 776 LINE",
"490 764 LINE"
);
}
);
width = 1184;
}
);
unicode = 0040;
},
{
glyphname = A;
layers = (
{
layerId = "F859EBB1-02CE-49D6-A9DD-2E3CD13E297E";
paths = (
{
nodes = (
"438 1370 LINE SMOOTH",
"168 1370 OFFCURVE",
"-4 1198 OFFCURVE",
"-4 989 CURVE SMOOTH",
"-4 381 LINE SMOOTH",
"-4 172 OFFCURVE",
"168 0 OFFCURVE",
"438 0 CURVE SMOOTH",
"746 0 LINE SMOOTH",
"1016 0 OFFCURVE",
"1188 172 OFFCURVE",
"1188 381 CURVE SMOOTH",
"1188 989 LINE SMOOTH",
"1188 1198 OFFCURVE",
"1016 1370 OFFCURVE",
"746 1370 CURVE SMOOTH"
);
},
{
nodes = (
"819 666 LINE",
"809 758 LINE",
"440 758 LINE",
"430 666 LINE",
"414 453 LINE",
"295 453 LINE",
"377 1198 LINE",
"438 1260 LINE",
"571 1280 LINE",
"678 1280 LINE",
"811 1260 LINE",
"873 1198 LINE",
"952 453 LINE",
"838 453 LINE"
);
},
{
nodes = (
"674 1174 LINE",
"576 1174 LINE",
"539 1169 OFFCURVE",
"516 1163 OFFCURVE",
"479 1159 CURVE",
"449 854 LINE",
"801 854 LINE",
"790 961 OFFCURVE",
"777 1051 OFFCURVE",
"768 1159 CURVE"
);
}
);
width = 1184;
}
);
unicode = 0041;
},
{
glyphname = B;
layers = (
{
layerId = "F859EBB1-02CE-49D6-A9DD-2E3CD13E297E";
paths = (
{
nodes = (
"438 1370 LINE SMOOTH",
"168 1370 OFFCURVE",
"-4 1198 OFFCURVE",
"-4 989 CURVE SMOOTH",
"-4 381 LINE SMOOTH",
"-4 172 OFFCURVE",
"168 0 OFFCURVE",
"438 0 CURVE SMOOTH",
"746 0 LINE SMOOTH",
"1016 0 OFFCURVE",
"1188 172 OFFCURVE",
"1188 381 CURVE SMOOTH",
"1188 989 LINE SMOOTH",
"1188 1198 OFFCURVE",
"1016 1370 OFFCURVE",
"746 1370 CURVE SMOOTH"
);
},
{
nodes = (
"907 612 LINE",
"893 528 LINE",
"830 465 LINE",
"727 453 LINE",
"307 453 LINE",
"307 1280 LINE",
"727 1280 LINE",
"830 1266 LINE",
"893 1202 LINE",
"907 1118 LINE",
"907 985 LINE",
"888 909 LINE",
"808 879 LINE",
"888 844 LINE",
"907 770 LINE"
);
},
{
nodes = (
"801 623 LINE",
"801 756 LINE",
"791 815 LINE",
"723 823 LINE",
"414 823 LINE",
"414 559 LINE",
"721 559 LINE",
"787 569 LINE"
);
},
{
nodes = (
"801 993 LINE",
"787 1104 LINE",
"791 1163 LINE",
"721 1174 LINE",
"414 1174 LINE",
"414 928 LINE",
"721 928 LINE",
"787 940 LINE"
);
}
);
width = 1184;
}
);
unicode = 0042;
},
{
glyphname = D;
layers = (
{
layerId = "F859EBB1-02CE-49D6-A9DD-2E3CD13E297E";
paths = (
{
nodes = (
"438 1370 LINE SMOOTH",
"168 1370 OFFCURVE",
"-4 1198 OFFCURVE",
"-4 989 CURVE SMOOTH",
"-4 381 LINE SMOOTH",
"-4 172 OFFCURVE",
"168 0 OFFCURVE",
"438 0 CURVE SMOOTH",
"746 0 LINE SMOOTH",
"1016 0 OFFCURVE",
"1188 172 OFFCURVE",
"1188 381 CURVE SMOOTH",
"1188 989 LINE SMOOTH",
"1188 1198 OFFCURVE",
"1016 1370 OFFCURVE",
"746 1370 CURVE SMOOTH"
);
},
{
nodes = (
"954 614 LINE",
"940 528 LINE",
"877 465 LINE",
"774 453 LINE",
"328 453 LINE",
"328 1280 LINE",
"774 1280 LINE",
"877 1266 LINE",
"940 1202 LINE",
"954 1118 LINE"
);
},
{
nodes = (
"848 625 LINE",
"848 1104 LINE",
"838 1163 LINE",
"768 1174 LINE",
"432 1174 LINE",
"432 559 LINE",
"768 559 LINE",
"834 569 LINE"
);
}
);
width = 1184;
}
);
unicode = 0044;
},
{
glyphname = E;
layers = (
{
layerId = "F859EBB1-02CE-49D6-A9DD-2E3CD13E297E";
paths = (
{
nodes = (
"905 453 LINE",
"402 453 LINE",
"402 1280 LINE",
"891 1280 LINE",
"891 1174 LINE",
"506 1174 LINE",
"506 918 LINE",
"840 918 LINE",
"840 813 LINE",
"506 813 LINE",
"506 559 LINE",
"905 559 LINE"
);
},
{
nodes = (
"438 1370 LINE SMOOTH",
"168 1370 OFFCURVE",
"-4 1198 OFFCURVE",
"-4 989 CURVE SMOOTH",
"-4 381 LINE SMOOTH",
"-4 172 OFFCURVE",
"168 0 OFFCURVE",
"438 0 CURVE SMOOTH",
"746 0 LINE SMOOTH",
"1016 0 OFFCURVE",
"1188 172 OFFCURVE",
"1188 381 CURVE SMOOTH",
"1188 989 LINE SMOOTH",
"1188 1198 OFFCURVE",
"1016 1370 OFFCURVE",
"746 1370 CURVE SMOOTH"
);
}
);
width = 1184;
}
);
unicode = 0045;
},
{
glyphname = F;
layers = (
{
layerId = "F859EBB1-02CE-49D6-A9DD-2E3CD13E297E";
paths = (
{
nodes = (
"838 831 LINE",
"504 831 LINE",
"504 453 LINE",
"397 453 LINE",
"397 1280 LINE",
"895 1280 LINE",
"895 1174 LINE",
"504 1174 LINE",
"504 936 LINE",
"838 936 LINE"
);
},
{
nodes = (
"438 1370 LINE SMOOTH",
"168 1370 OFFCURVE",
"-4 1198 OFFCURVE",
"-4 989 CURVE SMOOTH",
"-4 381 LINE SMOOTH",
"-4 172 OFFCURVE",
"168 0 OFFCURVE",
"438 0 CURVE SMOOTH",
"746 0 LINE SMOOTH",
"1016 0 OFFCURVE",
"1188 172 OFFCURVE",
"1188 381 CURVE SMOOTH",
"1188 989 LINE SMOOTH",
"1188 1198 OFFCURVE",
"1016 1370 OFFCURVE",
"746 1370 CURVE SMOOTH"
);
}
);
width = 1184;
}
);
unicode = 0046;
},
{
glyphname = G;
layers = (
{
layerId = "F859EBB1-02CE-49D6-A9DD-2E3CD13E297E";
paths = (
{
nodes = (
"459 1161 LINE",
"449 1106 LINE",
"449 633 LINE",
"463 569 LINE",
"524 559 LINE",
"766 559 LINE",
"832 569 LINE",
"839 590 OFFCURVE",
"839 608 OFFCURVE",
"846 629 CURVE",
"846 770 LINE",
"662 770 LINE",
"662 877 LINE",
"952 877 LINE",
"952 614 LINE",
"938 528 LINE",
"873 465 LINE",
"772 453 LINE",
"522 453 LINE",
"422 465 LINE",
"356 528 LINE",
"342 614 LINE",
"342 1116 LINE",
"356 1200 LINE",
"420 1264 LINE",
"522 1280 LINE",
"791 1280 LINE",
"907 1266 LINE",
"887 1159 LINE",
"784 1176 LINE",
"524 1176 LINE"
);
},
{
nodes = (
"438 1370 LINE SMOOTH",
"168 1370 OFFCURVE",
"-4 1198 OFFCURVE",
"-4 989 CURVE SMOOTH",
"-4 381 LINE SMOOTH",
"-4 172 OFFCURVE",
"168 0 OFFCURVE",
"438 0 CURVE SMOOTH",
"746 0 LINE SMOOTH",
"1016 0 OFFCURVE",
"1188 172 OFFCURVE",
"1188 381 CURVE SMOOTH",
"1188 989 LINE SMOOTH",
"1188 1198 OFFCURVE",
"1016 1370 OFFCURVE",
"746 1370 CURVE SMOOTH"
);
}
);
width = 1184;
}
);
unicode = 0047;
},
{
glyphname = H;
layers = (
{
layerId = "F859EBB1-02CE-49D6-A9DD-2E3CD13E297E";
paths = (
{
nodes = (
"954 453 LINE",
"850 453 LINE",
"850 825 LINE",
"434 825 LINE",
"434 453 LINE",
"328 453 LINE",
"328 1280 LINE",
"434 1280 LINE",
"434 930 LINE",
"850 930 LINE",
"850 1280 LINE",
"954 1280 LINE"
);
},
{
nodes = (
"438 1370 LINE SMOOTH",
"168 1370 OFFCURVE",
"-4 1198 OFFCURVE",
"-4 989 CURVE SMOOTH",
"-4 381 LINE SMOOTH",
"-4 172 OFFCURVE",
"168 0 OFFCURVE",
"438 0 CURVE SMOOTH",
"746 0 LINE SMOOTH",
"1016 0 OFFCURVE",
"1188 172 OFFCURVE",
"1188 381 CURVE SMOOTH",
"1188 989 LINE SMOOTH",
"1188 1198 OFFCURVE",
"1016 1370 OFFCURVE",
"746 1370 CURVE SMOOTH"
);
}
);
width = 1184;
}
);
unicode = 0048;
},
{
glyphname = I;
layers = (
{
layerId = "F859EBB1-02CE-49D6-A9DD-2E3CD13E297E";
paths = (
{
nodes = (
"594 559 LINE",
"594 1174 LINE",
"358 1174 LINE",
"358 1280 LINE",
"936 1280 LINE",
"936 1174 LINE",
"701 1174 LINE",
"701 559 LINE",
"936 559 LINE",
"936 453 LINE",
"358 453 LINE",
"358 559 LINE"
);
},
{
nodes = (
"438 1370 LINE SMOOTH",
"168 1370 OFFCURVE",
"-4 1198 OFFCURVE",
"-4 989 CURVE SMOOTH",
"-4 381 LINE SMOOTH",
"-4 172 OFFCURVE",
"168 0 OFFCURVE",
"438 0 CURVE SMOOTH",
"746 0 LINE SMOOTH",
"1016 0 OFFCURVE",
"1188 172 OFFCURVE",
"1188 381 CURVE SMOOTH",
"1188 989 LINE SMOOTH",
"1188 1198 OFFCURVE",
"1016 1370 OFFCURVE",
"746 1370 CURVE SMOOTH"
);
}
);
width = 1184;
}
);
unicode = 0049;
},
{
glyphname = J;
layers = (
{
layerId = "F859EBB1-02CE-49D6-A9DD-2E3CD13E297E";
paths = (
{
nodes = (
"438 1370 LINE SMOOTH",
"168 1370 OFFCURVE",
"-4 1198 OFFCURVE",
"-4 989 CURVE SMOOTH",
"-4 381 LINE SMOOTH",
"-4 172 OFFCURVE",
"168 0 OFFCURVE",
"438 0 CURVE SMOOTH",
"746 0 LINE SMOOTH",
"1016 0 OFFCURVE",
"1188 172 OFFCURVE",
"1188 381 CURVE SMOOTH",
"1188 989 LINE SMOOTH",
"1188 1198 OFFCURVE",
"1016 1370 OFFCURVE",
"746 1370 CURVE SMOOTH"
);
},
{
nodes = (
"787 1280 LINE",
"787 528 LINE",
"709 467 LINE",
"608 453 LINE",
"453 453 LINE",
"453 559 LINE",
"602 559 LINE",
"668 571 LINE",
"682 631 LINE",
"682 1280 LINE"
);
}
);
width = 1184;
}
);
unicode = 004A;
},
{
glyphname = K;
layers = (
{
layerId = "F859EBB1-02CE-49D6-A9DD-2E3CD13E297E";
paths = (
{
nodes = (
"985 508 LINE",
"899 434 LINE",
"572 817 LINE",
"551 798 OFFCURVE",
"537 785 OFFCURVE",
"514 766 CURVE",
"514 453 LINE",
"408 453 LINE",
"408 1280 LINE",
"514 1280 LINE",
"514 901 LINE",
"926 1309 LINE",
"998 1225 LINE",
"654 885 LINE"
);
},
{
nodes = (
"438 1370 LINE SMOOTH",
"168 1370 OFFCURVE",
"-4 1198 OFFCURVE",
"-4 989 CURVE SMOOTH",
"-4 381 LINE SMOOTH",
"-4 172 OFFCURVE",
"168 0 OFFCURVE",
"438 0 CURVE SMOOTH",
"746 0 LINE SMOOTH",
"1016 0 OFFCURVE",
"1188 172 OFFCURVE",
"1188 381 CURVE SMOOTH",
"1188 989 LINE SMOOTH",
"1188 1198 OFFCURVE",
"1016 1370 OFFCURVE",
"746 1370 CURVE SMOOTH"
);
}
);
width = 1184;
}
);
unicode = 004B;
},
{
glyphname = L;
layers = (
{
layerId = "F859EBB1-02CE-49D6-A9DD-2E3CD13E297E";
paths = (
{
nodes = (
"862 453 LINE",
"449 453 LINE",
"449 1280 LINE",
"555 1280 LINE",
"555 559 LINE",
"862 559 LINE"
);
},
{
nodes = (
"438 1370 LINE SMOOTH",
"168 1370 OFFCURVE",
"-4 1198 OFFCURVE",
"-4 989 CURVE SMOOTH",
"-4 381 LINE SMOOTH",
"-4 172 OFFCURVE",
"168 0 OFFCURVE",
"438 0 CURVE SMOOTH",
"746 0 LINE SMOOTH",
"1016 0 OFFCURVE",
"1188 172 OFFCURVE",
"1188 381 CURVE SMOOTH",
"1188 989 LINE SMOOTH",
"1188 1198 OFFCURVE",
"1016 1370 OFFCURVE",
"746 1370 CURVE SMOOTH"
);
}
);
width = 1184;
}
);
unicode = 004C;
},
{
glyphname = M;
layers = (
{
layerId = "F859EBB1-02CE-49D6-A9DD-2E3CD13E297E";
paths = (
{
nodes = (
"438 1370 LINE SMOOTH",
"168 1370 OFFCURVE",
"-4 1198 OFFCURVE",
"-4 989 CURVE SMOOTH",
"-4 381 LINE SMOOTH",
"-4 172 OFFCURVE",
"168 0 OFFCURVE",
"438 0 CURVE SMOOTH",
"746 0 LINE SMOOTH",
"1016 0 OFFCURVE",
"1188 172 OFFCURVE",
"1188 381 CURVE SMOOTH",
"1188 989 LINE SMOOTH",
"1188 1198 OFFCURVE",
"1016 1370 OFFCURVE",
"746 1370 CURVE SMOOTH"
);
},
{
nodes = (
"623 1195 LINE",
"657 1264 LINE",
"711 1280 LINE",
"842 1280 LINE",
"926 1266 LINE",
"989 1202 LINE",
"989 453 LINE",
"883 453 LINE",
"883 1165 LINE",
"866 1169 OFFCURVE",
"850 1169 OFFCURVE",
"834 1174 CURVE",
"719 1174 LINE",
"676 1165 LINE",
"676 741 LINE",
"569 741 LINE",
"569 1165 LINE",
"554 1169 OFFCURVE",
"541 1169 OFFCURVE",
"526 1174 CURVE",
"412 1174 LINE",
"395 1169 OFFCURVE",
"382 1169 OFFCURVE",
"363 1165 CURVE",
"363 453 LINE",
"256 453 LINE",
"256 1202 LINE",
"320 1266 LINE",
"404 1280 LINE",
"535 1280 LINE",
"590 1264 LINE"
);
}
);
width = 1184;
}
);
unicode = 004D;
},
{
glyphname = O;
layers = (
{
layerId = "F859EBB1-02CE-49D6-A9DD-2E3CD13E297E";
paths = (
{
nodes = (
"438 1370 LINE SMOOTH",
"168 1370 OFFCURVE",
"-4 1198 OFFCURVE",
"-4 989 CURVE SMOOTH",
"-4 381 LINE SMOOTH",
"-4 172 OFFCURVE",
"168 0 OFFCURVE",
"438 0 CURVE SMOOTH",
"746 0 LINE SMOOTH",
"1016 0 OFFCURVE",
"1188 172 OFFCURVE",
"1188 381 CURVE SMOOTH",
"1188 989 LINE SMOOTH",
"1188 1198 OFFCURVE",
"1016 1370 OFFCURVE",
"746 1370 CURVE SMOOTH"
);
},
{
nodes = (
"952 614 LINE",
"938 528 LINE",
"875 465 LINE",
"772 453 LINE",
"504 453 LINE",
"404 465 LINE",
"338 528 LINE",
"326 614 LINE",
"326 1118 LINE",
"338 1202 LINE",
"402 1266 LINE",
"504 1280 LINE",
"772 1280 LINE",
"875 1266 LINE",
"938 1202 LINE",
"952 1118 LINE"
);
},
{
nodes = (
"846 625 LINE",
"846 1104 LINE",
"836 1163 LINE",
"766 1174 LINE",
"510 1174 LINE",
"440 1163 LINE",
"430 1108 LINE",
"430 629 LINE",
"445 569 LINE",
"510 559 LINE",
"766 559 LINE",
"832 569 LINE"
);
}
);
width = 1184;
}
);
unicode = 004F;
},
{
glyphname = P;
layers = (
{
layerId = "F859EBB1-02CE-49D6-A9DD-2E3CD13E297E";
paths = (
{
nodes = (
"438 1370 LINE SMOOTH",
"168 1370 OFFCURVE",
"-4 1198 OFFCURVE",
"-4 989 CURVE SMOOTH",
"-4 381 LINE SMOOTH",
"-4 172 OFFCURVE",
"168 0 OFFCURVE",
"438 0 CURVE SMOOTH",
"746 0 LINE SMOOTH",
"1016 0 OFFCURVE",
"1188 172 OFFCURVE",
"1188 381 CURVE SMOOTH",
"1188 989 LINE SMOOTH",
"1188 1198 OFFCURVE",
"1016 1370 OFFCURVE",
"746 1370 CURVE SMOOTH"
);
},
{
nodes = (
"930 909 LINE",
"916 823 LINE",
"852 760 LINE",
"750 748 LINE",
"481 748 LINE",
"481 453 LINE",
"377 453 LINE",
"377 1280 LINE",
"750 1280 LINE",
"852 1266 LINE",
"916 1202 LINE",
"930 1118 LINE"
);
},
{
nodes = (
"823 920 LINE",
"823 1104 LINE",
"813 1163 LINE",
"744 1174 LINE",
"481 1174 LINE",
"481 854 LINE",
"744 854 LINE",
"809 864 LINE"
);
}
);
width = 1184;
}
);
unicode = 0050;
},
{
glyphname = Q;
layers = (
{
layerId = "F859EBB1-02CE-49D6-A9DD-2E3CD13E297E";
paths = (
{
nodes = (
"438 1370 LINE SMOOTH",
"168 1370 OFFCURVE",
"-4 1198 OFFCURVE",
"-4 989 CURVE SMOOTH",
"-4 381 LINE SMOOTH",
"-4 172 OFFCURVE",
"168 0 OFFCURVE",
"438 0 CURVE SMOOTH",
"746 0 LINE SMOOTH",
"1016 0 OFFCURVE",
"1188 172 OFFCURVE",
"1188 381 CURVE SMOOTH",
"1188 989 LINE SMOOTH",
"1188 1198 OFFCURVE",
"1016 1370 OFFCURVE",
"746 1370 CURVE SMOOTH"
);
},
{
nodes = (
"954 614 LINE",
"940 528 LINE",
"877 465 LINE",
"801 457 LINE",
"856 344 LINE",
"762 299 LINE",
"684 453 LINE",
"506 453 LINE",
"406 465 LINE",
"340 528 LINE",
"328 614 LINE",
"328 1118 LINE",
"340 1202 LINE",
"404 1266 LINE",
"506 1280 LINE",
"774 1280 LINE",
"877 1266 LINE",
"940 1202 LINE",
"954 1118 LINE"
);
},
{
nodes = (
"848 625 LINE",
"848 1104 LINE",
"838 1163 LINE",
"768 1174 LINE",
"512 1174 LINE",
"442 1163 LINE",
"432 1108 LINE",
"432 629 LINE",
"447 569 LINE",
"512 559 LINE",
"627 559 LINE",
"596 625 LINE",
"688 676 LINE",
"748 559 LINE",
"768 559 LINE",
"834 569 LINE"
);
}
);
width = 1184;
}
);
unicode = 0051;
},
{
glyphname = R;
layers = (
{
layerId = "F859EBB1-02CE-49D6-A9DD-2E3CD13E297E";
paths = (
{
nodes = (
"438 1370 LINE SMOOTH",
"168 1370 OFFCURVE",
"-4 1198 OFFCURVE",
"-4 989 CURVE SMOOTH",
"-4 381 LINE SMOOTH",
"-4 172 OFFCURVE",
"168 0 OFFCURVE",
"438 0 CURVE SMOOTH",
"746 0 LINE SMOOTH",
"1016 0 OFFCURVE",
"1188 172 OFFCURVE",
"1188 381 CURVE SMOOTH",
"1188 989 LINE SMOOTH",
"1188 1198 OFFCURVE",
"1016 1370 OFFCURVE",
"746 1370 CURVE SMOOTH"
);
},
{
nodes = (
"782 754 LINE",
"711 786 LINE",
"451 786 LINE",
"451 453 LINE",
"344 453 LINE",
"344 1280 LINE",
"717 1280 LINE",
"817 1266 LINE",
"883 1182 LINE",
"895 1098 LINE",
"895 987 LINE",
"864 897 LINE",
"754 844 LINE",
"868 803 LINE",
"903 711 LINE",
"903 453 LINE",
"797 453 LINE",
"797 700 LINE"
);
},
{
nodes = (
"451 1174 LINE",
"451 893 LINE",
"711 893 LINE",
"774 924 LINE",
"789 979 LINE",
"789 1085 LINE",
"782 1143 LINE",
"711 1174 LINE"
);
}
);
width = 1184;
}
);
unicode = 0052;
},
{
glyphname = S;
layers = (
{
layerId = "F859EBB1-02CE-49D6-A9DD-2E3CD13E297E";
paths = (
{
nodes = (
"438 1370 LINE SMOOTH",
"168 1370 OFFCURVE",
"-4 1198 OFFCURVE",
"-4 989 CURVE SMOOTH",
"-4 381 LINE SMOOTH",
"-4 172 OFFCURVE",
"168 0 OFFCURVE",
"438 0 CURVE SMOOTH",
"746 0 LINE SMOOTH",
"1016 0 OFFCURVE",
"1188 172 OFFCURVE",
"1188 381 CURVE SMOOTH",
"1188 989 LINE SMOOTH",
"1188 1198 OFFCURVE",
"1016 1370 OFFCURVE",
"746 1370 CURVE SMOOTH"
);
},
{
nodes = (
"934 614 LINE",
"920 528 LINE",
"856 465 LINE",
"754 453 LINE",
"494 453 LINE",
"377 467 LINE",
"402 575 LINE",
"500 559 LINE",
"748 559 LINE",
"813 569 LINE",
"817 586 OFFCURVE",
"824 608 OFFCURVE",
"827 625 CURVE",
"827 756 LINE",
"823 775 OFFCURVE",
"817 791 OFFCURVE",
"813 811 CURVE",
"752 821 LINE",
"526 821 LINE",
"426 834 LINE",
"361 897 LINE",
"348 981 LINE",
"348 1118 LINE",
"361 1202 LINE",
"426 1266 LINE",
"526 1280 LINE",
"789 1280 LINE",
"905 1264 LINE",
"881 1155 LINE",
"787 1174 LINE",
"533 1174 LINE",
"467 1161 LINE",
"453 1102 LINE",
"453 997 LINE",
"460 977 OFFCURVE",
"460 961 OFFCURVE",
"467 938 CURVE",
"528 926 LINE",
"752 926 LINE",
"856 915 LINE",
"920 852 LINE",
"934 766 LINE"
);
}
);
width = 1184;
}
);
unicode = 0053;
},
{
glyphname = T;
layers = (
{
layerId = "F859EBB1-02CE-49D6-A9DD-2E3CD13E297E";
paths = (
{
nodes = (
"936 1174 LINE",
"701 1174 LINE",
"701 453 LINE",
"594 453 LINE",
"594 1174 LINE",
"358 1174 LINE",
"358 1280 LINE",
"936 1280 LINE"
);
},
{
nodes = (
"438 1370 LINE SMOOTH",
"168 1370 OFFCURVE",
"-4 1198 OFFCURVE",
"-4 989 CURVE SMOOTH",
"-4 381 LINE SMOOTH",
"-4 172 OFFCURVE",
"168 0 OFFCURVE",
"438 0 CURVE SMOOTH",
"746 0 LINE SMOOTH",
"1016 0 OFFCURVE",
"1188 172 OFFCURVE",
"1188 381 CURVE SMOOTH",
"1188 989 LINE SMOOTH",
"1188 1198 OFFCURVE",
"1016 1370 OFFCURVE",
"746 1370 CURVE SMOOTH"
);
}
);
width = 1184;
}
);
unicode = 0054;
},
{
glyphname = U;
layers = (
{
layerId = "F859EBB1-02CE-49D6-A9DD-2E3CD13E297E";
paths = (
{
nodes = (
"438 1370 LINE SMOOTH",
"168 1370 OFFCURVE",
"-4 1198 OFFCURVE",
"-4 989 CURVE SMOOTH",
"-4 381 LINE SMOOTH",
"-4 172 OFFCURVE",
"168 0 OFFCURVE",
"438 0 CURVE SMOOTH",
"746 0 LINE SMOOTH",
"1016 0 OFFCURVE",
"1188 172 OFFCURVE",
"1188 381 CURVE SMOOTH",
"1188 989 LINE SMOOTH",
"1188 1198 OFFCURVE",
"1016 1370 OFFCURVE",
"746 1370 CURVE SMOOTH"
);
},
{
nodes = (
"946 614 LINE",
"932 528 LINE",
"868 465 LINE",
"766 453 LINE",
"498 453 LINE",
"397 465 LINE",
"332 528 LINE",
"320 614 LINE",
"320 1280 LINE",
"424 1280 LINE",
"424 629 LINE",
"438 569 LINE",
"504 559 LINE",
"760 559 LINE",
"825 569 LINE",
"830 586 OFFCURVE",
"837 608 OFFCURVE",
"840 625 CURVE",
"840 1280 LINE",
"946 1280 LINE"
);
}
);
width = 1184;
}
);
unicode = 0055;
},
{
glyphname = V;
layers = (
{
layerId = "F859EBB1-02CE-49D6-A9DD-2E3CD13E297E";
paths = (
{
nodes = (
"565 465 LINE",
"506 524 LINE",
"309 1260 LINE",
"426 1280 LINE",
"606 563 LINE",
"633 557 LINE",
"655 565 LINE",
"836 1280 LINE",
"952 1260 LINE",
"756 524 LINE",
"696 465 LINE",
"629 446 LINE"
);
},
{
nodes = (
"438 1370 LINE SMOOTH",
"168 1370 OFFCURVE",
"-4 1198 OFFCURVE",
"-4 989 CURVE SMOOTH",
"-4 381 LINE SMOOTH",
"-4 172 OFFCURVE",
"168 0 OFFCURVE",
"438 0 CURVE SMOOTH",
"746 0 LINE SMOOTH",
"1016 0 OFFCURVE",
"1188 172 OFFCURVE",
"1188 381 CURVE SMOOTH",
"1188 989 LINE SMOOTH",
"1188 1198 OFFCURVE",
"1016 1370 OFFCURVE",
"746 1370 CURVE SMOOTH"
);
}
);
width = 1184;
}
);
unicode = 0056;
},
{
glyphname = W;
layers = (
{
layerId = "F859EBB1-02CE-49D6-A9DD-2E3CD13E297E";
paths = (
{
nodes = (
"787 565 LINE",
"809 557 LINE",
"836 563 LINE",
"903 1280 LINE",
"1018 1260 LINE",
"938 526 LINE",
"877 465 LINE",
"811 449 LINE",
"746 465 LINE",
"684 526 LINE",
"619 967 LINE",
"553 526 LINE",
"492 465 LINE",
"426 449 LINE",
"361 465 LINE",
"299 526 LINE",
"219 1260 LINE",
"334 1280 LINE",
"402 563 LINE",
"428 557 LINE",
"451 565 LINE",
"569 1247 LINE",
"668 1247 LINE"
);
},
{
nodes = (
"746 0 LINE SMOOTH",
"1016 0 OFFCURVE",
"1188 172 OFFCURVE",
"1188 381 CURVE SMOOTH",
"1188 989 LINE SMOOTH",
"1188 1198 OFFCURVE",
"1016 1370 OFFCURVE",
"746 1370 CURVE SMOOTH",
"438 1370 LINE SMOOTH",
"168 1370 OFFCURVE",
"-4 1198 OFFCURVE",
"-4 989 CURVE SMOOTH",
"-4 381 LINE SMOOTH",
"-4 172 OFFCURVE",
"168 0 OFFCURVE",
"438 0 CURVE SMOOTH"
);
}
);
width = 1184;
}
);
unicode = 0057;
},
{
glyphname = X;
layers = (
{
layerId = "F859EBB1-02CE-49D6-A9DD-2E3CD13E297E";
paths = (
{
nodes = (
"438 1370 LINE SMOOTH",
"168 1370 OFFCURVE",
"-4 1198 OFFCURVE",
"-4 989 CURVE SMOOTH",
"-4 381 LINE SMOOTH",
"-4 172 OFFCURVE",
"168 0 OFFCURVE",
"438 0 CURVE SMOOTH",
"746 0 LINE SMOOTH",
"1016 0 OFFCURVE",
"1188 172 OFFCURVE",
"1188 381 CURVE SMOOTH",
"1188 989 LINE SMOOTH",
"1188 1198 OFFCURVE",
"1016 1370 OFFCURVE",
"746 1370 CURVE SMOOTH"
);
},
{
nodes = (
"967 1245 LINE",
"731 864 LINE",
"963 489 LINE",
"868 451 LINE",
"641 799 LINE",
"420 451 LINE",
"326 489 LINE",
"557 864 LINE",
"324 1241 LINE",
"420 1282 LINE",
"641 922 LINE",
"868 1282 LINE"
);
}
);
width = 1184;
}
);
unicode = 0058;
},
{
glyphname = Y;
layers = (
{
layerId = "F859EBB1-02CE-49D6-A9DD-2E3CD13E297E";
paths = (
{
nodes = (
"637 831 LINE",
"819 1280 LINE",
"944 1280 LINE",
"690 684 LINE",
"690 453 LINE",
"584 453 LINE",
"584 686 LINE",
"334 1280 LINE",
"459 1280 LINE"
);
},
{
nodes = (
"438 1370 LINE SMOOTH",
"168 1370 OFFCURVE",
"-4 1198 OFFCURVE",
"-4 989 CURVE SMOOTH",
"-4 381 LINE SMOOTH",
"-4 172 OFFCURVE",
"168 0 OFFCURVE",
"438 0 CURVE SMOOTH",
"746 0 LINE SMOOTH",
"1016 0 OFFCURVE",
"1188 172 OFFCURVE",
"1188 381 CURVE SMOOTH",
"1188 989 LINE SMOOTH",
"1188 1198 OFFCURVE",
"1016 1370 OFFCURVE",
"746 1370 CURVE SMOOTH"
);
}
);
width = 1184;
}
);
unicode = 0059;
},
{
glyphname = Z;
layers = (
{
layerId = "F859EBB1-02CE-49D6-A9DD-2E3CD13E297E";
paths = (
{
nodes = (
"885 453 LINE",
"410 453 LINE",
"377 539 LINE",
"731 1174 LINE",
"393 1174 LINE",
"393 1280 LINE",
"821 1280 LINE",
"862 1192 LINE",
"508 557 LINE",
"885 557 LINE"
);
},
{
nodes = (
"438 1370 LINE SMOOTH",
"168 1370 OFFCURVE",
"-4 1198 OFFCURVE",
"-4 989 CURVE SMOOTH",
"-4 381 LINE SMOOTH",
"-4 172 OFFCURVE",
"168 0 OFFCURVE",
"438 0 CURVE SMOOTH",
"746 0 LINE SMOOTH",
"1016 0 OFFCURVE",
"1188 172 OFFCURVE",
"1188 381 CURVE SMOOTH",
"1188 989 LINE SMOOTH",
"1188 1198 OFFCURVE",
"1016 1370 OFFCURVE",
"746 1370 CURVE SMOOTH"
);
}
);
width = 1184;
}
);
unicode = 005A;
},
{
glyphname = bracketleft;
layers = (
{
layerId = "F859EBB1-02CE-49D6-A9DD-2E3CD13E297E";
paths = (
{
nodes = (
"591 354 LINE",
"419 354 LINE",
"419 1305 LINE",
"591 1305 LINE",
"591 1200 LINE",
"526 1200 LINE",
"526 459 LINE",
"591 459 LINE"
);
},
{
nodes = (
"438 1370 LINE SMOOTH",
"168 1370 OFFCURVE",
"-4 1198 OFFCURVE",
"-4 989 CURVE SMOOTH",
"-4 381 LINE SMOOTH",
"-4 172 OFFCURVE",
"168 0 OFFCURVE",
"438 0 CURVE SMOOTH",
"555 0 LINE SMOOTH",
"825 0 OFFCURVE",
"997 172 OFFCURVE",
"997 381 CURVE SMOOTH",
"997 989 LINE SMOOTH",
"997 1198 OFFCURVE",
"825 1370 OFFCURVE",
"555 1370 CURVE SMOOTH"
);
}
);
width = 993;
}
);
unicode = 005B;
},
{
glyphname = backslash;
layers = (
{
layerId = "F859EBB1-02CE-49D6-A9DD-2E3CD13E297E";
paths = (
{
nodes = (
"533 1280 LINE",
"670 453 LINE",
"561 453 LINE",
"424 1280 LINE"
);
},
{
nodes = (
"438 1370 LINE SMOOTH",
"168 1370 OFFCURVE",
"-4 1198 OFFCURVE",
"-4 989 CURVE SMOOTH",
"-4 381 LINE SMOOTH",
"-4 172 OFFCURVE",
"168 0 OFFCURVE",
"438 0 CURVE SMOOTH",
"619 0 LINE SMOOTH",
"889 0 OFFCURVE",
"1061 172 OFFCURVE",
"1061 381 CURVE SMOOTH",
"1061 989 LINE SMOOTH",
"1061 1198 OFFCURVE",
"889 1370 OFFCURVE",
"619 1370 CURVE SMOOTH"
);
}
);
width = 1057;
}
);
unicode = 005C;
},
{
glyphname = bracketright;
layers = (
{
layerId = "F859EBB1-02CE-49D6-A9DD-2E3CD13E297E";
paths = (
{
nodes = (
"402 459 LINE",
"467 459 LINE",
"467 1200 LINE",
"402 1200 LINE",
"402 1305 LINE",
"574 1305 LINE",
"574 354 LINE",
"402 354 LINE"
);
},
{
nodes = (
"438 1370 LINE SMOOTH",
"168 1370 OFFCURVE",
"-4 1198 OFFCURVE",
"-4 989 CURVE SMOOTH",
"-4 381 LINE SMOOTH",
"-4 172 OFFCURVE",
"168 0 OFFCURVE",
"438 0 CURVE SMOOTH",
"555 0 LINE SMOOTH",
"825 0 OFFCURVE",
"997 172 OFFCURVE",
"997 381 CURVE SMOOTH",
"997 989 LINE SMOOTH",
"997 1198 OFFCURVE",
"825 1370 OFFCURVE",
"555 1370 CURVE SMOOTH"
);
}
);
width = 993;
}
);
unicode = 005D;
},
{
glyphname = asciicircum;
layers = (
{
layerId = "F859EBB1-02CE-49D6-A9DD-2E3CD13E297E";
paths = (
{
nodes = (
"524 487 LINE",
"663 499 OFFCURVE",
"733 565 OFFCURVE",
"733 684 CURVE SMOOTH",
"733 703 OFFCURVE",
"731 724 OFFCURVE",
"727 747 CURVE",
"680 860 OFFCURVE",
"633 972 OFFCURVE",
"588 1085 CURVE",
"535 1184 OFFCURVE",
"497 1207 OFFCURVE",
"385 1218 CURVE",
"311 1218 LINE",
"236 1197 OFFCURVE",
"204 1178 OFFCURVE",
"156 1116 CURVE",
"98 978 OFFCURVE",
"-4 780 OFFCURVE",
"-4 674 CURVE SMOOTH",
"-4 581 OFFCURVE",
"55 518 OFFCURVE",
"172 487 CURVE",
"213 487 LINE",
"289 494 OFFCURVE",
"330 506 OFFCURVE",
"367 545 CURVE",
"398 516 OFFCURVE",
"430 502 OFFCURVE",
"483 487 CURVE"
);
},
{
nodes = (
"229 684 LINE",
"189 684 LINE",
"328 1022 LINE",
"402 1022 LINE",
"541 684 LINE",
"500 684 LINE",
"365 950 LINE"
);
}
);
width = 729;
}
);
unicode = 005E;
},
{
glyphname = underscore;
layers = (
{
layerId = "F859EBB1-02CE-49D6-A9DD-2E3CD13E297E";
paths = (
{
nodes = (
"668 453 LINE",
"668 344 LINE",
"209 344 LINE",
"209 453 LINE"
);
},
{
nodes = (
"168 1370 OFFCURVE",
"-4 1198 OFFCURVE",
"-4 989 CURVE SMOOTH",
"-4 381 LINE SMOOTH",
"-4 172 OFFCURVE",
"168 0 OFFCURVE",
"438 0 CURVE SMOOTH",
"709 0 OFFCURVE",
"881 172 OFFCURVE",
"881 381 CURVE SMOOTH",
"881 989 LINE SMOOTH",
"881 1198 OFFCURVE",
"709 1370 OFFCURVE",
"438 1370 CURVE SMOOTH"
);
}
);
width = 877;
}
);
unicode = 005F;
},
{
glyphname = grave;
layers = (
{
layerId = "F859EBB1-02CE-49D6-A9DD-2E3CD13E297E";
paths = (
{
nodes = (
"514 23 LINE",
"576 50 OFFCURVE",
"635 113 OFFCURVE",
"635 193 CURVE SMOOTH",
"635 220 OFFCURVE",
"621 290 OFFCURVE",
"531 575 CURVE",
"499 659 OFFCURVE",
"404 688 OFFCURVE",
"291 688 CURVE SMOOTH",
"141 688 OFFCURVE",
"-4 618 OFFCURVE",
"-4 487 CURVE",
"-5 449 OFFCURVE",
"9 405 OFFCURVE",
"39 354 CURVE SMOOTH",
"197 84 LINE SMOOTH",
"213 57 OFFCURVE",
"225 38 OFFCURVE",
"240 23 CURVE"
);
},
{
nodes = (
"215 514 LINE",
"336 514 LINE",
"436 180 LINE",
"367 180 LINE"
);
}
);
width = 631;
}
);
unicode = 0060;
},
{
glyphname = a;
layers = (
{
layerId = "F859EBB1-02CE-49D6-A9DD-2E3CD13E297E";
paths = (
{
nodes = (
"438 1370 LINE SMOOTH",
"168 1370 OFFCURVE",
"-4 1198 OFFCURVE",
"-4 989 CURVE SMOOTH",
"-4 381 LINE SMOOTH",
"-4 172 OFFCURVE",
"168 0 OFFCURVE",
"438 0 CURVE SMOOTH",
"746 0 LINE SMOOTH",
"1016 0 OFFCURVE",
"1188 172 OFFCURVE",
"1188 381 CURVE SMOOTH",
"1188 989 LINE SMOOTH",
"1188 1198 OFFCURVE",
"1016 1370 OFFCURVE",
"746 1370 CURVE SMOOTH"
);
},
{
nodes = (
"770 465 LINE",
"692 453 LINE",
"473 453 LINE",
"373 465 LINE",
"309 528 LINE",
"295 612 LINE",
"295 729 LINE",
"309 811 LINE",
"373 874 LINE",
"473 889 LINE",
"701 889 LINE",
"772 877 LINE",
"772 1110 LINE",
"758 1163 LINE",
"698 1176 LINE",
"475 1176 LINE",
"381 1157 LINE",
"356 1266 LINE",
"473 1280 LINE",
"701 1280 LINE",
"801 1268 LINE",
"869 1204 LINE",
"869 454 LINE"
);
},
{
nodes = (
"772 569 LINE",
"772 774 LINE",
"696 782 LINE",
"479 782 LINE",
"410 772 LINE",
"402 715 LINE",
"402 629 LINE",
"416 569 LINE",
"479 559 LINE",
"694 559 LINE"
);
}
);
width = 1184;
}
);
unicode = 0061;
},
{
glyphname = c;
layers = (
{
layerId = "F859EBB1-02CE-49D6-A9DD-2E3CD13E297E";
paths = (
{
nodes = (
"850 1266 LINE",
"830 1159 LINE",
"727 1176 LINE",
"498 1176 LINE",
"428 1165 LINE",
"418 1110 LINE",
"418 629 LINE",
"432 569 LINE",
"498 559 LINE",
"731 559 LINE",
"825 575 LINE",
"850 467 LINE",
"733 453 LINE",
"492 453 LINE",
"391 465 LINE",
"326 528 LINE",
"311 612 LINE",
"311 1120 LINE",
"326 1204 LINE",
"389 1268 LINE",
"492 1280 LINE",
"733 1280 LINE"
);
},
{
nodes = (
"438 1370 LINE SMOOTH",
"168 1370 OFFCURVE",
"-4 1198 OFFCURVE",
"-4 989 CURVE SMOOTH",
"-4 381 LINE SMOOTH",
"-4 172 OFFCURVE",
"168 0 OFFCURVE",
"438 0 CURVE SMOOTH",
"746 0 LINE SMOOTH",
"1016 0 OFFCURVE",
"1188 172 OFFCURVE",
"1188 381 CURVE SMOOTH",
"1188 989 LINE SMOOTH",
"1188 1198 OFFCURVE",
"1016 1370 OFFCURVE",
"746 1370 CURVE SMOOTH"
);
}
);
width = 1184;
}
);
unicode = 0063;
},
{
glyphname = e;
layers = (
{
layerId = "F859EBB1-02CE-49D6-A9DD-2E3CD13E297E";
paths = (
{
nodes = (
"438 1370 LINE SMOOTH",
"168 1370 OFFCURVE",
"-4 1198 OFFCURVE",
"-4 989 CURVE SMOOTH",
"-4 381 LINE SMOOTH",
"-4 172 OFFCURVE",
"168 0 OFFCURVE",
"438 0 CURVE SMOOTH",
"746 0 LINE SMOOTH",
"1016 0 OFFCURVE",
"1188 172 OFFCURVE",
"1188 381 CURVE SMOOTH",
"1188 989 LINE SMOOTH",
"1188 1198 OFFCURVE",
"1016 1370 OFFCURVE",
"746 1370 CURVE SMOOTH"
);
},
{
nodes = (
"877 868 LINE",
"410 868 LINE",
"410 662 LINE",
"424 602 LINE",
"488 592 LINE",
"731 592 LINE",
"825 608 LINE",
"850 500 LINE",
"733 485 LINE",
"481 485 LINE",
"381 498 LINE",
"318 561 LINE",
"303 645 LINE",
"303 1120 LINE",
"318 1204 LINE",
"381 1268 LINE",
"481 1280 LINE",
"698 1280 LINE",
"799 1268 LINE",
"862 1204 LINE",
"877 1120 LINE"
);
},
{
nodes = (
"770 973 LINE",
"770 1106 LINE",
"760 1165 LINE",
"692 1176 LINE",
"488 1176 LINE",
"418 1165 LINE",
"410 1108 LINE",
"410 973 LINE"
);
}
);
width = 1184;
}
);
unicode = 0065;
},
{
glyphname = n;
layers = (
{
layerId = "F859EBB1-02CE-49D6-A9DD-2E3CD13E297E";
paths = (
{
nodes = (
"932 453 LINE",
"825 453 LINE",
"825 1106 LINE",
"815 1165 LINE",
"746 1176 LINE",
"506 1176 LINE",
"428 1163 LINE",
"428 453 LINE",
"322 453 LINE",
"322 1255 LINE",
"502 1280 LINE",
"752 1280 LINE",
"854 1268 LINE",
"918 1204 LINE",
"932 1120 LINE"
);
},
{
nodes = (
"438 1370 LINE SMOOTH",
"168 1370 OFFCURVE",
"-4 1198 OFFCURVE",
"-4 989 CURVE SMOOTH",
"-4 381 LINE SMOOTH",
"-4 172 OFFCURVE",
"168 0 OFFCURVE",
"438 0 CURVE SMOOTH",
"746 0 LINE SMOOTH",
"1016 0 OFFCURVE",
"1188 172 OFFCURVE",
"1188 381 CURVE SMOOTH",
"1188 989 LINE SMOOTH",
"1188 1198 OFFCURVE",
"1016 1370 OFFCURVE",
"746 1370 CURVE SMOOTH"
);
}
);
width = 1184;
}
);
unicode = 006E;
},
{
glyphname = braceleft;
layers = (
{
layerId = "F859EBB1-02CE-49D6-A9DD-2E3CD13E297E";
paths = (
{
nodes = (
"438 1370 LINE SMOOTH",
"168 1370 OFFCURVE",
"-4 1198 OFFCURVE",
"-4 989 CURVE SMOOTH",
"-4 381 LINE SMOOTH",
"-4 172 OFFCURVE",
"168 0 OFFCURVE",
"438 0 CURVE SMOOTH",
"555 0 LINE SMOOTH",
"825 0 OFFCURVE",
"997 172 OFFCURVE",
"997 381 CURVE SMOOTH",
"997 989 LINE SMOOTH",
"997 1198 OFFCURVE",
"825 1370 OFFCURVE",
"555 1370 CURVE SMOOTH"
);
},
{
nodes = (
"346 764 LINE",
"281 774 LINE",
"164 774 LINE",
"164 881 LINE",
"281 881 LINE",
"344 891 LINE",
"363 950 LINE",
"363 1141 LINE",
"375 1225 LINE",
"440 1290 LINE",
"541 1303 LINE",
"664 1303 LINE",
"664 1196 LINE",
"547 1196 LINE",
"481 1186 LINE",
"465 1126 LINE",
"465 936 LINE",
"453 850 LINE",
"430 827 LINE",
"453 805 LINE",
"467 721 LINE",
"467 526 LINE",
"481 467 LINE",
"547 457 LINE",
"664 457 LINE",
"664 350 LINE",
"541 350 LINE",
"440 362 LINE",
"375 426 LINE",
"361 512 LINE",
"361 705 LINE"
);
}
);
width = 993;
}
);
unicode = 007B;
},
{
glyphname = bar;
layers = (
{
layerId = "F859EBB1-02CE-49D6-A9DD-2E3CD13E297E";
paths = (
{
nodes = (
"438 1370 LINE SMOOTH",
"168 1370 OFFCURVE",
"-4 1198 OFFCURVE",
"-4 989 CURVE SMOOTH",
"-4 381 LINE SMOOTH",
"-4 172 OFFCURVE",
"168 0 OFFCURVE",
"438 0 CURVE SMOOTH",
"555 0 LINE SMOOTH",
"825 0 OFFCURVE",
"997 172 OFFCURVE",
"997 381 CURVE SMOOTH",
"997 989 LINE SMOOTH",
"997 1198 OFFCURVE",
"825 1370 OFFCURVE",
"555 1370 CURVE SMOOTH",
"539 1370 LINE",
"539 378 LINE",
"454 378 LINE",
"454 1370 LINE"
);
}
);
width = 993;
}
);
unicode = 007C;
},
{
glyphname = braceright;
layers = (
{
layerId = "F859EBB1-02CE-49D6-A9DD-2E3CD13E297E";
paths = (
{
nodes = (
"438 1370 LINE SMOOTH",
"168 1370 OFFCURVE",
"-4 1198 OFFCURVE",
"-4 989 CURVE SMOOTH",
"-4 381 LINE SMOOTH",
"-4 172 OFFCURVE",
"168 0 OFFCURVE",
"438 0 CURVE SMOOTH",
"555 0 LINE SMOOTH",
"825 0 OFFCURVE",
"997 172 OFFCURVE",
"997 381 CURVE SMOOTH",
"997 989 LINE SMOOTH",
"997 1198 OFFCURVE",
"825 1370 OFFCURVE",
"555 1370 CURVE SMOOTH"
);
},
{
nodes = (
"632 705 LINE",
"632 512 LINE",
"618 426 LINE",
"553 362 LINE",
"452 350 LINE",
"329 350 LINE",
"329 457 LINE",
"446 457 LINE",
"512 467 LINE",
"526 526 LINE",
"526 721 LINE",
"540 805 LINE",
"563 827 LINE",
"540 850 LINE",
"528 936 LINE",
"528 1126 LINE",
"512 1186 LINE",
"446 1196 LINE",
"329 1196 LINE",
"329 1303 LINE",
"452 1303 LINE",
"553 1290 LINE",
"618 1225 LINE",
"630 1141 LINE",
"630 950 LINE",
"649 891 LINE",
"712 881 LINE",
"829 881 LINE",
"829 774 LINE",
"712 774 LINE",
"647 764 LINE"
);
}
);
width = 993;
}
);
unicode = 007D;
},
{
glyphname = asciitilde;
layers = (
{
layerId = "F859EBB1-02CE-49D6-A9DD-2E3CD13E297E";
paths = (
{
nodes = (
"891 1063 LINE",
"893 1056 OFFCURVE",
"893 1050 OFFCURVE",
"893 1044 CURVE SMOOTH",
"893 907 OFFCURVE",
"857 866 OFFCURVE",
"780 866 CURVE SMOOTH",
"668 866 OFFCURVE",
"507 950 OFFCURVE",
"457 950 CURVE SMOOTH",
"438 950 OFFCURVE",
"414 946 OFFCURVE",
"414 862 CURVE",
"324 862 LINE",
"318 887 OFFCURVE",
"315 909 OFFCURVE",
"315 928 CURVE SMOOTH",
"315 1014 OFFCURVE",
"369 1042 OFFCURVE",
"436 1042 CURVE SMOOTH",
"563 1042 OFFCURVE",
"743 967 OFFCURVE",
"752 967 CURVE SMOOTH",
"771 967 OFFCURVE",
"801 967 OFFCURVE",
"801 1063 CURVE"
);
},
{
nodes = (
"438 1370 LINE SMOOTH",
"168 1370 OFFCURVE",
"-4 1198 OFFCURVE",
"-4 989 CURVE SMOOTH",
"-4 381 LINE SMOOTH",
"-4 172 OFFCURVE",
"168 0 OFFCURVE",
"438 0 CURVE SMOOTH",
"746 0 LINE SMOOTH",
"1016 0 OFFCURVE",
"1188 172 OFFCURVE",
"1188 381 CURVE SMOOTH",
"1188 989 LINE SMOOTH",
"1188 1198 OFFCURVE",
"1016 1370 OFFCURVE",
"746 1370 CURVE SMOOTH"
);
}
);
width = 1184;
}
);
unicode = 007E;
},
{
glyphname = exclamdown;
layers = (
{
layerId = "F859EBB1-02CE-49D6-A9DD-2E3CD13E297E";
paths = (
{
nodes = (
"168 1370 OFFCURVE",
"-4 1198 OFFCURVE",
"-4 989 CURVE SMOOTH",
"-4 381 LINE SMOOTH",
"-4 176 OFFCURVE",
"164 0 OFFCURVE",
"430 0 CURVE SMOOTH",
"701 0 OFFCURVE",
"873 172 OFFCURVE",
"873 381 CURVE SMOOTH",
"873 989 LINE SMOOTH",
"873 1197 OFFCURVE",
"703 1365 OFFCURVE",
"438 1370 CURVE"
);
},
{
nodes = (
"412 438 LINE",
"412 1092 LINE",
"492 1092 LINE",
"492 438 LINE"
);
},
{
nodes = (
"389 1280 LINE",
"492 1280 LINE",
"492 1174 LINE",
"389 1174 LINE"
);
}
);
width = 869;
}
);
unicode = 00A1;
},
{
glyphname = cent;
layers = (
{
layerId = "F859EBB1-02CE-49D6-A9DD-2E3CD13E297E";
paths = (
{
nodes = (
"438 1370 LINE SMOOTH",
"168 1370 OFFCURVE",
"-4 1198 OFFCURVE",
"-4 989 CURVE SMOOTH",
"-4 381 LINE SMOOTH",
"-4 172 OFFCURVE",
"168 0 OFFCURVE",
"438 0 CURVE SMOOTH",
"746 0 LINE SMOOTH",
"1016 0 OFFCURVE",
"1188 172 OFFCURVE",
"1188 381 CURVE SMOOTH",
"1188 989 LINE SMOOTH",
"1188 1198 OFFCURVE",
"1016 1370 OFFCURVE",
"746 1370 CURVE SMOOTH"
);
},
{
nodes = (
"660 596 LINE",
"713 596 LINE",
"807 612 LINE",
"832 504 LINE",
"715 489 LINE",
"660 489 LINE",
"660 350 LINE",
"580 350 LINE",
"580 489 LINE",
"543 489 LINE",
"442 502 LINE",
"377 565 LINE",
"363 649 LINE",
"363 1020 LINE",
"377 1104 LINE",
"440 1167 LINE",
"543 1180 LINE",
"580 1180 LINE",
"580 1323 LINE",
"660 1323 LINE",
"660 1180 LINE",
"715 1180 LINE",
"832 1165 LINE",
"811 1059 LINE",
"709 1075 LINE",
"660 1075 LINE"
);
},
{
nodes = (
"580 596 LINE",
"580 1075 LINE",
"549 1075 LINE",
"479 1065 LINE",
"469 1010 LINE",
"469 666 LINE",
"476 645 OFFCURVE",
"476 629 OFFCURVE",
"483 596 CURVE"
);
}
);
width = 1184;
}
);
unicode = 00A2;
},
{
glyphname = sterling;
layers = (
{
layerId = "F859EBB1-02CE-49D6-A9DD-2E3CD13E297E";
paths = (
{
nodes = (
"438 1370 LINE SMOOTH",
"168 1370 OFFCURVE",
"-4 1198 OFFCURVE",
"-4 989 CURVE SMOOTH",
"-4 381 LINE SMOOTH",
"-4 172 OFFCURVE",
"168 0 OFFCURVE",
"438 0 CURVE SMOOTH",
"746 0 LINE SMOOTH",
"1016 0 OFFCURVE",
"1188 172 OFFCURVE",
"1188 381 CURVE SMOOTH",
"1188 989 LINE SMOOTH",
"1188 1198 OFFCURVE",
"1016 1370 OFFCURVE",
"746 1370 CURVE SMOOTH"
);
},
{
nodes = (
"356 809 LINE",
"356 887 LINE",
"428 887 LINE",
"428 1192 LINE",
"506 1268 LINE",
"664 1282 LINE",
"768 1268 LINE",
"846 1192 LINE",
"846 1040 LINE",
"739 1040 LINE",
"739 1163 LINE",
"666 1176 LINE",
"610 1176 LINE",
"535 1161 LINE",
"535 887 LINE",
"791 887 LINE",
"791 809 LINE",
"535 809 LINE",
"535 559 LINE",
"842 559 LINE",
"842 453 LINE",
"428 453 LINE",
"428 809 LINE"
);
}
);
width = 1184;
}
);
unicode = 00A3;
},
{
glyphname = currency;
layers = (
{
layerId = "F859EBB1-02CE-49D6-A9DD-2E3CD13E297E";
paths = (
{
nodes = (
"873 819 LINE",
"858 743 LINE",
"940 659 LINE",
"875 594 LINE",
"795 678 LINE",
"705 668 LINE",
"555 668 LINE",
"467 678 LINE",
"389 594 LINE",
"324 659 LINE",
"399 739 LINE",
"389 819 LINE",
"389 1057 LINE",
"397 1128 LINE",
"324 1210 LINE",
"387 1274 LINE",
"461 1194 LINE",
"555 1206 LINE",
"705 1206 LINE",
"801 1194 LINE",
"801 1192 LINE",
"877 1274 LINE",
"940 1210 LINE",
"860 1124 LINE",
"873 1057 LINE"
);
},
{
nodes = (
"780 821 LINE",
"780 1051 LINE",
"772 1106 LINE",
"707 1116 LINE",
"553 1116 LINE",
"488 1106 LINE",
"477 1055 LINE",
"477 825 LINE",
"492 770 LINE",
"553 760 LINE",
"707 760 LINE",
"768 770 LINE"
);
},
{
nodes = (
"438 1370 LINE SMOOTH",
"168 1370 OFFCURVE",
"-4 1198 OFFCURVE",
"-4 989 CURVE SMOOTH",
"-4 381 LINE SMOOTH",
"-4 172 OFFCURVE",
"168 0 OFFCURVE",
"438 0 CURVE SMOOTH",
"746 0 LINE SMOOTH",
"1016 0 OFFCURVE",
"1188 172 OFFCURVE",
"1188 381 CURVE SMOOTH",
"1188 989 LINE SMOOTH",
"1188 1198 OFFCURVE",
"1016 1370 OFFCURVE",
"746 1370 CURVE SMOOTH"
);
}
);
width = 1184;
}
);
unicode = 00A4;
},
{
glyphname = yen;
layers = (
{
layerId = "F859EBB1-02CE-49D6-A9DD-2E3CD13E297E";
paths = (
{
nodes = (
"438 1370 LINE SMOOTH",
"168 1370 OFFCURVE",
"-4 1198 OFFCURVE",
"-4 989 CURVE SMOOTH",
"-4 381 LINE SMOOTH",
"-4 172 OFFCURVE",
"168 0 OFFCURVE",
"438 0 CURVE SMOOTH",
"746 0 LINE SMOOTH",
"1016 0 OFFCURVE",
"1188 172 OFFCURVE",
"1188 381 CURVE SMOOTH",
"1188 989 LINE SMOOTH",
"1188 1198 OFFCURVE",
"1016 1370 OFFCURVE",
"746 1370 CURVE SMOOTH"
);
},
{
nodes = (
"402 688 LINE",
"402 772 LINE",
"512 772 LINE",
"299 1278 LINE",
"424 1278 LINE",
"602 831 LINE",
"784 1278 LINE",
"909 1278 LINE",
"692 772 LINE",
"803 772 LINE",
"803 688 LINE",
"655 688 LINE",
"653 686 LINE",
"653 683 OFFCURVE",
"655 681 OFFCURVE",
"655 662 CURVE",
"803 662 LINE",
"803 578 LINE",
"655 578 LINE",
"655 455 LINE",
"549 455 LINE",
"549 578 LINE",
"402 578 LINE",
"402 662 LINE",
"549 662 LINE",
"549 688 LINE"
);
}
);
width = 1184;
}
);
unicode = 00A5;
},
{
glyphname = brokenbar;
layers = (
{
layerId = "F859EBB1-02CE-49D6-A9DD-2E3CD13E297E";
paths = (
{
nodes = (
"446 934 LINE",
"446 1280 LINE",
"553 1280 LINE",
"553 934 LINE"
);
},
{
nodes = (
"446 453 LINE",
"446 819 LINE",
"553 819 LINE",
"553 453 LINE"
);
},
{
nodes = (
"438 1370 LINE SMOOTH",
"168 1370 OFFCURVE",
"-4 1198 OFFCURVE",
"-4 989 CURVE SMOOTH",
"-4 381 LINE SMOOTH",
"-4 172 OFFCURVE",
"168 0 OFFCURVE",
"438 0 CURVE SMOOTH",
"555 0 LINE SMOOTH",
"825 0 OFFCURVE",
"997 172 OFFCURVE",
"997 381 CURVE SMOOTH",
"997 989 LINE SMOOTH",
"997 1198 OFFCURVE",
"825 1370 OFFCURVE",
"555 1370 CURVE SMOOTH"
);
}
);
width = 993;
}
);
unicode = 00A6;
},
{
glyphname = section;
layers = (
{
layerId = "F859EBB1-02CE-49D6-A9DD-2E3CD13E297E";
paths = (
{
nodes = (
"428 846 LINE",
"446 923 LINE",
"430 926 LINE",
"371 983 LINE",
"359 1065 LINE",
"359 1116 LINE",
"371 1198 LINE",
"430 1255 LINE",
"526 1270 LINE",
"789 1270 LINE",
"893 1253 LINE",
"872 1168 LINE",
"787 1184 LINE",
"528 1184 LINE",
"459 1171 LINE",
"442 1106 LINE",
"442 1075 LINE",
"459 1010 LINE",
"528 997 LINE",
"630 997 LINE",
"729 987 LINE",
"786 930 LINE",
"801 846 LINE",
"801 811 LINE",
"780 732 LINE",
"787 731 OFFCURVE",
"792 731 OFFCURVE",
"799 731 CURVE",
"858 674 LINE",
"870 592 LINE",
"870 510 LINE",
"858 428 LINE",
"799 371 LINE",
"702 357 LINE",
"441 357 LINE",
"335 372 LINE",
"357 458 LINE",
"442 442 LINE",
"701 442 LINE",
"770 455 LINE",
"787 520 LINE",
"787 581 LINE",
"769 647 LINE",
"699 660 LINE",
"599 660 LINE",
"500 670 LINE",
"443 727 LINE",
"428 811 LINE"
);
},
{
nodes = (
"700 743 LINE",
"705 766 OFFCURVE",
"711 790 OFFCURVE",
"715 813 CURVE",
"715 838 LINE",
"700 902 LINE",
"629 914 LINE",
"529 914 LINE",
"524 889 OFFCURVE",
"518 863 OFFCURVE",
"514 838 CURVE",
"514 821 LINE",
"529 754 LINE",
"602 743 LINE"
);
},
{
nodes = (
"438 1370 LINE SMOOTH",
"168 1370 OFFCURVE",
"-4 1198 OFFCURVE",
"-4 989 CURVE SMOOTH",
"-4 381 LINE SMOOTH",
"-4 172 OFFCURVE",
"168 0 OFFCURVE",
"438 0 CURVE SMOOTH",
"746 0 LINE SMOOTH",
"1016 0 OFFCURVE",
"1188 172 OFFCURVE",
"1188 381 CURVE SMOOTH",
"1188 989 LINE SMOOTH",
"1188 1198 OFFCURVE",
"1016 1370 OFFCURVE",
"746 1370 CURVE SMOOTH"
);
}
);
width = 1184;
}
);
unicode = 00A7;
},
{
glyphname = dieresis;
layers = (
{
layerId = "F859EBB1-02CE-49D6-A9DD-2E3CD13E297E";
paths = (
{
nodes = (
"455 207 LINE",
"455 336 LINE",
"586 336 LINE",
"586 207 LINE"
);
},
{
nodes = (
"664 41 LINE",
"752 98 OFFCURVE",
"799 186 OFFCURVE",
"799 291 CURVE SMOOTH",
"799 451 OFFCURVE",
"643 590 OFFCURVE",
"397 590 CURVE SMOOTH",
"152 590 OFFCURVE",
"-4 451 OFFCURVE",
"-4 291 CURVE SMOOTH",
"-4 187 OFFCURVE",
"41 98 OFFCURVE",
"129 41 CURVE"
);
},
{
nodes = (
"193 207 LINE",
"193 336 LINE",
"324 336 LINE",
"324 207 LINE"
);
}
);
width = 795;
}
);
unicode = 00A8;
},
{
glyphname = copyright;
layers = (
{
layerId = "F859EBB1-02CE-49D6-A9DD-2E3CD13E297E";
paths = (
{
nodes = (
"438 1370 LINE SMOOTH",
"168 1370 OFFCURVE",
"-4 1198 OFFCURVE",
"-4 989 CURVE SMOOTH",
"-4 381 LINE SMOOTH",
"-4 172 OFFCURVE",
"168 0 OFFCURVE",
"438 0 CURVE SMOOTH",
"746 0 LINE SMOOTH",
"1016 0 OFFCURVE",
"1188 172 OFFCURVE",
"1188 381 CURVE SMOOTH",
"1188 989 LINE SMOOTH",
"1188 1198 OFFCURVE",
"1016 1370 OFFCURVE",
"746 1370 CURVE SMOOTH"
);
},
{
nodes = (
"211 588 OFFCURVE",
"393 406 OFFCURVE",
"617 406 CURVE SMOOTH",
"840 406 OFFCURVE",
"1022 588 OFFCURVE",
"1022 811 CURVE SMOOTH",
"1022 1034 OFFCURVE",
"840 1217 OFFCURVE",
"617 1217 CURVE SMOOTH",
"393 1217 OFFCURVE",
"211 1034 OFFCURVE",
"211 811 CURVE SMOOTH"
);
},
{
nodes = (
"143 1073 OFFCURVE",
"354 1284 OFFCURVE",
"617 1284 CURVE SMOOTH",
"879 1284 OFFCURVE",
"1090 1073 OFFCURVE",
"1090 811 CURVE SMOOTH",
"1090 549 OFFCURVE",
"879 338 OFFCURVE",
"617 338 CURVE SMOOTH",
"354 338 OFFCURVE",
"143 549 OFFCURVE",
"143 811 CURVE SMOOTH"
);
},
{
nodes = (
"803 1098 LINE",
"789 1024 LINE",
"717 1034 LINE",
"557 1034 LINE",
"508 1028 LINE",
"500 989 LINE",
"500 651 LINE",
"510 610 LINE",
"557 602 LINE",
"719 602 LINE",
"787 614 LINE",
"803 539 LINE",
"721 528 LINE",
"551 528 LINE",
"481 537 LINE",
"436 582 LINE",
"426 641 LINE",
"426 995 LINE",
"436 1055 LINE",
"479 1100 LINE",
"551 1108 LINE",
"721 1108 LINE"
);
}
);
width = 1184;
}
);
unicode = 00A9;
},
{
glyphname = ordfeminine;
layers = (
{
layerId = "F859EBB1-02CE-49D6-A9DD-2E3CD13E297E";
paths = (
{
nodes = (
"438 1370 LINE SMOOTH",
"168 1370 OFFCURVE",
"-4 1198 OFFCURVE",
"-4 989 CURVE SMOOTH",
"-4 381 LINE SMOOTH",
"-4 172 OFFCURVE",
"168 0 OFFCURVE",
"438 0 CURVE SMOOTH",
"746 0 LINE SMOOTH",
"1016 0 OFFCURVE",
"1188 172 OFFCURVE",
"1188 381 CURVE SMOOTH",
"1188 989 LINE SMOOTH",
"1188 1198 OFFCURVE",
"1016 1370 OFFCURVE",
"746 1370 CURVE SMOOTH"
);
},
{
nodes = (
"879 756 LINE",
"864 672 LINE",
"801 608 LINE",
"701 596 LINE",
"547 596 LINE",
"447 608 LINE",
"383 672 LINE",
"369 756 LINE",
"369 815 LINE",
"383 897 LINE",
"447 961 LINE",
"547 975 LINE",
"701 975 LINE",
"772 963 LINE",
"772 1110 LINE",
"758 1163 LINE",
"698 1176 LINE",
"549 1176 LINE",
"522 1171 OFFCURVE",
"476 1160 OFFCURVE",
"455 1157 CURVE",
"430 1266 LINE",
"547 1280 LINE",
"701 1280 LINE",
"801 1268 LINE",
"864 1204 LINE",
"879 1120 LINE"
);
},
{
nodes = (
"772 766 LINE",
"772 860 LINE",
"748 864 OFFCURVE",
"721 864 OFFCURVE",
"696 868 CURVE",
"553 868 LINE",
"483 858 LINE",
"479 839 OFFCURVE",
"479 817 OFFCURVE",
"475 801 CURVE",
"475 772 LINE",
"478 762 OFFCURVE",
"488 728 OFFCURVE",
"490 713 CURVE",
"553 702 LINE",
"694 702 LINE",
"758 713 LINE"
);
}
);
width = 1184;
}
);
unicode = 00AA;
},
{
glyphname = guillemotleft;
layers = (
{
layerId = "F859EBB1-02CE-49D6-A9DD-2E3CD13E297E";
paths = (
{
nodes = (
"522 784 LINE",
"522 811 LINE",
"807 1188 LINE",
"854 1141 LINE",
"596 797 LINE",
"854 453 LINE",
"807 408 LINE"
);
},
{
nodes = (
"297 784 LINE",
"297 811 LINE",
"561 1188 LINE",
"608 1141 LINE",
"371 797 LINE",
"608 453 LINE",
"561 408 LINE"
);
},
{
nodes = (
"438 1370 LINE SMOOTH",
"168 1370 OFFCURVE",
"-4 1198 OFFCURVE",
"-4 989 CURVE SMOOTH",
"-4 381 LINE SMOOTH",
"-4 172 OFFCURVE",
"168 0 OFFCURVE",
"438 0 CURVE SMOOTH",
"746 0 LINE SMOOTH",
"1016 0 OFFCURVE",
"1188 172 OFFCURVE",
"1188 381 CURVE SMOOTH",
"1188 989 LINE SMOOTH",
"1188 1198 OFFCURVE",
"1016 1370 OFFCURVE",
"746 1370 CURVE SMOOTH"
);
}
);
width = 1184;
}
);
unicode = 00AB;
},
{
glyphname = registered;
layers = (
{
layerId = "F859EBB1-02CE-49D6-A9DD-2E3CD13E297E";
paths = (
{
nodes = (
"438 1370 LINE SMOOTH",
"168 1370 OFFCURVE",
"-4 1198 OFFCURVE",
"-4 989 CURVE SMOOTH",
"-4 381 LINE SMOOTH",
"-4 172 OFFCURVE",
"168 0 OFFCURVE",
"438 0 CURVE SMOOTH",
"746 0 LINE SMOOTH",
"1016 0 OFFCURVE",
"1188 172 OFFCURVE",
"1188 381 CURVE SMOOTH",
"1188 989 LINE SMOOTH",
"1188 1198 OFFCURVE",
"1016 1370 OFFCURVE",
"746 1370 CURVE SMOOTH"
);
},
{
nodes = (
"211 588 OFFCURVE",
"393 406 OFFCURVE",
"617 406 CURVE SMOOTH",
"840 406 OFFCURVE",
"1022 588 OFFCURVE",
"1022 811 CURVE SMOOTH",
"1022 1034 OFFCURVE",
"840 1217 OFFCURVE",
"617 1217 CURVE SMOOTH",
"393 1217 OFFCURVE",
"211 1034 OFFCURVE",
"211 811 CURVE SMOOTH"
);
},
{
nodes = (
"143 1073 OFFCURVE",
"354 1284 OFFCURVE",
"617 1284 CURVE SMOOTH",
"879 1284 OFFCURVE",
"1090 1073 OFFCURVE",
"1090 811 CURVE SMOOTH",
"1090 549 OFFCURVE",
"879 338 OFFCURVE",
"617 338 CURVE SMOOTH",
"354 338 OFFCURVE",
"143 549 OFFCURVE",
"143 811 CURVE SMOOTH"
);
},
{
nodes = (
"741 741 LINE",
"690 764 LINE",
"508 764 LINE",
"508 530 LINE",
"434 530 LINE",
"434 1110 LINE",
"694 1110 LINE",
"766 1100 LINE",
"811 1040 LINE",
"819 983 LINE",
"819 905 LINE",
"799 842 LINE",
"721 805 LINE",
"801 776 LINE",
"825 711 LINE",
"825 530 LINE",
"752 530 LINE",
"752 705 LINE"
);
},
{
nodes = (
"508 1036 LINE",
"508 840 LINE",
"690 840 LINE",
"735 860 LINE",
"746 899 LINE",
"746 973 LINE",
"741 1014 LINE",
"690 1036 LINE"
);
}
);
width = 1184;
}
);
unicode = 00AE;
},
{
glyphname = overscore;
layers = (
{
layerId = "F859EBB1-02CE-49D6-A9DD-2E3CD13E297E";
paths = (
{
nodes = (
"236 209 LINE",
"236 317 LINE",
"612 317 LINE",
"612 209 LINE"
);
},
{
nodes = (
"707 0 LINE",
"819 68 OFFCURVE",
"881 158 OFFCURVE",
"881 279 CURVE SMOOTH",
"881 452 OFFCURVE",
"709 598 OFFCURVE",
"438 598 CURVE SMOOTH",
"168 598 OFFCURVE",
"-4 452 OFFCURVE",
"-4 279 CURVE SMOOTH",
"-4 158 OFFCURVE",
"57 68 OFFCURVE",
"170 0 CURVE"
);
}
);
width = 877;
}
);
unicode = 00AF;
},
{
glyphname = degree;
layers = (
{
layerId = "F859EBB1-02CE-49D6-A9DD-2E3CD13E297E";
paths = (
{
nodes = (
"709 0 OFFCURVE",
"881 172 OFFCURVE",
"881 381 CURVE SMOOTH",
"881 989 LINE SMOOTH",
"881 1198 OFFCURVE",
"709 1370 OFFCURVE",
"438 1370 CURVE SMOOTH",
"168 1370 OFFCURVE",
"-4 1198 OFFCURVE",
"-4 989 CURVE SMOOTH",
"-4 381 LINE SMOOTH",
"-4 172 OFFCURVE",
"168 0 OFFCURVE",
"438 0 CURVE SMOOTH"
);
},
{
nodes = (
"475 1266 LINE",
"553 1251 LINE",
"612 1194 LINE",
"623 1090 LINE",
"612 997 LINE",
"553 938 LINE",
"475 926 LINE",
"404 926 LINE",
"326 938 LINE",
"268 995 LINE",
"256 1100 LINE",
"268 1194 LINE",
"326 1251 LINE",
"404 1266 LINE"
);
},
{
nodes = (
"469 1176 LINE",
"416 1176 LINE",
"356 1165 LINE",
"346 1096 LINE",
"356 1026 LINE",
"412 1016 LINE",
"465 1016 LINE",
"524 1030 LINE",
"535 1096 LINE",
"524 1161 LINE"
);
}
);
width = 877;
}
);
unicode = 00B0;
},
{
glyphname = plusminus;
layers = (
{
layerId = "F859EBB1-02CE-49D6-A9DD-2E3CD13E297E";
paths = (
{
nodes = (
"250 596 LINE",
"250 705 LINE",
"627 705 LINE",
"627 596 LINE"
);
},
{
nodes = (
"694 979 LINE",
"498 979 LINE",
"498 784 LINE",
"393 784 LINE",
"393 979 LINE",
"199 979 LINE",
"199 1085 LINE",
"393 1085 LINE",
"393 1282 LINE",
"498 1282 LINE",
"498 1085 LINE",
"694 1085 LINE"
);
},
{
nodes = (
"709 0 OFFCURVE",
"881 172 OFFCURVE",
"881 381 CURVE SMOOTH",
"881 989 LINE SMOOTH",
"881 1198 OFFCURVE",
"709 1370 OFFCURVE",
"438 1370 CURVE SMOOTH",
"168 1370 OFFCURVE",
"-4 1198 OFFCURVE",
"-4 989 CURVE SMOOTH",
"-4 381 LINE SMOOTH",
"-4 172 OFFCURVE",
"168 0 OFFCURVE",
"438 0 CURVE SMOOTH"
);
}
);
width = 877;
}
);
unicode = 00B1;
},
{
glyphname = uni00B2;
layers = (
{
layerId = "F859EBB1-02CE-49D6-A9DD-2E3CD13E297E";
paths = (
{
nodes = (
"438 1370 LINE SMOOTH",
"168 1370 OFFCURVE",
"-4 1198 OFFCURVE",
"-4 989 CURVE SMOOTH",
"-4 381 LINE SMOOTH",
"-4 172 OFFCURVE",
"168 0 OFFCURVE",
"438 0 CURVE SMOOTH",
"746 0 LINE SMOOTH",
"1016 0 OFFCURVE",
"1188 172 OFFCURVE",
"1188 381 CURVE SMOOTH",
"1188 989 LINE SMOOTH",
"1188 1198 OFFCURVE",
"1016 1370 OFFCURVE",
"746 1370 CURVE SMOOTH"
);
},
{
nodes = (
"708 1163 LINE",
"638 1174 LINE",
"579 1174 LINE",
"509 1163 LINE",
"497 1106 LINE",
"390 1116 LINE",
"407 1202 LINE",
"470 1266 LINE",
"572 1280 LINE",
"644 1280 LINE",
"746 1266 LINE",
"810 1202 LINE",
"824 1128 LINE",
"824 1100 LINE",
"810 1032 LINE",
"765 989 LINE",
"648 956 LINE",
"507 940 LINE",
"499 885 LINE",
"499 846 LINE",
"781 846 LINE",
"781 741 LINE",
"458 741 LINE",
"394 805 LINE",
"394 897 LINE",
"407 979 LINE",
"452 1024 LINE",
"568 1057 LINE",
"703 1073 LINE",
"718 1114 LINE"
);
}
);
width = 1184;
}
);
unicode = 00B2;
},
{
glyphname = uni00B3;
layers = (
{
layerId = "F859EBB1-02CE-49D6-A9DD-2E3CD13E297E";
paths = (
{
nodes = (
"438 1370 LINE SMOOTH",
"168 1370 OFFCURVE",
"-4 1198 OFFCURVE",
"-4 989 CURVE SMOOTH",
"-4 381 LINE SMOOTH",
"-4 172 OFFCURVE",
"168 0 OFFCURVE",
"438 0 CURVE SMOOTH",
"746 0 LINE SMOOTH",
"1016 0 OFFCURVE",
"1188 172 OFFCURVE",
"1188 381 CURVE SMOOTH",
"1188 989 LINE SMOOTH",
"1188 1198 OFFCURVE",
"1016 1370 OFFCURVE",
"746 1370 CURVE SMOOTH"
);
},
{
nodes = (
"782 1124 LINE",
"772 1163 LINE",
"703 1174 LINE",
"596 1174 LINE",
"526 1163 LINE",
"514 1124 LINE",
"406 1135 LINE",
"424 1202 LINE",
"488 1266 LINE",
"590 1280 LINE",
"709 1280 LINE",
"811 1266 LINE",
"875 1202 LINE",
"889 1139 LINE",
"889 1120 LINE",
"875 1047 LINE",
"850 1022 LINE",
"875 999 LINE",
"889 920 LINE",
"889 901 LINE",
"875 817 LINE",
"811 754 LINE",
"709 741 LINE",
"590 741 LINE",
"488 754 LINE",
"424 817 LINE",
"406 903 LINE",
"514 913 LINE",
"531 858 LINE",
"592 848 LINE",
"703 848 LINE",
"768 858 LINE",
"782 911 LINE",
"772 967 LINE",
"705 975 LINE",
"571 975 LINE",
"571 1063 LINE",
"703 1063 LINE",
"768 1073 LINE"
);
}
);
width = 1184;
}
);
unicode = 00B3;
},
{
glyphname = acute;
layers = (
{
layerId = "F859EBB1-02CE-49D6-A9DD-2E3CD13E297E";
paths = (
{
nodes = (
"391 23 LINE",
"406 38 OFFCURVE",
"418 57 OFFCURVE",
"434 84 CURVE SMOOTH",
"592 354 LINE SMOOTH",
"622 405 OFFCURVE",
"635 450 OFFCURVE",
"635 487 CURVE SMOOTH",
"635 618 OFFCURVE",
"489 688 OFFCURVE",
"340 688 CURVE SMOOTH",
"227 688 OFFCURVE",
"132 659 OFFCURVE",
"100 575 CURVE",
"7 290 OFFCURVE",
"-4 220 OFFCURVE",
"-4 193 CURVE SMOOTH",
"-4 113 OFFCURVE",
"55 50 OFFCURVE",
"117 23 CURVE"
);
},
{
nodes = (
"264 180 LINE",
"195 180 LINE",
"295 514 LINE",
"416 514 LINE"
);
}
);
width = 631;
}
);
unicode = 00B4;
},
{
glyphname = uni00B5;
layers = (
{
layerId = "F859EBB1-02CE-49D6-A9DD-2E3CD13E297E";
paths = (
{
nodes = (
"438 1370 LINE SMOOTH",
"168 1370 OFFCURVE",
"-4 1198 OFFCURVE",
"-4 989 CURVE SMOOTH",
"-4 381 LINE SMOOTH",
"-4 172 OFFCURVE",
"168 0 OFFCURVE",
"438 0 CURVE SMOOTH",
"746 0 LINE SMOOTH",
"1016 0 OFFCURVE",
"1188 172 OFFCURVE",
"1188 381 CURVE SMOOTH",
"1188 989 LINE SMOOTH",
"1188 1198 OFFCURVE",
"1016 1370 OFFCURVE",
"746 1370 CURVE SMOOTH"
);
},
{
nodes = (
"920 616 LINE",
"905 530 LINE",
"842 467 LINE",
"739 455 LINE",
"471 455 LINE",
"397 467 LINE",
"397 322 LINE",
"293 322 LINE",
"293 1278 LINE",
"397 1278 LINE",
"397 631 LINE",
"412 571 LINE",
"477 561 LINE",
"733 561 LINE",
"799 571 LINE",
"803 588 OFFCURVE",
"810 610 OFFCURVE",
"813 627 CURVE",
"813 1278 LINE",
"920 1278 LINE"
);
}
);
width = 1184;
}
);
unicode = 00B5;
},
{
glyphname = paragraph;
layers = (
{
layerId = "F859EBB1-02CE-49D6-A9DD-2E3CD13E297E";
paths = (
{
nodes = (
"318 1114 LINE",
"332 1194 LINE",
"383 1245 LINE",
"479 1260 LINE",
"858 1260 LINE",
"858 475 LINE",
"795 475 LINE",
"795 1192 LINE",
"698 1192 LINE",
"698 475 LINE",
"635 475 LINE",
"635 838 LINE",
"479 838 LINE",
"383 850 LINE",
"332 901 LINE",
"318 983 LINE"
);
},
{
nodes = (
"438 1370 LINE SMOOTH",
"168 1370 OFFCURVE",
"-4 1198 OFFCURVE",
"-4 989 CURVE SMOOTH",
"-4 381 LINE SMOOTH",
"-4 172 OFFCURVE",
"168 0 OFFCURVE",
"438 0 CURVE SMOOTH",
"746 0 LINE SMOOTH",
"1016 0 OFFCURVE",
"1188 172 OFFCURVE",
"1188 381 CURVE SMOOTH",
"1188 989 LINE SMOOTH",
"1188 1198 OFFCURVE",
"1016 1370 OFFCURVE",
"746 1370 CURVE SMOOTH"
);
}
);
width = 1184;
}
);
unicode = 00B6;
},
{
glyphname = middot;
layers = (
{
layerId = "F859EBB1-02CE-49D6-A9DD-2E3CD13E297E";
paths = (
{
nodes = (
"373 897 LINE",
"373 1026 LINE",
"504 1026 LINE",
"504 897 LINE"
);
},
{
nodes = (
"709 0 OFFCURVE",
"881 172 OFFCURVE",
"881 381 CURVE SMOOTH",
"881 989 LINE SMOOTH",
"881 1198 OFFCURVE",
"709 1370 OFFCURVE",
"438 1370 CURVE SMOOTH",
"168 1370 OFFCURVE",
"-4 1198 OFFCURVE",
"-4 989 CURVE SMOOTH",
"-4 381 LINE SMOOTH",
"-4 172 OFFCURVE",
"168 0 OFFCURVE",
"438 0 CURVE SMOOTH"
);
}
);
width = 877;
}
);
unicode = 00B7;
},
{
glyphname = cedilla;
layers = (
{
layerId = "F859EBB1-02CE-49D6-A9DD-2E3CD13E297E";
paths = (
{
nodes = (
"86 -156 LINE",
"96 -121 LINE",
"207 -111 LINE",
"207 6 LINE",
"137 6 LINE",
"137 -33 LINE",
"66 -33 LINE",
"8 -90 LINE",
"-4 -147 LINE",
"-4 -166 LINE",
"8 -244 LINE",
"68 -303 LINE",
"211 -315 LINE",
"211 -225 LINE",
"100 -215 LINE"
);
}
);
width = 207;
}
);
unicode = 00B8;
},
{
glyphname = uni00B9;
layers = (
{
layerId = "F859EBB1-02CE-49D6-A9DD-2E3CD13E297E";
paths = (
{
nodes = (
"674 741 LINE",
"567 741 LINE",
"567 1169 LINE",
"438 1124 LINE",
"438 1231 LINE",
"584 1282 LINE",
"674 1282 LINE"
);
},
{
nodes = (
"438 1370 LINE SMOOTH",
"168 1370 OFFCURVE",
"-4 1198 OFFCURVE",
"-4 989 CURVE SMOOTH",
"-4 381 LINE SMOOTH",
"-4 172 OFFCURVE",
"168 0 OFFCURVE",
"438 0 CURVE SMOOTH",
"746 0 LINE SMOOTH",
"1016 0 OFFCURVE",
"1188 172 OFFCURVE",
"1188 381 CURVE SMOOTH",
"1188 989 LINE SMOOTH",
"1188 1198 OFFCURVE",
"1016 1370 OFFCURVE",
"746 1370 CURVE SMOOTH"
);
}
);
width = 1184;
}
);
unicode = 00B9;
},
{
glyphname = ordmasculine;
layers = (
{
layerId = "F859EBB1-02CE-49D6-A9DD-2E3CD13E297E";
paths = (
{
nodes = (
"438 1370 LINE SMOOTH",
"168 1370 OFFCURVE",
"-4 1198 OFFCURVE",
"-4 989 CURVE SMOOTH",
"-4 381 LINE SMOOTH",
"-4 172 OFFCURVE",
"168 0 OFFCURVE",
"438 0 CURVE SMOOTH",
"746 0 LINE SMOOTH",
"1016 0 OFFCURVE",
"1188 172 OFFCURVE",
"1188 381 CURVE SMOOTH",
"1188 989 LINE SMOOTH",
"1188 1198 OFFCURVE",
"1016 1370 OFFCURVE",
"746 1370 CURVE SMOOTH"
);
},
{
nodes = (
"930 758 LINE",
"916 672 LINE",
"852 608 LINE",
"750 596 LINE",
"543 596 LINE",
"442 608 LINE",
"377 672 LINE",
"365 758 LINE",
"365 1118 LINE",
"377 1202 LINE",
"440 1266 LINE",
"543 1280 LINE",
"750 1280 LINE",
"852 1266 LINE",
"916 1202 LINE",
"930 1118 LINE"
);
},
{
nodes = (
"823 768 LINE",
"823 1104 LINE",
"813 1163 LINE",
"744 1174 LINE",
"549 1174 LINE",
"479 1163 LINE",
"469 1108 LINE",
"469 772 LINE",
"483 713 LINE",
"549 702 LINE",
"744 702 LINE",
"809 713 LINE"
);
}
);
width = 1184;
}
);
unicode = 00BA;
},
{
glyphname = guillemotright;
layers = (
{
layerId = "F859EBB1-02CE-49D6-A9DD-2E3CD13E297E";
paths = (
{
nodes = (
"377 408 LINE",
"330 453 LINE",
"588 797 LINE",
"330 1141 LINE",
"377 1188 LINE",
"662 811 LINE",
"662 784 LINE"
);
},
{
nodes = (
"623 408 LINE",
"576 453 LINE",
"813 797 LINE",
"576 1141 LINE",
"623 1188 LINE",
"887 811 LINE",
"887 784 LINE"
);
},
{
nodes = (
"438 1370 LINE SMOOTH",
"168 1370 OFFCURVE",
"-4 1198 OFFCURVE",
"-4 989 CURVE SMOOTH",
"-4 381 LINE SMOOTH",
"-4 172 OFFCURVE",
"168 0 OFFCURVE",
"438 0 CURVE SMOOTH",
"746 0 LINE SMOOTH",
"1016 0 OFFCURVE",
"1188 172 OFFCURVE",
"1188 381 CURVE SMOOTH",
"1188 989 LINE SMOOTH",
"1188 1198 OFFCURVE",
"1016 1370 OFFCURVE",
"746 1370 CURVE SMOOTH"
);
}
);
width = 1184;
}
);
unicode = 00BB;
},
{
glyphname = onequarter;
layers = (
{
layerId = "F859EBB1-02CE-49D6-A9DD-2E3CD13E297E";
paths = (
{
nodes = (
"682 1280 LINE",
"481 453 LINE",
"373 453 LINE",
"574 1280 LINE"
);
},
{
nodes = (
"389 741 LINE",
"283 741 LINE",
"283 1169 LINE",
"154 1124 LINE",
"154 1231 LINE",
"299 1282 LINE",
"389 1282 LINE"
);
},
{
nodes = (
"438 1370 LINE SMOOTH",
"168 1370 OFFCURVE",
"-4 1198 OFFCURVE",
"-4 989 CURVE SMOOTH",
"-4 381 LINE SMOOTH",
"-4 172 OFFCURVE",
"168 0 OFFCURVE",
"438 0 CURVE SMOOTH",
"746 0 LINE SMOOTH",
"1016 0 OFFCURVE",
"1188 172 OFFCURVE",
"1188 381 CURVE SMOOTH",
"1188 989 LINE SMOOTH",
"1188 1198 OFFCURVE",
"1016 1370 OFFCURVE",
"746 1370 CURVE SMOOTH"
);
},
{
nodes = (
"717 522 LINE",
"654 586 LINE",
"640 670 LINE",
"640 930 LINE",
"746 930 LINE",
"746 684 LINE",
"756 625 LINE",
"826 615 LINE",
"892 615 LINE",
"892 930 LINE",
"998 930 LINE",
"998 617 LINE",
"1122 617 LINE",
"1122 510 LINE",
"998 510 LINE",
"998 356 LINE",
"892 356 LINE",
"892 510 LINE",
"820 510 LINE"
);
}
);
width = 1184;
}
);
unicode = 00BC;
},
{
glyphname = onehalf;
layers = (
{
layerId = "F859EBB1-02CE-49D6-A9DD-2E3CD13E297E";
paths = (
{
nodes = (
"961 877 LINE",
"891 887 LINE",
"832 887 LINE",
"762 877 LINE",
"750 819 LINE",
"643 829 LINE",
"660 915 LINE",
"723 979 LINE",
"825 993 LINE",
"897 993 LINE",
"1000 979 LINE",
"1063 915 LINE",
"1077 842 LINE",
"1077 813 LINE",
"1063 745 LINE",
"1018 702 LINE",
"901 670 LINE",
"760 653 LINE",
"752 598 LINE",
"752 559 LINE",
"1034 559 LINE",
"1034 455 LINE",
"711 455 LINE",
"647 518 LINE",
"647 610 LINE",
"660 692 LINE",
"705 737 LINE",
"821 770 LINE",
"957 786 LINE",
"971 827 LINE"
);
},
{
nodes = (
"682 1280 LINE",
"481 453 LINE",
"373 453 LINE",
"574 1280 LINE"
);
},
{
nodes = (
"389 741 LINE",
"283 741 LINE",
"283 1169 LINE",
"154 1124 LINE",
"154 1231 LINE",
"299 1282 LINE",
"389 1282 LINE"
);
},
{
nodes = (
"438 1370 LINE SMOOTH",
"168 1370 OFFCURVE",
"-4 1198 OFFCURVE",
"-4 989 CURVE SMOOTH",
"-4 381 LINE SMOOTH",
"-4 172 OFFCURVE",
"168 0 OFFCURVE",
"438 0 CURVE SMOOTH",
"746 0 LINE SMOOTH",
"1016 0 OFFCURVE",
"1188 172 OFFCURVE",
"1188 381 CURVE SMOOTH",
"1188 989 LINE SMOOTH",
"1188 1198 OFFCURVE",
"1016 1370 OFFCURVE",
"746 1370 CURVE SMOOTH"
);
}
);
width = 1184;
}
);
unicode = 00BD;
},
{
glyphname = threequarters;
layers = (
{
layerId = "F859EBB1-02CE-49D6-A9DD-2E3CD13E297E";
paths = (
{
nodes = (
"682 1280 LINE",
"481 453 LINE",
"373 453 LINE",
"574 1280 LINE"
);
},
{
nodes = (
"389 741 LINE",
"283 741 LINE",
"283 1169 LINE",
"154 1124 LINE",
"154 1231 LINE",
"299 1282 LINE",
"389 1282 LINE"
);
},
{
nodes = (
"438 1370 LINE SMOOTH",
"168 1370 OFFCURVE",
"-4 1198 OFFCURVE",
"-4 989 CURVE SMOOTH",
"-4 381 LINE SMOOTH",
"-4 172 OFFCURVE",
"168 0 OFFCURVE",
"438 0 CURVE SMOOTH",
"746 0 LINE SMOOTH",
"1016 0 OFFCURVE",
"1188 172 OFFCURVE",
"1188 381 CURVE SMOOTH",
"1188 989 LINE SMOOTH",
"1188 1198 OFFCURVE",
"1016 1370 OFFCURVE",
"746 1370 CURVE SMOOTH"
);
},
{
nodes = (
"1006 834 LINE",
"995 872 LINE",
"926 883 LINE",
"819 883 LINE",
"750 872 LINE",
"737 834 LINE",
"629 844 LINE",
"647 911 LINE",
"711 975 LINE",
"813 989 LINE",
"932 989 LINE",
"1034 975 LINE",
"1098 911 LINE",
"1112 848 LINE",
"1112 829 LINE",
"1098 756 LINE",
"1073 731 LINE",
"1098 709 LINE",
"1112 629 LINE",
"1112 610 LINE",
"1098 526 LINE",
"1034 463 LINE",
"932 451 LINE",
"813 451 LINE",
"711 463 LINE",
"647 526 LINE",
"629 612 LINE",
"737 623 LINE",
"754 567 LINE",
"815 557 LINE",
"926 557 LINE",
"991 567 LINE",
"1006 621 LINE",
"995 676 LINE",
"928 684 LINE",
"795 684 LINE",
"795 772 LINE",
"926 772 LINE",
"991 782 LINE"
);
}
);
width = 1184;
}
);
unicode = 00BE;
},
{
glyphname = questiondown;
layers = (
{
layerId = "F859EBB1-02CE-49D6-A9DD-2E3CD13E297E";
paths = (
{
nodes = (
"615 1182 LINE",
"615 1284 LINE",
"721 1284 LINE",
"721 1182 LINE"
);
},
{
nodes = (
"746 0 LINE SMOOTH",
"1016 0 OFFCURVE",
"1188 172 OFFCURVE",
"1188 381 CURVE SMOOTH",
"1188 989 LINE SMOOTH",
"1188 1198 OFFCURVE",
"1016 1370 OFFCURVE",
"746 1370 CURVE SMOOTH",
"438 1370 LINE SMOOTH",
"168 1370 OFFCURVE",
"-4 1198 OFFCURVE",
"-4 989 CURVE SMOOTH",
"-4 381 LINE SMOOTH",
"-4 172 OFFCURVE",
"168 0 OFFCURVE",
"438 0 CURVE SMOOTH"
);
},
{
nodes = (
"669 875 LINE",
"466 875 LINE",
"455 797 LINE",
"455 641 LINE",
"466 574 LINE",
"542 563 LINE",
"818 574 LINE",
"822 597 OFFCURVE",
"825 629 OFFCURVE",
"829 650 CURVE",
"916 642 LINE",
"899 549 LINE",
"842 492 LINE",
"744 477 LINE",
"539 477 LINE",
"441 492 LINE",
"384 549 LINE",
"369 631 LINE",
"369 807 LINE",
"384 889 LINE",
"441 946 LINE",
"540 960 LINE",
"625 960 LINE",
"625 1125 LINE",
"711 1125 LINE",
"711 929 LINE"
);
}
);
width = 1184;
}
);
unicode = 00BF;
},
{
glyphname = AE;
layers = (
{
layerId = "F859EBB1-02CE-49D6-A9DD-2E3CD13E297E";
paths = (
{
nodes = (
"438 1370 LINE SMOOTH",
"168 1370 OFFCURVE",
"-4 1198 OFFCURVE",
"-4 989 CURVE SMOOTH",
"-4 381 LINE SMOOTH",
"-4 172 OFFCURVE",
"168 0 OFFCURVE",
"438 0 CURVE SMOOTH",
"746 0 LINE SMOOTH",
"1016 0 OFFCURVE",
"1188 172 OFFCURVE",
"1188 381 CURVE SMOOTH",
"1188 989 LINE SMOOTH",
"1188 1198 OFFCURVE",
"1016 1370 OFFCURVE",
"746 1370 CURVE SMOOTH"
);
},
{
nodes = (
"944 459 LINE",
"576 459 LINE",
"576 590 LINE",
"371 590 LINE",
"354 459 LINE",
"248 459 LINE",
"330 1200 LINE",
"391 1262 LINE",
"524 1282 LINE",
"944 1282 LINE",
"944 1176 LINE",
"682 1176 LINE",
"682 924 LINE",
"944 924 LINE",
"944 819 LINE",
"682 819 LINE",
"682 563 LINE",
"944 563 LINE"
);
},
{
nodes = (
"576 696 LINE",
"576 1176 LINE",
"528 1176 LINE",
"492 1171 OFFCURVE",
"469 1165 OFFCURVE",
"432 1161 CURVE",
"383 696 LINE"
);
}
);
width = 1184;
}
);
unicode = 00C6;
},
{
glyphname = Ccedilla;
layers = (
{
layerId = "F859EBB1-02CE-49D6-A9DD-2E3CD13E297E";
paths = (
{
nodes = (
"438 1370 LINE SMOOTH",
"168 1370 OFFCURVE",
"-4 1198 OFFCURVE",
"-4 989 CURVE SMOOTH",
"-4 381 LINE SMOOTH",
"-4 172 OFFCURVE",
"168 0 OFFCURVE",
"438 0 CURVE SMOOTH",
"746 0 LINE SMOOTH",
"1016 0 OFFCURVE",
"1188 172 OFFCURVE",
"1188 381 CURVE SMOOTH",
"1188 989 LINE SMOOTH",
"1188 1198 OFFCURVE",
"1016 1370 OFFCURVE",
"746 1370 CURVE SMOOTH"
);
},
{
nodes = (
"850 1266 LINE",
"830 1159 LINE",
"727 1176 LINE",
"498 1176 LINE",
"428 1165 LINE",
"418 1110 LINE",
"418 629 LINE",
"432 569 LINE",
"498 559 LINE",
"731 559 LINE",
"825 575 LINE",
"850 467 LINE",
"733 453 LINE",
"662 453 LINE",
"662 336 LINE",
"551 326 LINE",
"541 291 LINE",
"555 232 LINE",
"666 222 LINE",
"666 132 LINE",
"523 144 LINE",
"463 203 LINE",
"451 281 LINE",
"451 300 LINE",
"463 357 LINE",
"521 418 LINE",
"592 418 LINE",
"592 453 LINE",
"492 453 LINE",
"391 465 LINE",
"326 528 LINE",
"311 612 LINE",
"311 1120 LINE",
"326 1204 LINE",
"389 1268 LINE",
"492 1280 LINE",
"733 1280 LINE"
);
}
);
width = 1184;
}
);
unicode = 00C7;
},
{
glyphname = Eth;
layers = (
{
layerId = "F859EBB1-02CE-49D6-A9DD-2E3CD13E297E";
paths = (
{
nodes = (
"954 614 LINE",
"940 528 LINE",
"877 465 LINE",
"774 453 LINE",
"328 453 LINE",
"328 842 LINE",
"256 842 LINE",
"256 907 LINE",
"328 907 LINE",
"328 1280 LINE",
"774 1280 LINE",
"877 1266 LINE",
"940 1202 LINE",
"954 1118 LINE"
);
},
{
nodes = (
"848 625 LINE",
"848 1104 LINE",
"838 1163 LINE",
"768 1174 LINE",
"432 1174 LINE",
"432 907 LINE",
"516 907 LINE",
"516 842 LINE",
"432 842 LINE",
"432 559 LINE",
"768 559 LINE",
"834 569 LINE"
);
},
{
nodes = (
"438 1370 LINE SMOOTH",
"168 1370 OFFCURVE",
"-4 1198 OFFCURVE",
"-4 989 CURVE SMOOTH",
"-4 381 LINE SMOOTH",
"-4 172 OFFCURVE",
"168 0 OFFCURVE",
"438 0 CURVE SMOOTH",
"746 0 LINE SMOOTH",
"1016 0 OFFCURVE",
"1188 172 OFFCURVE",
"1188 381 CURVE SMOOTH",
"1188 989 LINE SMOOTH",
"1188 1198 OFFCURVE",
"1016 1370 OFFCURVE",
"746 1370 CURVE SMOOTH"
);
}
);
width = 1184;
}
);
unicode = 00D0;
},
{
glyphname = multiply;
layers = (
{
layerId = "F859EBB1-02CE-49D6-A9DD-2E3CD13E297E";
paths = (
{
nodes = (
"438 1370 LINE SMOOTH",
"168 1370 OFFCURVE",
"-4 1198 OFFCURVE",
"-4 989 CURVE SMOOTH",
"-4 381 LINE SMOOTH",
"-4 172 OFFCURVE",
"168 0 OFFCURVE",
"438 0 CURVE SMOOTH",
"746 0 LINE SMOOTH",
"1016 0 OFFCURVE",
"1188 172 OFFCURVE",
"1188 381 CURVE SMOOTH",
"1188 989 LINE SMOOTH",
"1188 1198 OFFCURVE",
"1016 1370 OFFCURVE",
"746 1370 CURVE SMOOTH"
);
},
{
nodes = (
"772 678 LINE",
"633 818 LINE",
"494 680 LINE",
"437 739 LINE",
"574 877 LINE",
"437 1014 LINE",
"496 1075 LINE",
"633 938 LINE",
"772 1077 LINE",
"831 1018 LINE",
"692 879 LINE",
"831 739 LINE"
);
}
);
width = 1184;
}
);
unicode = 00D7;
},
{
glyphname = Oslash;
layers = (
{
layerId = "F859EBB1-02CE-49D6-A9DD-2E3CD13E297E";
paths = (
{
nodes = (
"941 620 LINE",
"927 534 LINE",
"864 470 LINE",
"761 458 LINE",
"493 458 LINE",
"392 470 LINE",
"327 534 LINE",
"313 620 LINE",
"313 1120 LINE",
"327 1203 LINE",
"390 1267 LINE",
"493 1281 LINE",
"761 1281 LINE",
"864 1267 LINE",
"927 1203 LINE",
"941 1120 LINE"
);
},
{
nodes = (
"419 640 LINE",
"773 1173 LINE",
"769 1173 OFFCURVE",
"761 1175 OFFCURVE",
"757 1175 CURVE SMOOTH",
"499 1175 LINE",
"429 1165 LINE",
"419 1109 LINE"
);
},
{
nodes = (
"835 630 LINE",
"835 1109 LINE",
"485 567 LINE",
"488 567 OFFCURVE",
"491 565 OFFCURVE",
"495 565 CURVE SMOOTH",
"755 565 LINE",
"821 575 LINE"
);
},
{
nodes = (
"438 1370 LINE SMOOTH",
"168 1370 OFFCURVE",
"-4 1198 OFFCURVE",
"-4 989 CURVE SMOOTH",
"-4 381 LINE SMOOTH",
"-4 172 OFFCURVE",
"168 0 OFFCURVE",
"438 0 CURVE SMOOTH",
"746 0 LINE SMOOTH",
"1016 0 OFFCURVE",
"1188 172 OFFCURVE",
"1188 381 CURVE SMOOTH",
"1188 989 LINE SMOOTH",
"1188 1198 OFFCURVE",
"1016 1370 OFFCURVE",
"746 1370 CURVE SMOOTH"
);
}
);
width = 1184;
}
);
unicode = 00D8;
},
{
glyphname = germandbls;
layers = (
{
layerId = "F859EBB1-02CE-49D6-A9DD-2E3CD13E297E";
paths = (
{
nodes = (
"946 614 LINE",
"934 528 LINE",
"868 465 LINE",
"768 453 LINE",
"551 453 LINE",
"551 559 LINE",
"762 559 LINE",
"825 569 LINE",
"830 590 OFFCURVE",
"836 604 OFFCURVE",
"840 625 CURVE",
"840 772 LINE",
"825 827 LINE",
"760 842 LINE",
"676 842 LINE",
"676 948 LINE",
"713 948 LINE",
"778 961 LINE",
"782 977 OFFCURVE",
"790 997 OFFCURVE",
"793 1014 CURVE",
"793 1110 LINE",
"778 1163 LINE",
"717 1174 LINE",
"500 1174 LINE",
"440 1161 LINE",
"436 1145 OFFCURVE",
"429 1124 OFFCURVE",
"426 1108 CURVE",
"426 453 LINE",
"320 453 LINE",
"320 1118 LINE",
"334 1202 LINE",
"397 1266 LINE",
"498 1280 LINE",
"719 1280 LINE",
"819 1268 LINE",
"885 1204 LINE",
"899 1120 LINE",
"899 1022 LINE",
"852 934 LINE",
"823 905 LINE",
"839 900 OFFCURVE",
"898 869 OFFCURVE",
"911 866 CURVE",
"946 766 LINE"
);
},
{
nodes = (
"438 1370 LINE SMOOTH",
"168 1370 OFFCURVE",
"-4 1198 OFFCURVE",
"-4 989 CURVE SMOOTH",
"-4 381 LINE SMOOTH",
"-4 172 OFFCURVE",
"168 0 OFFCURVE",
"438 0 CURVE SMOOTH",
"746 0 LINE SMOOTH",
"1016 0 OFFCURVE",
"1188 172 OFFCURVE",
"1188 381 CURVE SMOOTH",
"1188 989 LINE SMOOTH",
"1188 1198 OFFCURVE",
"1016 1370 OFFCURVE",
"746 1370 CURVE SMOOTH"
);
}
);
width = 1184;
}
);
unicode = 00DF;
},
{
glyphname = ccedilla;
layers = (
{
layerId = "F859EBB1-02CE-49D6-A9DD-2E3CD13E297E";
paths = (
{
nodes = (
"438 1370 LINE SMOOTH",
"168 1370 OFFCURVE",
"-4 1198 OFFCURVE",
"-4 989 CURVE SMOOTH",
"-4 381 LINE SMOOTH",
"-4 172 OFFCURVE",
"168 0 OFFCURVE",
"438 0 CURVE SMOOTH",
"746 0 LINE SMOOTH",
"1016 0 OFFCURVE",
"1188 172 OFFCURVE",
"1188 381 CURVE SMOOTH",
"1188 989 LINE SMOOTH",
"1188 1198 OFFCURVE",
"1016 1370 OFFCURVE",
"746 1370 CURVE SMOOTH"
);
},
{
nodes = (
"850 1266 LINE",
"830 1159 LINE",
"727 1176 LINE",
"498 1176 LINE",
"428 1165 LINE",
"418 1110 LINE",
"418 629 LINE",
"432 569 LINE",
"498 559 LINE",
"731 559 LINE",
"825 575 LINE",
"850 467 LINE",
"733 453 LINE",
"656 453 LINE",
"656 336 LINE",
"545 326 LINE",
"535 291 LINE",
"549 232 LINE",
"660 222 LINE",
"660 132 LINE",
"517 144 LINE",
"457 203 LINE",
"445 281 LINE",
"445 300 LINE",
"457 357 LINE",
"515 418 LINE",
"586 418 LINE",
"586 453 LINE",
"492 453 LINE",
"391 465 LINE",
"326 528 LINE",
"311 612 LINE",
"311 1120 LINE",
"326 1204 LINE",
"389 1268 LINE",
"549 1280 LINE",
"733 1280 LINE"
);
}
);
width = 1184;
}
);
unicode = 00E7;
},
{
glyphname = divide;
layers = (
{
layerId = "F859EBB1-02CE-49D6-A9DD-2E3CD13E297E";
paths = (
{
nodes = (
"373 739 LINE",
"373 868 LINE",
"504 868 LINE",
"504 739 LINE"
);
},
{
nodes = (
"373 1069 LINE",
"373 1198 LINE",
"504 1198 LINE",
"504 1069 LINE"
);
},
{
nodes = (
"250 918 LINE",
"250 1026 LINE",
"627 1026 LINE",
"627 918 LINE"
);
},
{
nodes = (
"709 0 OFFCURVE",
"881 172 OFFCURVE",
"881 381 CURVE SMOOTH",
"881 989 LINE SMOOTH",
"881 1198 OFFCURVE",
"709 1370 OFFCURVE",
"438 1370 CURVE SMOOTH",
"168 1370 OFFCURVE",
"-4 1198 OFFCURVE",
"-4 989 CURVE SMOOTH",
"-4 381 LINE SMOOTH",
"-4 172 OFFCURVE",
"168 0 OFFCURVE",
"438 0 CURVE SMOOTH"
);
}
);
width = 877;
}
);
unicode = 00F7;
},
{
glyphname = thorn;
layers = (
{
layerId = "F859EBB1-02CE-49D6-A9DD-2E3CD13E297E";
paths = (
{
nodes = (
"930 846 LINE",
"916 760 LINE",
"852 696 LINE",
"750 684 LINE",
"481 684 LINE",
"481 453 LINE",
"377 453 LINE",
"377 1311 LINE",
"481 1311 LINE",
"481 1135 LINE",
"750 1135 LINE",
"852 1120 LINE",
"916 1057 LINE",
"930 973 LINE"
);
},
{
nodes = (
"823 856 LINE",
"823 958 LINE",
"813 1018 LINE",
"744 1028 LINE",
"481 1028 LINE",
"481 791 LINE",
"744 791 LINE",
"809 801 LINE"
);
},
{
nodes = (
"438 1370 LINE SMOOTH",
"168 1370 OFFCURVE",
"-4 1198 OFFCURVE",
"-4 989 CURVE SMOOTH",
"-4 381 LINE SMOOTH",
"-4 172 OFFCURVE",
"168 0 OFFCURVE",
"438 0 CURVE SMOOTH",
"746 0 LINE SMOOTH",
"1016 0 OFFCURVE",
"1188 172 OFFCURVE",
"1188 381 CURVE SMOOTH",
"1188 989 LINE SMOOTH",
"1188 1198 OFFCURVE",
"1016 1370 OFFCURVE",
"746 1370 CURVE SMOOTH"
);
}
);
width = 1184;
}
);
unicode = 00FE;
},
{
glyphname = Aogonek;
layers = (
{
layerId = "F859EBB1-02CE-49D6-A9DD-2E3CD13E297E";
paths = (
{
nodes = (
"674 1174 LINE",
"576 1174 LINE",
"539 1169 OFFCURVE",
"516 1163 OFFCURVE",
"479 1159 CURVE",
"449 854 LINE",
"801 854 LINE",
"790 961 OFFCURVE",
"777 1051 OFFCURVE",
"768 1159 CURVE"
);
},
{
nodes = (
"438 1370 LINE SMOOTH",
"168 1370 OFFCURVE",
"-4 1198 OFFCURVE",
"-4 989 CURVE SMOOTH",
"-4 381 LINE SMOOTH",
"-4 172 OFFCURVE",
"168 0 OFFCURVE",
"438 0 CURVE SMOOTH",
"746 0 LINE SMOOTH",
"1016 0 OFFCURVE",
"1188 172 OFFCURVE",
"1188 381 CURVE SMOOTH",
"1188 989 LINE SMOOTH",
"1188 1198 OFFCURVE",
"1016 1370 OFFCURVE",
"746 1370 CURVE SMOOTH"
);
},
{
nodes = (
"836 231 LINE",
"946 221 LINE",
"946 131 LINE",
"803 143 LINE",
"744 203 LINE",
"731 281 LINE",
"744 356 LINE",
"801 414 LINE",
"873 453 LINE",
"838 453 LINE",
"819 666 LINE",
"809 758 LINE",
"440 758 LINE",
"430 666 LINE",
"414 453 LINE",
"295 453 LINE",
"377 1198 LINE",
"438 1260 LINE",
"571 1280 LINE",
"678 1280 LINE",
"811 1260 LINE",
"873 1198 LINE",
"952 453 LINE",
"942 453 LINE",
"832 326 LINE",
"821 291 LINE"
);
}
);
width = 1184;
}
);
unicode = 0104;
},
{
glyphname = aogonek;
layers = (
{
layerId = "F859EBB1-02CE-49D6-A9DD-2E3CD13E297E";
paths = (
{
nodes = (
"438 1370 LINE SMOOTH",
"168 1370 OFFCURVE",
"-4 1198 OFFCURVE",
"-4 989 CURVE SMOOTH",
"-4 381 LINE SMOOTH",
"-4 172 OFFCURVE",
"168 0 OFFCURVE",
"438 0 CURVE SMOOTH",
"746 0 LINE SMOOTH",
"1016 0 OFFCURVE",
"1188 172 OFFCURVE",
"1188 381 CURVE SMOOTH",
"1188 989 LINE SMOOTH",
"1188 1198 OFFCURVE",
"1016 1370 OFFCURVE",
"746 1370 CURVE SMOOTH"
);
},
{
nodes = (
"772 623 LINE",
"772 774 LINE",
"696 782 LINE",
"479 782 LINE",
"410 772 LINE",
"402 715 LINE",
"402 629 LINE",
"416 569 LINE",
"479 559 LINE",
"694 559 LINE",
"771 569 LINE"
);
},
{
nodes = (
"692 453 LINE",
"701 453 LINE",
"590 326 LINE",
"580 291 LINE",
"594 232 LINE",
"705 222 LINE",
"705 131 LINE",
"562 144 LINE",
"502 203 LINE",
"490 281 LINE",
"502 357 LINE",
"560 414 LINE",
"631 453 LINE",
"473 453 LINE",
"373 465 LINE",
"309 528 LINE",
"295 612 LINE",
"295 729 LINE",
"309 811 LINE",
"373 874 LINE",
"473 889 LINE",
"701 889 LINE",
"772 877 LINE",
"772 1110 LINE",
"758 1163 LINE",
"698 1176 LINE",
"475 1176 LINE",
"381 1157 LINE",
"356 1266 LINE",
"473 1280 LINE",
"701 1280 LINE",
"801 1268 LINE",
"864 1204 LINE",
"879 1120 LINE",
"879 465 LINE"
);
}
);
width = 1184;
}
);
unicode = 0105;
},
{
glyphname = dcaron;
layers = (
{
layerId = "F859EBB1-02CE-49D6-A9DD-2E3CD13E297E";
paths = (
{
nodes = (
"438 1370 LINE SMOOTH",
"168 1370 OFFCURVE",
"-4 1198 OFFCURVE",
"-4 989 CURVE SMOOTH",
"-4 381 LINE SMOOTH",
"-4 172 OFFCURVE",
"168 0 OFFCURVE",
"438 0 CURVE SMOOTH",
"746 0 LINE SMOOTH",
"1016 0 OFFCURVE",
"1188 172 OFFCURVE",
"1188 381 CURVE SMOOTH",
"1188 989 LINE SMOOTH",
"1188 1198 OFFCURVE",
"1016 1370 OFFCURVE",
"746 1370 CURVE SMOOTH"
);
},
{
nodes = (
"827 614 LINE",
"813 528 LINE",
"750 465 LINE",
"647 453 LINE",
"246 453 LINE",
"246 1280 LINE",
"647 1280 LINE",
"750 1266 LINE",
"813 1202 LINE",
"827 1118 LINE"
);
},
{
nodes = (
"721 625 LINE",
"721 1104 LINE",
"711 1163 LINE",
"641 1174 LINE",
"350 1174 LINE",
"350 559 LINE",
"641 559 LINE",
"707 569 LINE"
);
},
{
nodes = (
"877 1051 LINE",
"916 1151 LINE",
"850 1151 LINE",
"850 1280 LINE",
"1002 1280 LINE",
"1002 1151 LINE",
"940 1022 LINE"
);
}
);
width = 1184;
}
);
unicode = 010F;
},
{
glyphname = Dcroat;
layers = (
{
layerId = "F859EBB1-02CE-49D6-A9DD-2E3CD13E297E";
paths = (
{
nodes = (
"954 614 LINE",
"940 528 LINE",
"877 465 LINE",
"774 453 LINE",
"328 453 LINE",
"328 846 LINE",
"203 846 LINE",
"203 954 LINE",
"328 954 LINE",
"328 1280 LINE",
"774 1280 LINE",
"877 1266 LINE",
"940 1202 LINE",
"954 1118 LINE"
);
},
{
nodes = (
"848 625 LINE",
"848 1104 LINE",
"838 1163 LINE",
"768 1174 LINE",
"432 1174 LINE",
"432 954 LINE",
"580 954 LINE",
"580 846 LINE",
"432 846 LINE",
"432 559 LINE",
"768 559 LINE",
"834 569 LINE"
);
},
{
nodes = (
"438 1370 LINE SMOOTH",
"168 1370 OFFCURVE",
"-4 1198 OFFCURVE",
"-4 989 CURVE SMOOTH",
"-4 381 LINE SMOOTH",
"-4 172 OFFCURVE",
"168 0 OFFCURVE",
"438 0 CURVE SMOOTH",
"746 0 LINE SMOOTH",
"1016 0 OFFCURVE",
"1188 172 OFFCURVE",
"1188 381 CURVE SMOOTH",
"1188 989 LINE SMOOTH",
"1188 1198 OFFCURVE",
"1016 1370 OFFCURVE",
"746 1370 CURVE SMOOTH"
);
}
);
width = 1184;
}
);
unicode = 0110;
},
{
glyphname = Eogonek;
layers = (
{
layerId = "F859EBB1-02CE-49D6-A9DD-2E3CD13E297E";
paths = (
{
nodes = (
"438 1370 LINE SMOOTH",
"168 1370 OFFCURVE",
"-4 1198 OFFCURVE",
"-4 989 CURVE SMOOTH",
"-4 381 LINE SMOOTH",
"-4 172 OFFCURVE",
"168 0 OFFCURVE",
"438 0 CURVE SMOOTH",
"746 0 LINE SMOOTH",
"1016 0 OFFCURVE",
"1188 172 OFFCURVE",
"1188 381 CURVE SMOOTH",
"1188 989 LINE SMOOTH",
"1188 1198 OFFCURVE",
"1016 1370 OFFCURVE",
"746 1370 CURVE SMOOTH"
);
},
{
nodes = (
"905 453 LINE",
"897 453 LINE",
"787 326 LINE",
"776 291 LINE",
"791 231 LINE",
"901 221 LINE",
"901 131 LINE",
"758 143 LINE",
"698 203 LINE",
"686 281 LINE",
"698 356 LINE",
"756 414 LINE",
"827 453 LINE",
"402 453 LINE",
"402 1280 LINE",
"891 1280 LINE",
"891 1174 LINE",
"506 1174 LINE",
"506 918 LINE",
"840 918 LINE",
"840 813 LINE",
"506 813 LINE",
"506 559 LINE",
"905 559 LINE"
);
}
);
width = 1184;
}
);
unicode = 0118;
},
{
glyphname = eogonek;
layers = (
{
layerId = "F859EBB1-02CE-49D6-A9DD-2E3CD13E297E";
paths = (
{
nodes = (
"770 973 LINE",
"770 1106 LINE",
"760 1165 LINE",
"692 1176 LINE",
"488 1176 LINE",
"418 1165 LINE",
"410 1108 LINE",
"410 973 LINE"
);
},
{
nodes = (
"877 868 LINE",
"410 868 LINE",
"410 662 LINE",
"424 602 LINE",
"488 592 LINE",
"731 592 LINE",
"825 608 LINE",
"850 500 LINE",
"733 485 LINE",
"741 485 LINE",
"631 358 LINE",
"621 324 LINE",
"635 264 LINE",
"746 254 LINE",
"746 164 LINE",
"602 176 LINE",
"543 236 LINE",
"531 313 LINE",
"543 389 LINE",
"600 446 LINE",
"672 485 LINE",
"481 485 LINE",
"381 498 LINE",
"318 561 LINE",
"303 645 LINE",
"303 1120 LINE",
"318 1204 LINE",
"381 1268 LINE",
"481 1280 LINE",
"698 1280 LINE",
"799 1268 LINE",
"862 1204 LINE",
"877 1120 LINE"
);
},
{
nodes = (
"438 1370 LINE SMOOTH",
"168 1370 OFFCURVE",
"-4 1198 OFFCURVE",
"-4 989 CURVE SMOOTH",
"-4 381 LINE SMOOTH",
"-4 172 OFFCURVE",
"168 0 OFFCURVE",
"438 0 CURVE SMOOTH",
"746 0 LINE SMOOTH",
"1016 0 OFFCURVE",
"1188 172 OFFCURVE",
"1188 381 CURVE SMOOTH",
"1188 989 LINE SMOOTH",
"1188 1198 OFFCURVE",
"1016 1370 OFFCURVE",
"746 1370 CURVE SMOOTH"
);
}
);
width = 1184;
}
);
unicode = 0119;
},
{
glyphname = Gcommaaccent;
layers = (
{
layerId = "F859EBB1-02CE-49D6-A9DD-2E3CD13E297E";
paths = (
{
nodes = (
"602 147 LINE",
"641 248 LINE",
"576 248 LINE",
"576 377 LINE",
"727 377 LINE",
"727 248 LINE",
"666 119 LINE"
);
},
{
nodes = (
"459 1161 LINE",
"449 1106 LINE",
"449 633 LINE",
"463 569 LINE",
"524 559 LINE",
"766 559 LINE",
"832 569 LINE",
"839 590 OFFCURVE",
"839 608 OFFCURVE",
"846 629 CURVE",
"846 770 LINE",
"662 770 LINE",
"662 877 LINE",
"952 877 LINE",
"952 614 LINE",
"938 528 LINE",
"873 465 LINE",
"772 453 LINE",
"522 453 LINE",
"422 465 LINE",
"356 528 LINE",
"342 614 LINE",
"342 1116 LINE",
"356 1200 LINE",
"420 1264 LINE",
"522 1280 LINE",
"791 1280 LINE",
"907 1266 LINE",
"887 1159 LINE",
"784 1176 LINE",
"524 1176 LINE"
);
},
{
nodes = (
"438 1370 LINE SMOOTH",
"168 1370 OFFCURVE",
"-4 1198 OFFCURVE",
"-4 989 CURVE SMOOTH",
"-4 381 LINE SMOOTH",
"-4 172 OFFCURVE",
"168 0 OFFCURVE",
"438 0 CURVE SMOOTH",
"746 0 LINE SMOOTH",
"1016 0 OFFCURVE",
"1188 172 OFFCURVE",
"1188 381 CURVE SMOOTH",
"1188 989 LINE SMOOTH",
"1188 1198 OFFCURVE",
"1016 1370 OFFCURVE",
"746 1370 CURVE SMOOTH"
);
}
);
width = 1184;
}
);
unicode = 0122;
},
{
glyphname = gcommaaccent;
layers = (
{
layerId = "F859EBB1-02CE-49D6-A9DD-2E3CD13E297E";
paths = (
{
nodes = (
"602 147 LINE",
"641 248 LINE",
"576 248 LINE",
"576 377 LINE",
"727 377 LINE",
"727 248 LINE",
"666 119 LINE"
);
},
{
nodes = (
"459 1161 LINE",
"449 1106 LINE",
"449 633 LINE",
"463 569 LINE",
"524 559 LINE",
"766 559 LINE",
"832 569 LINE",
"839 590 OFFCURVE",
"839 608 OFFCURVE",
"846 629 CURVE",
"846 770 LINE",
"662 770 LINE",
"662 877 LINE",
"952 877 LINE",
"952 614 LINE",
"938 528 LINE",
"873 465 LINE",
"772 453 LINE",
"522 453 LINE",
"422 465 LINE",
"356 528 LINE",
"342 614 LINE",
"342 1116 LINE",
"356 1200 LINE",
"420 1264 LINE",
"522 1280 LINE",
"791 1280 LINE",
"907 1266 LINE",
"887 1159 LINE",
"784 1176 LINE",
"524 1176 LINE"
);
},
{
nodes = (
"438 1370 LINE SMOOTH",
"168 1370 OFFCURVE",
"-4 1198 OFFCURVE",
"-4 989 CURVE SMOOTH",
"-4 381 LINE SMOOTH",
"-4 172 OFFCURVE",
"168 0 OFFCURVE",
"438 0 CURVE SMOOTH",
"746 0 LINE SMOOTH",
"1016 0 OFFCURVE",
"1188 172 OFFCURVE",
"1188 381 CURVE SMOOTH",
"1188 989 LINE SMOOTH",
"1188 1198 OFFCURVE",
"1016 1370 OFFCURVE",
"746 1370 CURVE SMOOTH"
);
}
);
width = 1184;
}
);
unicode = 0123;
},
{
glyphname = hbar;
layers = (
{
layerId = "F859EBB1-02CE-49D6-A9DD-2E3CD13E297E";
paths = (
{
nodes = (
"954 453 LINE",
"850 453 LINE",
"850 825 LINE",
"434 825 LINE",
"434 453 LINE",
"328 453 LINE",
"328 1054 LINE",
"284 1054 LINE",
"284 1146 LINE",
"328 1146 LINE",
"328 1280 LINE",
"434 1280 LINE",
"434 1146 LINE",
"850 1146 LINE",
"850 1280 LINE",
"954 1280 LINE",
"954 1146 LINE",
"1006 1146 LINE",
"1006 1054 LINE",
"954 1054 LINE"
);
},
{
nodes = (
"850 930 LINE",
"850 1054 LINE",
"434 1054 LINE",
"434 930 LINE"
);
},
{
nodes = (
"438 1370 LINE SMOOTH",
"168 1370 OFFCURVE",
"-4 1198 OFFCURVE",
"-4 989 CURVE SMOOTH",
"-4 381 LINE SMOOTH",
"-4 172 OFFCURVE",
"168 0 OFFCURVE",
"438 0 CURVE SMOOTH",
"746 0 LINE SMOOTH",
"1016 0 OFFCURVE",
"1188 172 OFFCURVE",
"1188 381 CURVE SMOOTH",
"1188 989 LINE SMOOTH",
"1188 1198 OFFCURVE",
"1016 1370 OFFCURVE",
"746 1370 CURVE SMOOTH"
);
}
);
width = 1184;
}
);
unicode = 0127;
},
{
glyphname = Iogonek;
layers = (
{
layerId = "F859EBB1-02CE-49D6-A9DD-2E3CD13E297E";
paths = (
{
nodes = (
"438 1370 LINE SMOOTH",
"168 1370 OFFCURVE",
"-4 1198 OFFCURVE",
"-4 989 CURVE SMOOTH",
"-4 381 LINE SMOOTH",
"-4 172 OFFCURVE",
"168 0 OFFCURVE",
"438 0 CURVE SMOOTH",
"746 0 LINE SMOOTH",
"1016 0 OFFCURVE",
"1188 172 OFFCURVE",
"1188 381 CURVE SMOOTH",
"1188 989 LINE SMOOTH",
"1188 1198 OFFCURVE",
"1016 1370 OFFCURVE",
"746 1370 CURVE SMOOTH"
);
},
{
nodes = (
"594 559 LINE",
"594 1174 LINE",
"358 1174 LINE",
"358 1280 LINE",
"936 1280 LINE",
"936 1174 LINE",
"701 1174 LINE",
"701 559 LINE",
"936 559 LINE",
"936 453 LINE",
"932 453 LINE",
"821 326 LINE",
"811 291 LINE",
"825 231 LINE",
"936 221 LINE",
"936 131 LINE",
"793 143 LINE",
"733 203 LINE",
"721 281 LINE",
"733 356 LINE",
"791 414 LINE",
"862 453 LINE",
"358 453 LINE",
"358 559 LINE"
);
}
);
width = 1184;
}
);
unicode = 012E;
},
{
glyphname = iogonek;
layers = (
{
layerId = "F859EBB1-02CE-49D6-A9DD-2E3CD13E297E";
paths = (
{
nodes = (
"438 1370 LINE SMOOTH",
"168 1370 OFFCURVE",
"-4 1198 OFFCURVE",
"-4 989 CURVE SMOOTH",
"-4 381 LINE SMOOTH",
"-4 172 OFFCURVE",
"168 0 OFFCURVE",
"438 0 CURVE SMOOTH",
"746 0 LINE SMOOTH",
"1016 0 OFFCURVE",
"1188 172 OFFCURVE",
"1188 381 CURVE SMOOTH",
"1188 989 LINE SMOOTH",
"1188 1198 OFFCURVE",
"1016 1370 OFFCURVE",
"746 1370 CURVE SMOOTH"
);
},
{
nodes = (
"594 559 LINE",
"594 1174 LINE",
"358 1174 LINE",
"358 1280 LINE",
"936 1280 LINE",
"936 1174 LINE",
"701 1174 LINE",
"701 559 LINE",
"936 559 LINE",
"936 453 LINE",
"934 453 LINE",
"823 326 LINE",
"813 291 LINE",
"827 231 LINE",
"938 221 LINE",
"938 131 LINE",
"795 143 LINE",
"735 203 LINE",
"723 281 LINE",
"735 356 LINE",
"793 414 LINE",
"864 453 LINE",
"358 453 LINE",
"358 559 LINE"
);
}
);
width = 1184;
}
);
unicode = 012F;
},
{
glyphname = dotlessi;
layers = (
{
layerId = "F859EBB1-02CE-49D6-A9DD-2E3CD13E297E";
paths = (
{
nodes = (
"594 559 LINE",
"594 1174 LINE",
"358 1174 LINE",
"358 1280 LINE",
"936 1280 LINE",
"936 1174 LINE",
"701 1174 LINE",
"701 559 LINE",
"936 559 LINE",
"936 453 LINE",
"358 453 LINE",
"358 559 LINE"
);
},
{
nodes = (
"438 1370 LINE SMOOTH",
"168 1370 OFFCURVE",
"-4 1198 OFFCURVE",
"-4 989 CURVE SMOOTH",
"-4 381 LINE SMOOTH",
"-4 172 OFFCURVE",
"168 0 OFFCURVE",
"438 0 CURVE SMOOTH",
"746 0 LINE SMOOTH",
"1016 0 OFFCURVE",
"1188 172 OFFCURVE",
"1188 381 CURVE SMOOTH",
"1188 989 LINE SMOOTH",
"1188 1198 OFFCURVE",
"1016 1370 OFFCURVE",
"746 1370 CURVE SMOOTH"
);
}
);
width = 1184;
}
);
unicode = 0131;
},
{
glyphname = IJ;
layers = (
{
layerId = "F859EBB1-02CE-49D6-A9DD-2E3CD13E297E";
paths = (
{
nodes = (
"334 559 LINE",
"334 1174 LINE",
"180 1174 LINE",
"180 1280 LINE",
"594 1280 LINE",
"594 1174 LINE",
"440 1174 LINE",
"440 559 LINE",
"594 559 LINE",
"594 453 LINE",
"180 453 LINE",
"180 559 LINE"
);
},
{
nodes = (
"438 1370 LINE SMOOTH",
"168 1370 OFFCURVE",
"-4 1198 OFFCURVE",
"-4 989 CURVE SMOOTH",
"-4 381 LINE SMOOTH",
"-4 172 OFFCURVE",
"168 0 OFFCURVE",
"438 0 CURVE SMOOTH",
"746 0 LINE SMOOTH",
"1016 0 OFFCURVE",
"1188 172 OFFCURVE",
"1188 381 CURVE SMOOTH",
"1188 989 LINE SMOOTH",
"1188 1198 OFFCURVE",
"1016 1370 OFFCURVE",
"746 1370 CURVE SMOOTH"
);
},
{
nodes = (
"991 1280 LINE",
"991 528 LINE",
"914 467 LINE",
"813 453 LINE",
"658 453 LINE",
"658 559 LINE",
"807 559 LINE",
"873 571 LINE",
"887 631 LINE",
"887 1280 LINE"
);
}
);
width = 1184;
}
);
unicode = 0132;
},
{
glyphname = ij;
layers = (
{
layerId = "F859EBB1-02CE-49D6-A9DD-2E3CD13E297E";
paths = (
{
nodes = (
"334 559 LINE",
"334 1174 LINE",
"180 1174 LINE",
"180 1280 LINE",
"594 1280 LINE",
"594 1174 LINE",
"440 1174 LINE",
"440 559 LINE",
"594 559 LINE",
"594 453 LINE",
"180 453 LINE",
"180 559 LINE"
);
},
{
nodes = (
"438 1370 LINE SMOOTH",
"168 1370 OFFCURVE",
"-4 1198 OFFCURVE",
"-4 989 CURVE SMOOTH",
"-4 381 LINE SMOOTH",
"-4 172 OFFCURVE",
"168 0 OFFCURVE",
"438 0 CURVE SMOOTH",
"746 0 LINE SMOOTH",
"1016 0 OFFCURVE",
"1188 172 OFFCURVE",
"1188 381 CURVE SMOOTH",
"1188 989 LINE SMOOTH",
"1188 1198 OFFCURVE",
"1016 1370 OFFCURVE",
"746 1370 CURVE SMOOTH"
);
},
{
nodes = (
"991 1280 LINE",
"991 528 LINE",
"914 467 LINE",
"813 453 LINE",
"658 453 LINE",
"658 559 LINE",
"807 559 LINE",
"873 571 LINE",
"887 631 LINE",
"887 1280 LINE"
);
}
);
width = 1184;
}
);
unicode = 0133;
},
{
glyphname = Kcommaaccent;
layers = (
{
layerId = "F859EBB1-02CE-49D6-A9DD-2E3CD13E297E";
paths = (
{
nodes = (
"602 147 LINE",
"641 248 LINE",
"576 248 LINE",
"576 377 LINE",
"727 377 LINE",
"727 248 LINE",
"666 119 LINE"
);
},
{
nodes = (
"985 508 LINE",
"899 434 LINE",
"572 817 LINE",
"551 798 OFFCURVE",
"537 785 OFFCURVE",
"514 766 CURVE",
"514 453 LINE",
"408 453 LINE",
"408 1280 LINE",
"514 1280 LINE",
"514 901 LINE",
"926 1309 LINE",
"998 1225 LINE",
"654 885 LINE"
);
},
{
nodes = (
"438 1370 LINE SMOOTH",
"168 1370 OFFCURVE",
"-4 1198 OFFCURVE",
"-4 989 CURVE SMOOTH",
"-4 381 LINE SMOOTH",
"-4 172 OFFCURVE",
"168 0 OFFCURVE",
"438 0 CURVE SMOOTH",
"746 0 LINE SMOOTH",
"1016 0 OFFCURVE",
"1188 172 OFFCURVE",
"1188 381 CURVE SMOOTH",
"1188 989 LINE SMOOTH",
"1188 1198 OFFCURVE",
"1016 1370 OFFCURVE",
"746 1370 CURVE SMOOTH"
);
}
);
width = 1184;
}
);
unicode = 0136;
},
{
glyphname = kcommaaccent;
layers = (
{
layerId = "F859EBB1-02CE-49D6-A9DD-2E3CD13E297E";
paths = (
{
nodes = (
"602 147 LINE",
"641 248 LINE",
"576 248 LINE",
"576 377 LINE",
"727 377 LINE",
"727 248 LINE",
"666 119 LINE"
);
},
{
nodes = (
"985 508 LINE",
"899 434 LINE",
"572 817 LINE",
"551 798 OFFCURVE",
"537 785 OFFCURVE",
"514 766 CURVE",
"514 453 LINE",
"408 453 LINE",
"408 1280 LINE",
"514 1280 LINE",
"514 901 LINE",
"926 1309 LINE",
"998 1225 LINE",
"654 885 LINE"
);
},
{
nodes = (
"438 1370 LINE SMOOTH",
"168 1370 OFFCURVE",
"-4 1198 OFFCURVE",
"-4 989 CURVE SMOOTH",
"-4 381 LINE SMOOTH",
"-4 172 OFFCURVE",
"168 0 OFFCURVE",
"438 0 CURVE SMOOTH",
"746 0 LINE SMOOTH",
"1016 0 OFFCURVE",
"1188 172 OFFCURVE",
"1188 381 CURVE SMOOTH",
"1188 989 LINE SMOOTH",
"1188 1198 OFFCURVE",
"1016 1370 OFFCURVE",
"746 1370 CURVE SMOOTH"
);
}
);
width = 1184;
}
);
unicode = 0137;
},
{
glyphname = Lcommaaccent;
layers = (
{
layerId = "F859EBB1-02CE-49D6-A9DD-2E3CD13E297E";
paths = (
{
nodes = (
"602 147 LINE",
"641 248 LINE",
"576 248 LINE",
"576 377 LINE",
"727 377 LINE",
"727 248 LINE",
"666 119 LINE"
);
},
{
nodes = (
"862 453 LINE",
"449 453 LINE",
"449 1280 LINE",
"555 1280 LINE",
"555 559 LINE",
"862 559 LINE"
);
},
{
nodes = (
"438 1370 LINE SMOOTH",
"168 1370 OFFCURVE",
"-4 1198 OFFCURVE",
"-4 989 CURVE SMOOTH",
"-4 381 LINE SMOOTH",
"-4 172 OFFCURVE",
"168 0 OFFCURVE",
"438 0 CURVE SMOOTH",
"746 0 LINE SMOOTH",
"1016 0 OFFCURVE",
"1188 172 OFFCURVE",
"1188 381 CURVE SMOOTH",
"1188 989 LINE SMOOTH",
"1188 1198 OFFCURVE",
"1016 1370 OFFCURVE",
"746 1370 CURVE SMOOTH"
);
}
);
width = 1184;
}
);
unicode = 013B;
},
{
glyphname = lcommaaccent;
layers = (
{
layerId = "F859EBB1-02CE-49D6-A9DD-2E3CD13E297E";
paths = (
{
nodes = (
"602 147 LINE",
"641 248 LINE",
"576 248 LINE",
"576 377 LINE",
"727 377 LINE",
"727 248 LINE",
"666 119 LINE"
);
},
{
nodes = (
"862 453 LINE",
"449 453 LINE",
"449 1280 LINE",
"555 1280 LINE",
"555 559 LINE",
"862 559 LINE"
);
},
{
nodes = (
"438 1370 LINE SMOOTH",
"168 1370 OFFCURVE",
"-4 1198 OFFCURVE",
"-4 989 CURVE SMOOTH",
"-4 381 LINE SMOOTH",
"-4 172 OFFCURVE",
"168 0 OFFCURVE",
"438 0 CURVE SMOOTH",
"746 0 LINE SMOOTH",
"1016 0 OFFCURVE",
"1188 172 OFFCURVE",
"1188 381 CURVE SMOOTH",
"1188 989 LINE SMOOTH",
"1188 1198 OFFCURVE",
"1016 1370 OFFCURVE",
"746 1370 CURVE SMOOTH"
);
}
);
width = 1184;
}
);
unicode = 013C;
},
{
glyphname = Lcaron;
layers = (
{
layerId = "F859EBB1-02CE-49D6-A9DD-2E3CD13E297E";
paths = (
{
nodes = (
"717 1051 LINE",
"756 1151 LINE",
"690 1151 LINE",
"690 1280 LINE",
"842 1280 LINE",
"842 1151 LINE",
"780 1022 LINE"
);
},
{
nodes = (
"862 453 LINE",
"449 453 LINE",
"449 1280 LINE",
"555 1280 LINE",
"555 559 LINE",
"862 559 LINE"
);
},
{
nodes = (
"438 1370 LINE SMOOTH",
"168 1370 OFFCURVE",
"-4 1198 OFFCURVE",
"-4 989 CURVE SMOOTH",
"-4 381 LINE SMOOTH",
"-4 172 OFFCURVE",
"168 0 OFFCURVE",
"438 0 CURVE SMOOTH",
"746 0 LINE SMOOTH",
"1016 0 OFFCURVE",
"1188 172 OFFCURVE",
"1188 381 CURVE SMOOTH",
"1188 989 LINE SMOOTH",
"1188 1198 OFFCURVE",
"1016 1370 OFFCURVE",
"746 1370 CURVE SMOOTH"
);
}
);
width = 1184;
}
);
unicode = 013D;
},
{
glyphname = lcaron;
layers = (
{
layerId = "F859EBB1-02CE-49D6-A9DD-2E3CD13E297E";
paths = (
{
nodes = (
"717 1051 LINE",
"756 1151 LINE",
"690 1151 LINE",
"690 1280 LINE",
"842 1280 LINE",
"842 1151 LINE",
"780 1022 LINE"
);
},
{
nodes = (
"862 453 LINE",
"449 453 LINE",
"449 1280 LINE",
"555 1280 LINE",
"555 559 LINE",
"862 559 LINE"
);
},
{
nodes = (
"438 1370 LINE SMOOTH",
"168 1370 OFFCURVE",
"-4 1198 OFFCURVE",
"-4 989 CURVE SMOOTH",
"-4 381 LINE SMOOTH",
"-4 172 OFFCURVE",
"168 0 OFFCURVE",
"438 0 CURVE SMOOTH",
"746 0 LINE SMOOTH",
"1016 0 OFFCURVE",
"1188 172 OFFCURVE",
"1188 381 CURVE SMOOTH",
"1188 989 LINE SMOOTH",
"1188 1198 OFFCURVE",
"1016 1370 OFFCURVE",
"746 1370 CURVE SMOOTH"
);
}
);
width = 1184;
}
);
unicode = 013E;
},
{
glyphname = Ldot;
layers = (
{
layerId = "F859EBB1-02CE-49D6-A9DD-2E3CD13E297E";
paths = (
{
nodes = (
"647 897 LINE",
"647 1026 LINE",
"778 1026 LINE",
"778 897 LINE"
);
},
{
nodes = (
"862 453 LINE",
"449 453 LINE",
"449 1280 LINE",
"555 1280 LINE",
"555 559 LINE",
"862 559 LINE"
);
},
{
nodes = (
"438 1370 LINE SMOOTH",
"168 1370 OFFCURVE",
"-4 1198 OFFCURVE",
"-4 989 CURVE SMOOTH",
"-4 381 LINE SMOOTH",
"-4 172 OFFCURVE",
"168 0 OFFCURVE",
"438 0 CURVE SMOOTH",
"746 0 LINE SMOOTH",
"1016 0 OFFCURVE",
"1188 172 OFFCURVE",
"1188 381 CURVE SMOOTH",
"1188 989 LINE SMOOTH",
"1188 1198 OFFCURVE",
"1016 1370 OFFCURVE",
"746 1370 CURVE SMOOTH"
);
}
);
width = 1184;
}
);
unicode = 013F;
},
{
glyphname = ldot;
layers = (
{
layerId = "F859EBB1-02CE-49D6-A9DD-2E3CD13E297E";
paths = (
{
nodes = (
"647 897 LINE",
"647 1026 LINE",
"778 1026 LINE",
"778 897 LINE"
);
},
{
nodes = (
"862 453 LINE",
"449 453 LINE",
"449 1280 LINE",
"555 1280 LINE",
"555 559 LINE",
"862 559 LINE"
);
},
{
nodes = (
"438 1370 LINE SMOOTH",
"168 1370 OFFCURVE",
"-4 1198 OFFCURVE",
"-4 989 CURVE SMOOTH",
"-4 381 LINE SMOOTH",
"-4 172 OFFCURVE",
"168 0 OFFCURVE",
"438 0 CURVE SMOOTH",
"746 0 LINE SMOOTH",
"1016 0 OFFCURVE",
"1188 172 OFFCURVE",
"1188 381 CURVE SMOOTH",
"1188 989 LINE SMOOTH",
"1188 1198 OFFCURVE",
"1016 1370 OFFCURVE",
"746 1370 CURVE SMOOTH"
);
}
);
width = 1184;
}
);
unicode = 0140;
},
{
glyphname = Lslash;
layers = (
{
layerId = "F859EBB1-02CE-49D6-A9DD-2E3CD13E297E";
paths = (
{
nodes = (
"862 453 LINE",
"449 453 LINE",
"449 834 LINE",
"356 782 LINE",
"324 840 LINE",
"449 909 LINE",
"449 1280 LINE",
"555 1280 LINE",
"555 971 LINE",
"647 1024 LINE",
"680 967 LINE",
"555 895 LINE",
"555 559 LINE",
"862 559 LINE"
);
},
{
nodes = (
"438 1370 LINE SMOOTH",
"168 1370 OFFCURVE",
"-4 1198 OFFCURVE",
"-4 989 CURVE SMOOTH",
"-4 381 LINE SMOOTH",
"-4 172 OFFCURVE",
"168 0 OFFCURVE",
"438 0 CURVE SMOOTH",
"746 0 LINE SMOOTH",
"1016 0 OFFCURVE",
"1188 172 OFFCURVE",
"1188 381 CURVE SMOOTH",
"1188 989 LINE SMOOTH",
"1188 1198 OFFCURVE",
"1016 1370 OFFCURVE",
"746 1370 CURVE SMOOTH"
);
}
);
width = 1184;
}
);
unicode = 0141;
},
{
glyphname = Ncommaaccent;
layers = (
{
layerId = "F859EBB1-02CE-49D6-A9DD-2E3CD13E297E";
paths = (
{
nodes = (
"602 147 LINE",
"641 248 LINE",
"576 248 LINE",
"576 377 LINE",
"727 377 LINE",
"727 248 LINE",
"666 119 LINE"
);
},
{
nodes = (
"932 453 LINE",
"825 453 LINE",
"825 1106 LINE",
"815 1165 LINE",
"746 1176 LINE",
"506 1176 LINE",
"428 1163 LINE",
"428 453 LINE",
"322 453 LINE",
"322 1255 LINE",
"502 1280 LINE",
"752 1280 LINE",
"854 1268 LINE",
"918 1204 LINE",
"932 1120 LINE"
);
},
{
nodes = (
"438 1370 LINE SMOOTH",
"168 1370 OFFCURVE",
"-4 1198 OFFCURVE",
"-4 989 CURVE SMOOTH",
"-4 381 LINE SMOOTH",
"-4 172 OFFCURVE",
"168 0 OFFCURVE",
"438 0 CURVE SMOOTH",
"746 0 LINE SMOOTH",
"1016 0 OFFCURVE",
"1188 172 OFFCURVE",
"1188 381 CURVE SMOOTH",
"1188 989 LINE SMOOTH",
"1188 1198 OFFCURVE",
"1016 1370 OFFCURVE",
"746 1370 CURVE SMOOTH"
);
}
);
width = 1184;
}
);
unicode = 0145;
},
{
glyphname = ncommaaccent;
layers = (
{
layerId = "F859EBB1-02CE-49D6-A9DD-2E3CD13E297E";
paths = (
{
nodes = (
"602 147 LINE",
"641 248 LINE",
"576 248 LINE",
"576 377 LINE",
"727 377 LINE",
"727 248 LINE",
"666 119 LINE"
);
},
{
nodes = (
"932 453 LINE",
"825 453 LINE",
"825 1106 LINE",
"815 1165 LINE",
"746 1176 LINE",
"506 1176 LINE",
"428 1163 LINE",
"428 453 LINE",
"322 453 LINE",
"322 1255 LINE",
"502 1280 LINE",
"752 1280 LINE",
"854 1268 LINE",
"918 1204 LINE",
"932 1120 LINE"
);
},
{
nodes = (
"438 1370 LINE SMOOTH",
"168 1370 OFFCURVE",
"-4 1198 OFFCURVE",
"-4 989 CURVE SMOOTH",
"-4 381 LINE SMOOTH",
"-4 172 OFFCURVE",
"168 0 OFFCURVE",
"438 0 CURVE SMOOTH",
"746 0 LINE SMOOTH",
"1016 0 OFFCURVE",
"1188 172 OFFCURVE",
"1188 381 CURVE SMOOTH",
"1188 989 LINE SMOOTH",
"1188 1198 OFFCURVE",
"1016 1370 OFFCURVE",
"746 1370 CURVE SMOOTH"
);
}
);
width = 1184;
}
);
unicode = 0146;
},
{
glyphname = napostrophe;
layers = (
{
layerId = "F859EBB1-02CE-49D6-A9DD-2E3CD13E297E";
paths = (
{
nodes = (
"131 957 LINE",
"170 1058 LINE",
"105 1058 LINE",
"105 1187 LINE",
"256 1187 LINE",
"256 1058 LINE",
"195 929 LINE"
);
},
{
nodes = (
"932 453 LINE",
"825 453 LINE",
"825 1106 LINE",
"815 1165 LINE",
"746 1176 LINE",
"506 1176 LINE",
"428 1163 LINE",
"428 453 LINE",
"322 453 LINE",
"322 1255 LINE",
"502 1280 LINE",
"752 1280 LINE",
"854 1268 LINE",
"918 1204 LINE",
"932 1120 LINE"
);
},
{
nodes = (
"438 1370 LINE SMOOTH",
"168 1370 OFFCURVE",
"-4 1198 OFFCURVE",
"-4 989 CURVE SMOOTH",
"-4 381 LINE SMOOTH",
"-4 172 OFFCURVE",
"168 0 OFFCURVE",
"438 0 CURVE SMOOTH",
"746 0 LINE SMOOTH",
"1016 0 OFFCURVE",
"1188 172 OFFCURVE",
"1188 381 CURVE SMOOTH",
"1188 989 LINE SMOOTH",
"1188 1198 OFFCURVE",
"1016 1370 OFFCURVE",
"746 1370 CURVE SMOOTH"
);
}
);
width = 1184;
}
);
unicode = 0149;
},
{
glyphname = Eng;
layers = (
{
layerId = "F859EBB1-02CE-49D6-A9DD-2E3CD13E297E";
paths = (
{
nodes = (
"932 1120 LINE",
"932 236 LINE",
"854 174 LINE",
"754 160 LINE",
"598 160 LINE",
"598 266 LINE",
"748 266 LINE",
"813 279 LINE",
"825 338 LINE",
"825 1106 LINE",
"815 1165 LINE",
"746 1176 LINE",
"506 1176 LINE",
"428 1163 LINE",
"428 453 LINE",
"322 453 LINE",
"322 1255 LINE",
"502 1280 LINE",
"752 1280 LINE",
"854 1268 LINE",
"918 1204 LINE"
);
},
{
nodes = (
"438 1370 LINE SMOOTH",
"168 1370 OFFCURVE",
"-4 1198 OFFCURVE",
"-4 989 CURVE SMOOTH",
"-4 381 LINE SMOOTH",
"-4 172 OFFCURVE",
"168 0 OFFCURVE",
"438 0 CURVE SMOOTH",
"746 0 LINE SMOOTH",
"1016 0 OFFCURVE",
"1188 172 OFFCURVE",
"1188 381 CURVE SMOOTH",
"1188 989 LINE SMOOTH",
"1188 1198 OFFCURVE",
"1016 1370 OFFCURVE",
"746 1370 CURVE SMOOTH"
);
}
);
width = 1184;
}
);
unicode = 014A;
},
{
glyphname = OE;
layers = (
{
layerId = "F859EBB1-02CE-49D6-A9DD-2E3CD13E297E";
paths = (
{
nodes = (
"983 453 LINE",
"653 453 LINE",
"653 498 LINE",
"621 465 LINE",
"518 453 LINE",
"406 453 LINE",
"305 465 LINE",
"240 528 LINE",
"227 614 LINE",
"227 1118 LINE",
"240 1202 LINE",
"303 1266 LINE",
"406 1280 LINE",
"518 1280 LINE",
"621 1266 LINE",
"653 1233 LINE",
"653 1280 LINE",
"969 1280 LINE",
"969 1174 LINE",
"696 1174 LINE",
"696 918 LINE",
"936 918 LINE",
"936 813 LINE",
"698 813 LINE",
"698 559 LINE",
"983 559 LINE"
);
},
{
nodes = (
"592 625 LINE",
"592 1104 LINE",
"582 1163 LINE",
"512 1174 LINE",
"412 1174 LINE",
"342 1163 LINE",
"332 1108 LINE",
"332 629 LINE",
"346 569 LINE",
"412 559 LINE",
"512 559 LINE",
"578 569 LINE"
);
},
{
nodes = (
"438 1370 LINE SMOOTH",
"168 1370 OFFCURVE",
"-4 1198 OFFCURVE",
"-4 989 CURVE SMOOTH",
"-4 381 LINE SMOOTH",
"-4 172 OFFCURVE",
"168 0 OFFCURVE",
"438 0 CURVE SMOOTH",
"746 0 LINE SMOOTH",
"1016 0 OFFCURVE",
"1188 172 OFFCURVE",
"1188 381 CURVE SMOOTH",
"1188 989 LINE SMOOTH",
"1188 1198 OFFCURVE",
"1016 1370 OFFCURVE",
"746 1370 CURVE SMOOTH"
);
}
);
width = 1184;
}
);
unicode = 0152;
},
{
glyphname = Rcommaaccent;
layers = (
{
layerId = "F859EBB1-02CE-49D6-A9DD-2E3CD13E297E";
paths = (
{
nodes = (
"602 147 LINE",
"641 248 LINE",
"576 248 LINE",
"576 377 LINE",
"727 377 LINE",
"727 248 LINE",
"666 119 LINE"
);
},
{
nodes = (
"438 1370 LINE SMOOTH",
"168 1370 OFFCURVE",
"-4 1198 OFFCURVE",
"-4 989 CURVE SMOOTH",
"-4 381 LINE SMOOTH",
"-4 172 OFFCURVE",
"168 0 OFFCURVE",
"438 0 CURVE SMOOTH",
"746 0 LINE SMOOTH",
"1016 0 OFFCURVE",
"1188 172 OFFCURVE",
"1188 381 CURVE SMOOTH",
"1188 989 LINE SMOOTH",
"1188 1198 OFFCURVE",
"1016 1370 OFFCURVE",
"746 1370 CURVE SMOOTH"
);
},
{
nodes = (
"782 754 LINE",
"711 786 LINE",
"451 786 LINE",
"451 453 LINE",
"344 453 LINE",
"344 1280 LINE",
"717 1280 LINE",
"817 1266 LINE",
"883 1182 LINE",
"895 1098 LINE",
"895 987 LINE",
"864 897 LINE",
"754 844 LINE",
"868 803 LINE",
"903 711 LINE",
"903 453 LINE",
"797 453 LINE",
"797 700 LINE"
);
},
{
nodes = (
"451 1174 LINE",
"451 893 LINE",
"711 893 LINE",
"774 924 LINE",
"789 979 LINE",
"789 1085 LINE",
"782 1143 LINE",
"711 1174 LINE"
);
}
);
width = 1184;
}
);
unicode = 0156;
},
{
glyphname = rcommaaccent;
layers = (
{
layerId = "F859EBB1-02CE-49D6-A9DD-2E3CD13E297E";
paths = (
{
nodes = (
"602 147 LINE",
"641 248 LINE",
"576 248 LINE",
"576 377 LINE",
"727 377 LINE",
"727 248 LINE",
"666 119 LINE"
);
},
{
nodes = (
"438 1370 LINE SMOOTH",
"168 1370 OFFCURVE",
"-4 1198 OFFCURVE",
"-4 989 CURVE SMOOTH",
"-4 381 LINE SMOOTH",
"-4 172 OFFCURVE",
"168 0 OFFCURVE",
"438 0 CURVE SMOOTH",
"746 0 LINE SMOOTH",
"1016 0 OFFCURVE",
"1188 172 OFFCURVE",
"1188 381 CURVE SMOOTH",
"1188 989 LINE SMOOTH",
"1188 1198 OFFCURVE",
"1016 1370 OFFCURVE",
"746 1370 CURVE SMOOTH"
);
},
{
nodes = (
"782 754 LINE",
"711 786 LINE",
"451 786 LINE",
"451 453 LINE",
"344 453 LINE",
"344 1280 LINE",
"717 1280 LINE",
"817 1266 LINE",
"883 1182 LINE",
"895 1098 LINE",
"895 987 LINE",
"864 897 LINE",
"754 844 LINE",
"868 803 LINE",
"903 711 LINE",
"903 453 LINE",
"797 453 LINE",
"797 700 LINE"
);
},
{
nodes = (
"451 1174 LINE",
"451 893 LINE",
"711 893 LINE",
"774 924 LINE",
"789 979 LINE",
"789 1085 LINE",
"782 1143 LINE",
"711 1174 LINE"
);
}
);
width = 1184;
}
);
unicode = 0157;
},
{
glyphname = Scedilla;
layers = (
{
layerId = "F859EBB1-02CE-49D6-A9DD-2E3CD13E297E";
paths = (
{
nodes = (
"934 614 LINE",
"920 528 LINE",
"856 465 LINE",
"754 453 LINE",
"692 453 LINE",
"692 336 LINE",
"582 326 LINE",
"571 291 LINE",
"586 231 LINE",
"696 221 LINE",
"696 131 LINE",
"553 143 LINE",
"494 203 LINE",
"481 281 LINE",
"481 299 LINE",
"494 356 LINE",
"551 418 LINE",
"623 418 LINE",
"623 453 LINE",
"494 453 LINE",
"377 467 LINE",
"402 575 LINE",
"500 559 LINE",
"748 559 LINE",
"813 569 LINE",
"817 586 OFFCURVE",
"824 608 OFFCURVE",
"827 625 CURVE",
"827 756 LINE",
"823 775 OFFCURVE",
"817 791 OFFCURVE",
"813 811 CURVE",
"752 821 LINE",
"526 821 LINE",
"426 834 LINE",
"361 897 LINE",
"348 981 LINE",
"348 1118 LINE",
"361 1202 LINE",
"426 1266 LINE",
"526 1280 LINE",
"789 1280 LINE",
"905 1264 LINE",
"881 1155 LINE",
"787 1174 LINE",
"533 1174 LINE",
"467 1161 LINE",
"453 1102 LINE",
"453 997 LINE",
"460 977 OFFCURVE",
"460 961 OFFCURVE",
"467 938 CURVE",
"528 926 LINE",
"752 926 LINE",
"856 915 LINE",
"920 852 LINE",
"934 766 LINE"
);
},
{
nodes = (
"438 1370 LINE SMOOTH",
"168 1370 OFFCURVE",
"-4 1198 OFFCURVE",
"-4 989 CURVE SMOOTH",
"-4 381 LINE SMOOTH",
"-4 172 OFFCURVE",
"168 0 OFFCURVE",
"438 0 CURVE SMOOTH",
"746 0 LINE SMOOTH",
"1016 0 OFFCURVE",
"1188 172 OFFCURVE",
"1188 381 CURVE SMOOTH",
"1188 989 LINE SMOOTH",
"1188 1198 OFFCURVE",
"1016 1370 OFFCURVE",
"746 1370 CURVE SMOOTH"
);
}
);
width = 1184;
}
);
unicode = 015E;
},
{
glyphname = scedilla;
layers = (
{
layerId = "F859EBB1-02CE-49D6-A9DD-2E3CD13E297E";
paths = (
{
nodes = (
"934 614 LINE",
"920 528 LINE",
"856 465 LINE",
"754 453 LINE",
"692 453 LINE",
"692 336 LINE",
"582 326 LINE",
"571 291 LINE",
"586 231 LINE",
"696 221 LINE",
"696 131 LINE",
"553 143 LINE",
"494 203 LINE",
"481 281 LINE",
"481 299 LINE",
"494 356 LINE",
"551 418 LINE",
"623 418 LINE",
"623 453 LINE",
"494 453 LINE",
"377 467 LINE",
"402 575 LINE",
"500 559 LINE",
"748 559 LINE",
"813 569 LINE",
"817 586 OFFCURVE",
"824 608 OFFCURVE",
"827 625 CURVE",
"827 756 LINE",
"823 775 OFFCURVE",
"817 791 OFFCURVE",
"813 811 CURVE",
"752 821 LINE",
"526 821 LINE",
"426 834 LINE",
"361 897 LINE",
"348 981 LINE",
"348 1118 LINE",
"361 1202 LINE",
"426 1266 LINE",
"526 1280 LINE",
"789 1280 LINE",
"905 1264 LINE",
"881 1155 LINE",
"787 1174 LINE",
"533 1174 LINE",
"467 1161 LINE",
"453 1102 LINE",
"453 997 LINE",
"460 977 OFFCURVE",
"460 961 OFFCURVE",
"467 938 CURVE",
"528 926 LINE",
"752 926 LINE",
"856 915 LINE",
"920 852 LINE",
"934 766 LINE"
);
},
{
nodes = (
"438 1370 LINE SMOOTH",
"168 1370 OFFCURVE",
"-4 1198 OFFCURVE",
"-4 989 CURVE SMOOTH",
"-4 381 LINE SMOOTH",
"-4 172 OFFCURVE",
"168 0 OFFCURVE",
"438 0 CURVE SMOOTH",
"746 0 LINE SMOOTH",
"1016 0 OFFCURVE",
"1188 172 OFFCURVE",
"1188 381 CURVE SMOOTH",
"1188 989 LINE SMOOTH",
"1188 1198 OFFCURVE",
"1016 1370 OFFCURVE",
"746 1370 CURVE SMOOTH"
);
}
);
width = 1184;
}
);
unicode = 015F;
},
{
glyphname = Tcommaaccent;
layers = (
{
layerId = "F859EBB1-02CE-49D6-A9DD-2E3CD13E297E";
paths = (
{
nodes = (
"602 147 LINE",
"641 248 LINE",
"576 248 LINE",
"576 377 LINE",
"727 377 LINE",
"727 248 LINE",
"666 119 LINE"
);
},
{
nodes = (
"936 1174 LINE",
"666 1174 LINE",
"666 453 LINE",
"594 453 LINE",
"594 1174 LINE",
"358 1174 LINE",
"358 1280 LINE",
"936 1280 LINE"
);
},
{
nodes = (
"438 1370 LINE SMOOTH",
"168 1370 OFFCURVE",
"-4 1198 OFFCURVE",
"-4 989 CURVE SMOOTH",
"-4 381 LINE SMOOTH",
"-4 172 OFFCURVE",
"168 0 OFFCURVE",
"438 0 CURVE SMOOTH",
"746 0 LINE SMOOTH",
"1016 0 OFFCURVE",
"1188 172 OFFCURVE",
"1188 381 CURVE SMOOTH",
"1188 989 LINE SMOOTH",
"1188 1198 OFFCURVE",
"1016 1370 OFFCURVE",
"746 1370 CURVE SMOOTH"
);
}
);
width = 1184;
}
);
unicode = 0162;
},
{
glyphname = tcommaaccent;
layers = (
{
layerId = "F859EBB1-02CE-49D6-A9DD-2E3CD13E297E";
paths = (
{
nodes = (
"602 147 LINE",
"641 248 LINE",
"576 248 LINE",
"576 377 LINE",
"727 377 LINE",
"727 248 LINE",
"666 119 LINE"
);
},
{
nodes = (
"936 1174 LINE",
"666 1174 LINE",
"666 453 LINE",
"594 453 LINE",
"594 1174 LINE",
"358 1174 LINE",
"358 1280 LINE",
"936 1280 LINE"
);
},
{
nodes = (
"438 1370 LINE SMOOTH",
"168 1370 OFFCURVE",
"-4 1198 OFFCURVE",
"-4 989 CURVE SMOOTH",
"-4 381 LINE SMOOTH",
"-4 172 OFFCURVE",
"168 0 OFFCURVE",
"438 0 CURVE SMOOTH",
"746 0 LINE SMOOTH",
"1016 0 OFFCURVE",
"1188 172 OFFCURVE",
"1188 381 CURVE SMOOTH",
"1188 989 LINE SMOOTH",
"1188 1198 OFFCURVE",
"1016 1370 OFFCURVE",
"746 1370 CURVE SMOOTH"
);
}
);
width = 1184;
}
);
unicode = 0163;
},
{
glyphname = tcaron;
layers = (
{
layerId = "F859EBB1-02CE-49D6-A9DD-2E3CD13E297E";
paths = (
{
nodes = (
"809 885 LINE",
"848 985 LINE",
"782 985 LINE",
"782 1114 LINE",
"934 1114 LINE",
"934 985 LINE",
"873 856 LINE"
);
},
{
nodes = (
"936 1174 LINE",
"701 1174 LINE",
"701 453 LINE",
"594 453 LINE",
"594 1174 LINE",
"358 1174 LINE",
"358 1280 LINE",
"936 1280 LINE"
);
},
{
nodes = (
"438 1370 LINE SMOOTH",
"168 1370 OFFCURVE",
"-4 1198 OFFCURVE",
"-4 989 CURVE SMOOTH",
"-4 381 LINE SMOOTH",
"-4 172 OFFCURVE",
"168 0 OFFCURVE",
"438 0 CURVE SMOOTH",
"746 0 LINE SMOOTH",
"1016 0 OFFCURVE",
"1188 172 OFFCURVE",
"1188 381 CURVE SMOOTH",
"1188 989 LINE SMOOTH",
"1188 1198 OFFCURVE",
"1016 1370 OFFCURVE",
"746 1370 CURVE SMOOTH"
);
}
);
width = 1184;
}
);
unicode = 0165;
},
{
glyphname = Tbar;
layers = (
{
layerId = "F859EBB1-02CE-49D6-A9DD-2E3CD13E297E";
paths = (
{
nodes = (
"936 1174 LINE",
"701 1174 LINE",
"701 897 LINE",
"832 897 LINE",
"832 805 LINE",
"701 805 LINE",
"701 453 LINE",
"594 453 LINE",
"594 805 LINE",
"455 805 LINE",
"455 897 LINE",
"594 897 LINE",
"594 1174 LINE",
"358 1174 LINE",
"358 1280 LINE",
"936 1280 LINE"
);
},
{
nodes = (
"438 1370 LINE SMOOTH",
"168 1370 OFFCURVE",
"-4 1198 OFFCURVE",
"-4 989 CURVE SMOOTH",
"-4 381 LINE SMOOTH",
"-4 172 OFFCURVE",
"168 0 OFFCURVE",
"438 0 CURVE SMOOTH",
"746 0 LINE SMOOTH",
"1016 0 OFFCURVE",
"1188 172 OFFCURVE",
"1188 381 CURVE SMOOTH",
"1188 989 LINE SMOOTH",
"1188 1198 OFFCURVE",
"1016 1370 OFFCURVE",
"746 1370 CURVE SMOOTH"
);
}
);
width = 1184;
}
);
unicode = 0166;
},
{
glyphname = Uogonek;
layers = (
{
layerId = "F859EBB1-02CE-49D6-A9DD-2E3CD13E297E";
paths = (
{
nodes = (
"946 614 LINE",
"932 528 LINE",
"868 465 LINE",
"766 453 LINE",
"754 453 LINE",
"643 326 LINE",
"633 291 LINE",
"647 231 LINE",
"758 221 LINE",
"758 131 LINE",
"614 143 LINE",
"555 203 LINE",
"543 281 LINE",
"555 356 LINE",
"612 414 LINE",
"684 453 LINE",
"498 453 LINE",
"397 465 LINE",
"332 528 LINE",
"320 614 LINE",
"320 1280 LINE",
"424 1280 LINE",
"424 629 LINE",
"438 569 LINE",
"504 559 LINE",
"760 559 LINE",
"825 569 LINE",
"830 586 OFFCURVE",
"837 608 OFFCURVE",
"840 625 CURVE",
"840 1280 LINE",
"946 1280 LINE"
);
},
{
nodes = (
"438 1370 LINE SMOOTH",
"168 1370 OFFCURVE",
"-4 1198 OFFCURVE",
"-4 989 CURVE SMOOTH",
"-4 381 LINE SMOOTH",
"-4 172 OFFCURVE",
"168 0 OFFCURVE",
"438 0 CURVE SMOOTH",
"746 0 LINE SMOOTH",
"1016 0 OFFCURVE",
"1188 172 OFFCURVE",
"1188 381 CURVE SMOOTH",
"1188 989 LINE SMOOTH",
"1188 1198 OFFCURVE",
"1016 1370 OFFCURVE",
"746 1370 CURVE SMOOTH"
);
}
);
width = 1184;
}
);
unicode = 0172;
},
{
glyphname = uogonek;
layers = (
{
layerId = "F859EBB1-02CE-49D6-A9DD-2E3CD13E297E";
paths = (
{
nodes = (
"438 1370 LINE SMOOTH",
"168 1370 OFFCURVE",
"-4 1198 OFFCURVE",
"-4 989 CURVE SMOOTH",
"-4 381 LINE SMOOTH",
"-4 172 OFFCURVE",
"168 0 OFFCURVE",
"438 0 CURVE SMOOTH",
"746 0 LINE SMOOTH",
"1016 0 OFFCURVE",
"1188 172 OFFCURVE",
"1188 381 CURVE SMOOTH",
"1188 989 LINE SMOOTH",
"1188 1198 OFFCURVE",
"1016 1370 OFFCURVE",
"746 1370 CURVE SMOOTH"
);
},
{
nodes = (
"946 614 LINE",
"932 528 LINE",
"868 465 LINE",
"766 453 LINE",
"754 453 LINE",
"643 326 LINE",
"633 291 LINE",
"647 231 LINE",
"758 221 LINE",
"758 131 LINE",
"614 143 LINE",
"555 203 LINE",
"543 281 LINE",
"555 356 LINE",
"612 414 LINE",
"684 453 LINE",
"498 453 LINE",
"397 465 LINE",
"332 528 LINE",
"320 614 LINE",
"320 1280 LINE",
"424 1280 LINE",
"424 629 LINE",
"438 569 LINE",
"504 559 LINE",
"760 559 LINE",
"825 569 LINE",
"834 596 OFFCURVE",
"839 615 OFFCURVE",
"840 625 CURVE",
"840 1280 LINE",
"946 1280 LINE"
);
}
);
width = 1184;
}
);
unicode = 0173;
},
{
glyphname = longs;
layers = (
{
layerId = "F859EBB1-02CE-49D6-A9DD-2E3CD13E297E";
paths = (
{
nodes = (
"636 920 OFFCURVE",
"658 917 OFFCURVE",
"658 898 CURVE SMOOTH",
"658 541 LINE SMOOTH",
"658 525 OFFCURVE",
"633 519 OFFCURVE",
"621 519 CURVE SMOOTH",
"608 519 OFFCURVE",
"584 525 OFFCURVE",
"584 541 CURVE SMOOTH",
"584 898 LINE SMOOTH",
"584 917 OFFCURVE",
"606 920 OFFCURVE",
"621 920 CURVE SMOOTH"
);
},
{
nodes = (
"746 0 LINE SMOOTH",
"1016 0 OFFCURVE",
"1188 172 OFFCURVE",
"1188 381 CURVE SMOOTH",
"1188 989 LINE SMOOTH",
"1188 1198 OFFCURVE",
"1016 1370 OFFCURVE",
"746 1370 CURVE SMOOTH",
"438 1370 LINE SMOOTH",
"168 1370 OFFCURVE",
"-4 1198 OFFCURVE",
"-4 989 CURVE SMOOTH",
"-4 381 LINE SMOOTH",
"-4 172 OFFCURVE",
"168 0 OFFCURVE",
"438 0 CURVE SMOOTH"
);
},
{
nodes = (
"489 1152 OFFCURVE",
"377 1050 OFFCURVE",
"377 914 CURVE SMOOTH",
"377 775 OFFCURVE",
"453 726 OFFCURVE",
"500 687 CURVE SMOOTH",
"504 684 OFFCURVE",
"506 679 OFFCURVE",
"506 673 CURVE SMOOTH",
"506 654 OFFCURVE",
"490 632 OFFCURVE",
"469 632 CURVE SMOOTH",
"463 632 OFFCURVE",
"457 634 OFFCURVE",
"451 638 CURVE SMOOTH",
"371 691 OFFCURVE",
"303 773 OFFCURVE",
"303 918 CURVE SMOOTH",
"303 1092 OFFCURVE",
"447 1232 OFFCURVE",
"621 1232 CURVE SMOOTH",
"795 1232 OFFCURVE",
"938 1092 OFFCURVE",
"938 918 CURVE SMOOTH",
"938 773 OFFCURVE",
"870 691 OFFCURVE",
"791 638 CURVE SMOOTH",
"784 634 OFFCURVE",
"777 632 OFFCURVE",
"772 632 CURVE SMOOTH",
"751 632 OFFCURVE",
"734 655 OFFCURVE",
"734 672 CURVE SMOOTH",
"734 678 OFFCURVE",
"736 683 OFFCURVE",
"741 687 CURVE SMOOTH",
"789 727 OFFCURVE",
"864 775 OFFCURVE",
"864 914 CURVE SMOOTH",
"864 1050 OFFCURVE",
"752 1152 OFFCURVE",
"621 1152 CURVE SMOOTH"
);
}
);
width = 1184;
}
);
unicode = 017F;
},
{
glyphname = florin;
layers = (
{
layerId = "F859EBB1-02CE-49D6-A9DD-2E3CD13E297E";
paths = (
{
nodes = (
"398 918 LINE",
"501 918 LINE",
"501 1174 LINE",
"608 1280 LINE",
"800 1280 LINE",
"800 1174 LINE",
"608 1174 LINE",
"608 918 LINE",
"744 918 LINE",
"744 831 LINE",
"608 831 LINE",
"608 352 LINE",
"501 256 LINE",
"352 256 LINE",
"352 352 LINE",
"501 352 LINE",
"501 831 LINE",
"398 831 LINE"
);
},
{
nodes = (
"438 1370 LINE SMOOTH",
"168 1370 OFFCURVE",
"-4 1198 OFFCURVE",
"-4 989 CURVE SMOOTH",
"-4 381 LINE SMOOTH",
"-4 172 OFFCURVE",
"168 0 OFFCURVE",
"438 0 CURVE SMOOTH",
"746 0 LINE SMOOTH",
"1016 0 OFFCURVE",
"1188 172 OFFCURVE",
"1188 381 CURVE SMOOTH",
"1188 989 LINE SMOOTH",
"1188 1198 OFFCURVE",
"1016 1370 OFFCURVE",
"746 1370 CURVE SMOOTH"
);
}
);
width = 1184;
}
);
unicode = 0192;
},
{
glyphname = uni0202;
layers = (
{
layerId = "F859EBB1-02CE-49D6-A9DD-2E3CD13E297E";
paths = (
{
nodes = (
"1067 1752 OFFCURVE",
"895 1898 OFFCURVE",
"624 1898 CURVE SMOOTH",
"354 1898 OFFCURVE",
"182 1752 OFFCURVE",
"182 1579 CURVE SMOOTH",
"182 1485 OFFCURVE",
"218 1410 OFFCURVE",
"287 1350 CURVE",
"105 1299 OFFCURVE",
"-4 1155 OFFCURVE",
"-4 989 CURVE SMOOTH",
"-4 381 LINE SMOOTH",
"-4 172 OFFCURVE",
"168 0 OFFCURVE",
"438 0 CURVE SMOOTH",
"746 0 LINE SMOOTH",
"1016 0 OFFCURVE",
"1188 172 OFFCURVE",
"1188 381 CURVE SMOOTH",
"1188 989 LINE SMOOTH",
"1188 1141 OFFCURVE",
"1097 1273 OFFCURVE",
"943 1334 CURVE",
"1023 1397 OFFCURVE",
"1067 1477 OFFCURVE",
"1067 1579 CURVE SMOOTH"
);
},
{
nodes = (
"819 666 LINE",
"809 758 LINE",
"440 758 LINE",
"430 666 LINE",
"414 453 LINE",
"295 453 LINE",
"377 1198 LINE",
"438 1260 LINE",
"571 1280 LINE",
"678 1280 LINE",
"811 1260 LINE",
"873 1198 LINE",
"952 453 LINE",
"838 453 LINE"
);
},
{
nodes = (
"674 1174 LINE",
"576 1174 LINE",
"539 1169 OFFCURVE",
"516 1163 OFFCURVE",
"479 1159 CURVE",
"449 854 LINE",
"801 854 LINE",
"790 961 OFFCURVE",
"777 1051 OFFCURVE",
"768 1159 CURVE"
);
},
{
nodes = (
"454 1554 LINE",
"512 1611 LINE",
"590 1624 LINE",
"661 1624 LINE",
"739 1611 LINE",
"798 1552 LINE",
"811 1454 LINE",
"721 1454 LINE",
"710 1519 LINE",
"651 1533 LINE",
"598 1533 LINE",
"542 1523 LINE",
"532 1454 LINE",
"442 1454 LINE"
);
}
);
width = 1184;
}
);
unicode = 0202;
},
{
glyphname = uni0203;
layers = (
{
layerId = "F859EBB1-02CE-49D6-A9DD-2E3CD13E297E";
paths = (
{
nodes = (
"1067 1752 OFFCURVE",
"895 1898 OFFCURVE",
"624 1898 CURVE SMOOTH",
"354 1898 OFFCURVE",
"182 1752 OFFCURVE",
"182 1579 CURVE SMOOTH",
"182 1485 OFFCURVE",
"218 1410 OFFCURVE",
"287 1350 CURVE",
"105 1299 OFFCURVE",
"-4 1155 OFFCURVE",
"-4 989 CURVE SMOOTH",
"-4 381 LINE SMOOTH",
"-4 172 OFFCURVE",
"168 0 OFFCURVE",
"438 0 CURVE SMOOTH",
"746 0 LINE SMOOTH",
"1016 0 OFFCURVE",
"1188 172 OFFCURVE",
"1188 381 CURVE SMOOTH",
"1188 989 LINE SMOOTH",
"1188 1141 OFFCURVE",
"1097 1273 OFFCURVE",
"943 1334 CURVE",
"1023 1397 OFFCURVE",
"1067 1477 OFFCURVE",
"1067 1579 CURVE SMOOTH"
);
},
{
nodes = (
"770 465 LINE",
"692 453 LINE",
"473 453 LINE",
"373 465 LINE",
"309 528 LINE",
"295 612 LINE",
"295 729 LINE",
"309 811 LINE",
"373 874 LINE",
"473 889 LINE",
"701 889 LINE",
"772 877 LINE",
"772 1110 LINE",
"758 1163 LINE",
"698 1176 LINE",
"475 1176 LINE",
"381 1157 LINE",
"356 1266 LINE",
"473 1280 LINE",
"701 1280 LINE",
"801 1268 LINE",
"869 1204 LINE",
"869 454 LINE"
);
},
{
nodes = (
"772 569 LINE",
"772 774 LINE",
"696 782 LINE",
"479 782 LINE",
"410 772 LINE",
"402 715 LINE",
"402 629 LINE",
"416 569 LINE",
"479 559 LINE",
"694 559 LINE"
);
},
{
nodes = (
"454 1554 LINE",
"512 1611 LINE",
"590 1624 LINE",
"661 1624 LINE",
"739 1611 LINE",
"798 1552 LINE",
"811 1454 LINE",
"721 1454 LINE",
"710 1519 LINE",
"651 1533 LINE",
"598 1533 LINE",
"542 1523 LINE",
"532 1454 LINE",
"442 1454 LINE"
);
}
);
width = 1184;
}
);
unicode = 0203;
},
{
glyphname = uni0206;
layers = (
{
layerId = "F859EBB1-02CE-49D6-A9DD-2E3CD13E297E";
paths = (
{
nodes = (
"1067 1752 OFFCURVE",
"895 1898 OFFCURVE",
"624 1898 CURVE SMOOTH",
"354 1898 OFFCURVE",
"182 1752 OFFCURVE",
"182 1579 CURVE SMOOTH",
"182 1485 OFFCURVE",
"218 1410 OFFCURVE",
"287 1350 CURVE",
"105 1299 OFFCURVE",
"-4 1155 OFFCURVE",
"-4 989 CURVE SMOOTH",
"-4 381 LINE SMOOTH",
"-4 172 OFFCURVE",
"168 0 OFFCURVE",
"438 0 CURVE SMOOTH",
"746 0 LINE SMOOTH",
"1016 0 OFFCURVE",
"1188 172 OFFCURVE",
"1188 381 CURVE SMOOTH",
"1188 989 LINE SMOOTH",
"1188 1141 OFFCURVE",
"1097 1273 OFFCURVE",
"943 1334 CURVE",
"1023 1397 OFFCURVE",
"1067 1477 OFFCURVE",
"1067 1579 CURVE SMOOTH"
);
},
{
nodes = (
"905 453 LINE",
"442 453 LINE",
"442 1280 LINE",
"891 1280 LINE",
"891 1174 LINE",
"506 1174 LINE",
"506 918 LINE",
"840 918 LINE",
"840 813 LINE",
"506 813 LINE",
"506 559 LINE",
"905 559 LINE"
);
},
{
nodes = (
"454 1554 LINE",
"512 1611 LINE",
"590 1624 LINE",
"661 1624 LINE",
"739 1611 LINE",
"798 1552 LINE",
"811 1454 LINE",
"721 1454 LINE",
"710 1519 LINE",
"651 1533 LINE",
"598 1533 LINE",
"542 1523 LINE",
"532 1454 LINE",
"442 1454 LINE"
);
}
);
width = 1184;
}
);
unicode = 0206;
},
{
glyphname = uni0207;
layers = (
{
layerId = "F859EBB1-02CE-49D6-A9DD-2E3CD13E297E";
paths = (
{
nodes = (
"1067 1752 OFFCURVE",
"895 1898 OFFCURVE",
"624 1898 CURVE SMOOTH",
"354 1898 OFFCURVE",
"182 1752 OFFCURVE",
"182 1579 CURVE SMOOTH",
"182 1485 OFFCURVE",
"218 1410 OFFCURVE",
"287 1350 CURVE",
"105 1299 OFFCURVE",
"-4 1155 OFFCURVE",
"-4 989 CURVE SMOOTH",
"-4 381 LINE SMOOTH",
"-4 172 OFFCURVE",
"168 0 OFFCURVE",
"438 0 CURVE SMOOTH",
"746 0 LINE SMOOTH",
"1016 0 OFFCURVE",
"1188 172 OFFCURVE",
"1188 381 CURVE SMOOTH",
"1188 989 LINE SMOOTH",
"1188 1141 OFFCURVE",
"1097 1273 OFFCURVE",
"943 1334 CURVE",
"1023 1397 OFFCURVE",
"1067 1477 OFFCURVE",
"1067 1579 CURVE SMOOTH"
);
},
{
nodes = (
"877 868 LINE",
"410 868 LINE",
"410 662 LINE",
"424 602 LINE",
"488 592 LINE",
"731 592 LINE",
"825 608 LINE",
"850 500 LINE",
"733 485 LINE",
"481 485 LINE",
"381 498 LINE",
"318 561 LINE",
"303 645 LINE",
"303 1120 LINE",
"318 1204 LINE",
"381 1268 LINE",
"481 1280 LINE",
"698 1280 LINE",
"799 1268 LINE",
"862 1204 LINE",
"877 1120 LINE"
);
},
{
nodes = (
"770 973 LINE",
"770 1106 LINE",
"760 1165 LINE",
"692 1176 LINE",
"488 1176 LINE",
"418 1165 LINE",
"410 1108 LINE",
"410 973 LINE"
);
},
{
nodes = (
"454 1554 LINE",
"512 1611 LINE",
"590 1624 LINE",
"661 1624 LINE",
"739 1611 LINE",
"798 1552 LINE",
"811 1454 LINE",
"721 1454 LINE",
"710 1519 LINE",
"651 1533 LINE",
"598 1533 LINE",
"542 1523 LINE",
"532 1454 LINE",
"442 1454 LINE"
);
}
);
width = 1184;
}
);
unicode = 0207;
},
{
glyphname = uni020A;
layers = (
{
layerId = "F859EBB1-02CE-49D6-A9DD-2E3CD13E297E";
paths = (
{
nodes = (
"1067 1752 OFFCURVE",
"895 1898 OFFCURVE",
"624 1898 CURVE SMOOTH",
"354 1898 OFFCURVE",
"182 1752 OFFCURVE",
"182 1579 CURVE SMOOTH",
"182 1485 OFFCURVE",
"218 1410 OFFCURVE",
"287 1350 CURVE",
"105 1299 OFFCURVE",
"-4 1155 OFFCURVE",
"-4 989 CURVE SMOOTH",
"-4 381 LINE SMOOTH",
"-4 172 OFFCURVE",
"168 0 OFFCURVE",
"438 0 CURVE SMOOTH",
"746 0 LINE SMOOTH",
"1016 0 OFFCURVE",
"1188 172 OFFCURVE",
"1188 381 CURVE SMOOTH",
"1188 989 LINE SMOOTH",
"1188 1141 OFFCURVE",
"1097 1273 OFFCURVE",
"943 1334 CURVE",
"1023 1397 OFFCURVE",
"1067 1477 OFFCURVE",
"1067 1579 CURVE SMOOTH"
);
},
{
nodes = (
"594 559 LINE",
"594 1174 LINE",
"358 1174 LINE",
"358 1280 LINE",
"936 1280 LINE",
"936 1174 LINE",
"701 1174 LINE",
"701 559 LINE",
"936 559 LINE",
"936 453 LINE",
"358 453 LINE",
"358 559 LINE"
);
},
{
nodes = (
"454 1554 LINE",
"512 1611 LINE",
"590 1624 LINE",
"661 1624 LINE",
"739 1611 LINE",
"798 1552 LINE",
"811 1454 LINE",
"721 1454 LINE",
"710 1519 LINE",
"651 1533 LINE",
"598 1533 LINE",
"542 1523 LINE",
"532 1454 LINE",
"442 1454 LINE"
);
}
);
width = 1184;
}
);
unicode = 020A;
},
{
glyphname = uni020B;
layers = (
{
layerId = "F859EBB1-02CE-49D6-A9DD-2E3CD13E297E";
paths = (
{
nodes = (
"1067 1752 OFFCURVE",
"895 1898 OFFCURVE",
"624 1898 CURVE SMOOTH",
"354 1898 OFFCURVE",
"182 1752 OFFCURVE",
"182 1579 CURVE SMOOTH",
"182 1485 OFFCURVE",
"218 1410 OFFCURVE",
"287 1350 CURVE",
"105 1299 OFFCURVE",
"-4 1155 OFFCURVE",
"-4 989 CURVE SMOOTH",
"-4 381 LINE SMOOTH",
"-4 172 OFFCURVE",
"168 0 OFFCURVE",
"438 0 CURVE SMOOTH",
"746 0 LINE SMOOTH",
"1016 0 OFFCURVE",
"1188 172 OFFCURVE",
"1188 381 CURVE SMOOTH",
"1188 989 LINE SMOOTH",
"1188 1141 OFFCURVE",
"1097 1273 OFFCURVE",
"943 1334 CURVE",
"1023 1397 OFFCURVE",
"1067 1477 OFFCURVE",
"1067 1579 CURVE SMOOTH"
);
},
{
nodes = (
"594 559 LINE",
"594 1174 LINE",
"358 1174 LINE",
"358 1280 LINE",
"936 1280 LINE",
"936 1174 LINE",
"701 1174 LINE",
"701 559 LINE",
"936 559 LINE",
"936 453 LINE",
"358 453 LINE",
"358 559 LINE"
);
},
{
nodes = (
"454 1554 LINE",
"512 1611 LINE",
"590 1624 LINE",
"661 1624 LINE",
"739 1611 LINE",
"798 1552 LINE",
"811 1454 LINE",
"721 1454 LINE",
"710 1519 LINE",
"651 1533 LINE",
"598 1533 LINE",
"542 1523 LINE",
"532 1454 LINE",
"442 1454 LINE"
);
}
);
width = 1184;
}
);
unicode = 020B;
},
{
glyphname = uni020E;
layers = (
{
layerId = "F859EBB1-02CE-49D6-A9DD-2E3CD13E297E";
paths = (
{
nodes = (
"1067 1752 OFFCURVE",
"895 1898 OFFCURVE",
"624 1898 CURVE SMOOTH",
"354 1898 OFFCURVE",
"182 1752 OFFCURVE",
"182 1579 CURVE SMOOTH",
"182 1485 OFFCURVE",
"218 1410 OFFCURVE",
"287 1350 CURVE",
"105 1299 OFFCURVE",
"-4 1155 OFFCURVE",
"-4 989 CURVE SMOOTH",
"-4 381 LINE SMOOTH",
"-4 172 OFFCURVE",
"168 0 OFFCURVE",
"438 0 CURVE SMOOTH",
"746 0 LINE SMOOTH",
"1016 0 OFFCURVE",
"1188 172 OFFCURVE",
"1188 381 CURVE SMOOTH",
"1188 989 LINE SMOOTH",
"1188 1141 OFFCURVE",
"1097 1273 OFFCURVE",
"943 1334 CURVE",
"1023 1397 OFFCURVE",
"1067 1477 OFFCURVE",
"1067 1579 CURVE SMOOTH"
);
},
{
nodes = (
"952 614 LINE",
"938 528 LINE",
"875 465 LINE",
"772 453 LINE",
"504 453 LINE",
"404 465 LINE",
"338 528 LINE",
"326 614 LINE",
"326 1118 LINE",
"338 1202 LINE",
"402 1266 LINE",
"504 1280 LINE",
"772 1280 LINE",
"875 1266 LINE",
"938 1202 LINE",
"952 1118 LINE"
);
},
{
nodes = (
"846 625 LINE",
"846 1104 LINE",
"836 1163 LINE",
"766 1174 LINE",
"510 1174 LINE",
"440 1163 LINE",
"430 1108 LINE",
"430 629 LINE",
"445 569 LINE",
"510 559 LINE",
"766 559 LINE",
"832 569 LINE"
);
},
{
nodes = (
"454 1554 LINE",
"512 1611 LINE",
"590 1624 LINE",
"661 1624 LINE",
"739 1611 LINE",
"798 1552 LINE",
"811 1454 LINE",
"721 1454 LINE",
"710 1519 LINE",
"651 1533 LINE",
"598 1533 LINE",
"542 1523 LINE",
"532 1454 LINE",
"442 1454 LINE"
);
}
);
width = 1184;
}
);
unicode = 020E;
},
{
glyphname = uni020F;
layers = (
{
layerId = "F859EBB1-02CE-49D6-A9DD-2E3CD13E297E";
paths = (
{
nodes = (
"1067 1752 OFFCURVE",
"895 1898 OFFCURVE",
"624 1898 CURVE SMOOTH",
"354 1898 OFFCURVE",
"182 1752 OFFCURVE",
"182 1579 CURVE SMOOTH",
"182 1485 OFFCURVE",
"218 1410 OFFCURVE",
"287 1350 CURVE",
"105 1299 OFFCURVE",
"-4 1155 OFFCURVE",
"-4 989 CURVE SMOOTH",
"-4 381 LINE SMOOTH",
"-4 172 OFFCURVE",
"168 0 OFFCURVE",
"438 0 CURVE SMOOTH",
"746 0 LINE SMOOTH",
"1016 0 OFFCURVE",
"1188 172 OFFCURVE",
"1188 381 CURVE SMOOTH",
"1188 989 LINE SMOOTH",
"1188 1141 OFFCURVE",
"1097 1273 OFFCURVE",
"943 1334 CURVE",
"1023 1397 OFFCURVE",
"1067 1477 OFFCURVE",
"1067 1579 CURVE SMOOTH"
);
},
{
nodes = (
"952 614 LINE",
"938 528 LINE",
"875 465 LINE",
"772 453 LINE",
"504 453 LINE",
"404 465 LINE",
"338 528 LINE",
"326 614 LINE",
"326 1118 LINE",
"338 1202 LINE",
"402 1266 LINE",
"504 1280 LINE",
"772 1280 LINE",
"875 1266 LINE",
"938 1202 LINE",
"952 1118 LINE"
);
},
{
nodes = (
"846 625 LINE",
"846 1104 LINE",
"836 1163 LINE",
"766 1174 LINE",
"510 1174 LINE",
"440 1163 LINE",
"430 1108 LINE",
"430 629 LINE",
"445 569 LINE",
"510 559 LINE",
"766 559 LINE",
"832 569 LINE"
);
},
{
nodes = (
"454 1554 LINE",
"512 1611 LINE",
"590 1624 LINE",
"661 1624 LINE",
"739 1611 LINE",
"798 1552 LINE",
"811 1454 LINE",
"721 1454 LINE",
"710 1519 LINE",
"651 1533 LINE",
"598 1533 LINE",
"542 1523 LINE",
"532 1454 LINE",
"442 1454 LINE"
);
}
);
width = 1184;
}
);
unicode = 020F;
},
{
glyphname = uni0212;
layers = (
{
layerId = "F859EBB1-02CE-49D6-A9DD-2E3CD13E297E";
paths = (
{
nodes = (
"1067 1752 OFFCURVE",
"895 1898 OFFCURVE",
"624 1898 CURVE SMOOTH",
"354 1898 OFFCURVE",
"182 1752 OFFCURVE",
"182 1579 CURVE SMOOTH",
"182 1485 OFFCURVE",
"218 1410 OFFCURVE",
"287 1350 CURVE",
"105 1299 OFFCURVE",
"-4 1155 OFFCURVE",
"-4 989 CURVE SMOOTH",
"-4 381 LINE SMOOTH",
"-4 172 OFFCURVE",
"168 0 OFFCURVE",
"438 0 CURVE SMOOTH",
"746 0 LINE SMOOTH",
"1016 0 OFFCURVE",
"1188 172 OFFCURVE",
"1188 381 CURVE SMOOTH",
"1188 989 LINE SMOOTH",
"1188 1141 OFFCURVE",
"1097 1273 OFFCURVE",
"943 1334 CURVE",
"1023 1397 OFFCURVE",
"1067 1477 OFFCURVE",
"1067 1579 CURVE SMOOTH"
);
},
{
nodes = (
"782 754 LINE",
"711 786 LINE",
"451 786 LINE",
"451 453 LINE",
"344 453 LINE",
"344 1280 LINE",
"717 1280 LINE",
"817 1266 LINE",
"883 1182 LINE",
"895 1098 LINE",
"895 987 LINE",
"864 897 LINE",
"754 844 LINE",
"868 803 LINE",
"903 711 LINE",
"903 453 LINE",
"797 453 LINE",
"797 700 LINE"
);
},
{
nodes = (
"451 1174 LINE",
"451 893 LINE",
"711 893 LINE",
"774 924 LINE",
"789 979 LINE",
"789 1085 LINE",
"782 1143 LINE",
"711 1174 LINE"
);
},
{
nodes = (
"454 1554 LINE",
"512 1611 LINE",
"590 1624 LINE",
"661 1624 LINE",
"739 1611 LINE",
"798 1552 LINE",
"811 1454 LINE",
"721 1454 LINE",
"710 1519 LINE",
"651 1533 LINE",
"598 1533 LINE",
"542 1523 LINE",
"532 1454 LINE",
"442 1454 LINE"
);
}
);
width = 1184;
}
);
unicode = 0212;
},
{
glyphname = uni0213;
layers = (
{
layerId = "F859EBB1-02CE-49D6-A9DD-2E3CD13E297E";
paths = (
{
nodes = (
"1067 1752 OFFCURVE",
"895 1898 OFFCURVE",
"624 1898 CURVE SMOOTH",
"354 1898 OFFCURVE",
"182 1752 OFFCURVE",
"182 1579 CURVE SMOOTH",
"182 1485 OFFCURVE",
"218 1410 OFFCURVE",
"287 1350 CURVE",
"105 1299 OFFCURVE",
"-4 1155 OFFCURVE",
"-4 989 CURVE SMOOTH",
"-4 381 LINE SMOOTH",
"-4 172 OFFCURVE",
"168 0 OFFCURVE",
"438 0 CURVE SMOOTH",
"746 0 LINE SMOOTH",
"1016 0 OFFCURVE",
"1188 172 OFFCURVE",
"1188 381 CURVE SMOOTH",
"1188 989 LINE SMOOTH",
"1188 1141 OFFCURVE",
"1097 1273 OFFCURVE",
"943 1334 CURVE",
"1023 1397 OFFCURVE",
"1067 1477 OFFCURVE",
"1067 1579 CURVE SMOOTH"
);
},
{
nodes = (
"782 754 LINE",
"711 786 LINE",
"451 786 LINE",
"451 453 LINE",
"344 453 LINE",
"344 1280 LINE",
"717 1280 LINE",
"817 1266 LINE",
"883 1182 LINE",
"895 1098 LINE",
"895 987 LINE",
"864 897 LINE",
"754 844 LINE",
"868 803 LINE",
"903 711 LINE",
"903 453 LINE",
"797 453 LINE",
"797 700 LINE"
);
},
{
nodes = (
"451 1174 LINE",
"451 893 LINE",
"711 893 LINE",
"774 924 LINE",
"789 979 LINE",
"789 1085 LINE",
"782 1143 LINE",
"711 1174 LINE"
);
},
{
nodes = (
"454 1554 LINE",
"512 1611 LINE",
"590 1624 LINE",
"661 1624 LINE",
"739 1611 LINE",
"798 1552 LINE",
"811 1454 LINE",
"721 1454 LINE",
"710 1519 LINE",
"651 1533 LINE",
"598 1533 LINE",
"542 1523 LINE",
"532 1454 LINE",
"442 1454 LINE"
);
}
);
width = 1184;
}
);
unicode = 0213;
},
{
glyphname = uni0216;
layers = (
{
layerId = "F859EBB1-02CE-49D6-A9DD-2E3CD13E297E";
paths = (
{
nodes = (
"1067 1752 OFFCURVE",
"895 1898 OFFCURVE",
"624 1898 CURVE SMOOTH",
"354 1898 OFFCURVE",
"182 1752 OFFCURVE",
"182 1579 CURVE SMOOTH",
"182 1485 OFFCURVE",
"218 1410 OFFCURVE",
"287 1350 CURVE",
"105 1299 OFFCURVE",
"-4 1155 OFFCURVE",
"-4 989 CURVE SMOOTH",
"-4 381 LINE SMOOTH",
"-4 172 OFFCURVE",
"168 0 OFFCURVE",
"438 0 CURVE SMOOTH",
"746 0 LINE SMOOTH",
"1016 0 OFFCURVE",
"1188 172 OFFCURVE",
"1188 381 CURVE SMOOTH",
"1188 989 LINE SMOOTH",
"1188 1141 OFFCURVE",
"1097 1273 OFFCURVE",
"943 1334 CURVE",
"1023 1397 OFFCURVE",
"1067 1477 OFFCURVE",
"1067 1579 CURVE SMOOTH"
);
},
{
nodes = (
"946 614 LINE",
"932 528 LINE",
"868 465 LINE",
"766 453 LINE",
"498 453 LINE",
"397 465 LINE",
"332 528 LINE",
"320 614 LINE",
"320 1280 LINE",
"424 1280 LINE",
"424 629 LINE",
"438 569 LINE",
"504 559 LINE",
"760 559 LINE",
"825 569 LINE",
"830 586 OFFCURVE",
"837 608 OFFCURVE",
"840 625 CURVE",
"840 1280 LINE",
"946 1280 LINE"
);
},
{
nodes = (
"454 1554 LINE",
"512 1611 LINE",
"590 1624 LINE",
"661 1624 LINE",
"739 1611 LINE",
"798 1552 LINE",
"811 1454 LINE",
"721 1454 LINE",
"710 1519 LINE",
"651 1533 LINE",
"598 1533 LINE",
"542 1523 LINE",
"532 1454 LINE",
"442 1454 LINE"
);
}
);
width = 1184;
}
);
unicode = 0216;
},
{
glyphname = uni0217;
layers = (
{
layerId = "F859EBB1-02CE-49D6-A9DD-2E3CD13E297E";
paths = (
{
nodes = (
"1067 1752 OFFCURVE",
"895 1898 OFFCURVE",
"624 1898 CURVE SMOOTH",
"354 1898 OFFCURVE",
"182 1752 OFFCURVE",
"182 1579 CURVE SMOOTH",
"182 1485 OFFCURVE",
"218 1410 OFFCURVE",
"287 1350 CURVE",
"105 1299 OFFCURVE",
"-4 1155 OFFCURVE",
"-4 989 CURVE SMOOTH",
"-4 381 LINE SMOOTH",
"-4 172 OFFCURVE",
"168 0 OFFCURVE",
"438 0 CURVE SMOOTH",
"746 0 LINE SMOOTH",
"1016 0 OFFCURVE",
"1188 172 OFFCURVE",
"1188 381 CURVE SMOOTH",
"1188 989 LINE SMOOTH",
"1188 1141 OFFCURVE",
"1097 1273 OFFCURVE",
"943 1334 CURVE",
"1023 1397 OFFCURVE",
"1067 1477 OFFCURVE",
"1067 1579 CURVE SMOOTH"
);
},
{
nodes = (
"946 614 LINE",
"932 528 LINE",
"868 465 LINE",
"766 453 LINE",
"498 453 LINE",
"397 465 LINE",
"332 528 LINE",
"320 614 LINE",
"320 1280 LINE",
"424 1280 LINE",
"424 629 LINE",
"438 569 LINE",
"504 559 LINE",
"760 559 LINE",
"825 569 LINE",
"830 586 OFFCURVE",
"837 608 OFFCURVE",
"840 625 CURVE",
"840 1280 LINE",
"946 1280 LINE"
);
},
{
nodes = (
"454 1554 LINE",
"512 1611 LINE",
"590 1624 LINE",
"661 1624 LINE",
"739 1611 LINE",
"798 1552 LINE",
"811 1454 LINE",
"721 1454 LINE",
"710 1519 LINE",
"651 1533 LINE",
"598 1533 LINE",
"542 1523 LINE",
"532 1454 LINE",
"442 1454 LINE"
);
}
);
width = 1184;
}
);
unicode = 0217;
},
{
glyphname = uni0218;
layers = (
{
layerId = "F859EBB1-02CE-49D6-A9DD-2E3CD13E297E";
paths = (
{
nodes = (
"438 1370 LINE SMOOTH",
"168 1370 OFFCURVE",
"-4 1198 OFFCURVE",
"-4 989 CURVE SMOOTH",
"-4 381 LINE SMOOTH",
"-4 172 OFFCURVE",
"168 0 OFFCURVE",
"438 0 CURVE SMOOTH",
"746 0 LINE SMOOTH",
"1016 0 OFFCURVE",
"1188 172 OFFCURVE",
"1188 381 CURVE SMOOTH",
"1188 989 LINE SMOOTH",
"1188 1198 OFFCURVE",
"1016 1370 OFFCURVE",
"746 1370 CURVE SMOOTH"
);
},
{
nodes = (
"934 614 LINE",
"920 528 LINE",
"856 465 LINE",
"754 453 LINE",
"494 453 LINE",
"377 467 LINE",
"402 575 LINE",
"500 559 LINE",
"748 559 LINE",
"813 569 LINE",
"817 586 OFFCURVE",
"824 608 OFFCURVE",
"827 625 CURVE",
"827 756 LINE",
"823 775 OFFCURVE",
"817 791 OFFCURVE",
"813 811 CURVE",
"752 821 LINE",
"526 821 LINE",
"426 834 LINE",
"361 897 LINE",
"348 981 LINE",
"348 1118 LINE",
"361 1202 LINE",
"426 1266 LINE",
"526 1280 LINE",
"789 1280 LINE",
"905 1264 LINE",
"881 1155 LINE",
"787 1174 LINE",
"533 1174 LINE",
"467 1161 LINE",
"453 1102 LINE",
"453 997 LINE",
"460 977 OFFCURVE",
"460 961 OFFCURVE",
"467 938 CURVE",
"528 926 LINE",
"752 926 LINE",
"856 915 LINE",
"920 852 LINE",
"934 766 LINE"
);
},
{
nodes = (
"589 154 LINE",
"628 255 LINE",
"563 255 LINE",
"563 384 LINE",
"714 384 LINE",
"714 255 LINE",
"653 126 LINE"
);
}
);
width = 1184;
}
);
unicode = 0218;
},
{
glyphname = uni0219;
layers = (
{
layerId = "F859EBB1-02CE-49D6-A9DD-2E3CD13E297E";
paths = (
{
nodes = (
"628 255 LINE",
"563 255 LINE",
"563 384 LINE",
"714 384 LINE",
"714 255 LINE",
"653 126 LINE",
"589 154 LINE"
);
},
{
nodes = (
"438 1370 LINE SMOOTH",
"168 1370 OFFCURVE",
"-4 1198 OFFCURVE",
"-4 989 CURVE SMOOTH",
"-4 381 LINE SMOOTH",
"-4 172 OFFCURVE",
"168 0 OFFCURVE",
"438 0 CURVE SMOOTH",
"746 0 LINE SMOOTH",
"1016 0 OFFCURVE",
"1188 172 OFFCURVE",
"1188 381 CURVE SMOOTH",
"1188 989 LINE SMOOTH",
"1188 1198 OFFCURVE",
"1016 1370 OFFCURVE",
"746 1370 CURVE SMOOTH"
);
},
{
nodes = (
"934 614 LINE",
"920 528 LINE",
"856 465 LINE",
"754 453 LINE",
"494 453 LINE",
"377 467 LINE",
"402 575 LINE",
"500 559 LINE",
"748 559 LINE",
"813 569 LINE",
"817 586 OFFCURVE",
"824 608 OFFCURVE",
"827 625 CURVE",
"827 756 LINE",
"823 775 OFFCURVE",
"817 791 OFFCURVE",
"813 811 CURVE",
"752 821 LINE",
"526 821 LINE",
"426 834 LINE",
"361 897 LINE",
"348 981 LINE",
"348 1118 LINE",
"361 1202 LINE",
"426 1266 LINE",
"526 1280 LINE",
"789 1280 LINE",
"905 1264 LINE",
"881 1155 LINE",
"787 1174 LINE",
"533 1174 LINE",
"467 1161 LINE",
"453 1102 LINE",
"453 997 LINE",
"460 977 OFFCURVE",
"460 961 OFFCURVE",
"467 938 CURVE",
"528 926 LINE",
"752 926 LINE",
"856 915 LINE",
"920 852 LINE",
"934 766 LINE"
);
}
);
width = 1184;
}
);
unicode = 0219;
},
{
glyphname = uni021A;
layers = (
{
layerId = "F859EBB1-02CE-49D6-A9DD-2E3CD13E297E";
paths = (
{
nodes = (
"602 147 LINE",
"641 248 LINE",
"576 248 LINE",
"576 377 LINE",
"727 377 LINE",
"727 248 LINE",
"666 119 LINE"
);
},
{
nodes = (
"936 1174 LINE",
"666 1174 LINE",
"666 453 LINE",
"594 453 LINE",
"594 1174 LINE",
"358 1174 LINE",
"358 1280 LINE",
"936 1280 LINE"
);
},
{
nodes = (
"438 1370 LINE SMOOTH",
"168 1370 OFFCURVE",
"-4 1198 OFFCURVE",
"-4 989 CURVE SMOOTH",
"-4 381 LINE SMOOTH",
"-4 172 OFFCURVE",
"168 0 OFFCURVE",
"438 0 CURVE SMOOTH",
"746 0 LINE SMOOTH",
"1016 0 OFFCURVE",
"1188 172 OFFCURVE",
"1188 381 CURVE SMOOTH",
"1188 989 LINE SMOOTH",
"1188 1198 OFFCURVE",
"1016 1370 OFFCURVE",
"746 1370 CURVE SMOOTH"
);
}
);
width = 1184;
}
);
unicode = 021A;
},
{
glyphname = uni021B;
layers = (
{
layerId = "F859EBB1-02CE-49D6-A9DD-2E3CD13E297E";
paths = (
{
nodes = (
"602 147 LINE",
"641 248 LINE",
"576 248 LINE",
"576 377 LINE",
"727 377 LINE",
"727 248 LINE",
"666 119 LINE"
);
},
{
nodes = (
"936 1174 LINE",
"666 1174 LINE",
"666 453 LINE",
"594 453 LINE",
"594 1174 LINE",
"358 1174 LINE",
"358 1280 LINE",
"936 1280 LINE"
);
},
{
nodes = (
"438 1370 LINE SMOOTH",
"168 1370 OFFCURVE",
"-4 1198 OFFCURVE",
"-4 989 CURVE SMOOTH",
"-4 381 LINE SMOOTH",
"-4 172 OFFCURVE",
"168 0 OFFCURVE",
"438 0 CURVE SMOOTH",
"746 0 LINE SMOOTH",
"1016 0 OFFCURVE",
"1188 172 OFFCURVE",
"1188 381 CURVE SMOOTH",
"1188 989 LINE SMOOTH",
"1188 1198 OFFCURVE",
"1016 1370 OFFCURVE",
"746 1370 CURVE SMOOTH"
);
}
);
width = 1184;
}
);
unicode = 021B;
},
{
glyphname = circumflex;
layers = (
{
layerId = "F859EBB1-02CE-49D6-A9DD-2E3CD13E297E";
paths = (
{
nodes = (
"664 41 LINE",
"710 77 OFFCURVE",
"733 129 OFFCURVE",
"733 197 CURVE SMOOTH",
"733 249 OFFCURVE",
"695 347 OFFCURVE",
"660 436 CURVE SMOOTH",
"639 487 OFFCURVE",
"615 541 OFFCURVE",
"588 598 CURVE SMOOTH",
"540 697 OFFCURVE",
"481 731 OFFCURVE",
"369 731 CURVE SMOOTH",
"257 731 OFFCURVE",
"195 697 OFFCURVE",
"156 629 CURVE",
"84 474 OFFCURVE",
"-4 283 OFFCURVE",
"-4 186 CURVE SMOOTH",
"-4 130 OFFCURVE",
"16 76 OFFCURVE",
"57 41 CURVE"
);
},
{
nodes = (
"270 197 LINE",
"189 197 LINE",
"320 535 LINE",
"410 535 LINE",
"541 197 LINE",
"459 197 LINE",
"365 489 LINE"
);
}
);
width = 729;
}
);
unicode = 02C6;
},
{
glyphname = caron;
layers = (
{
layerId = "F859EBB1-02CE-49D6-A9DD-2E3CD13E297E";
paths = (
{
nodes = (
"332 647 OFFCURVE",
"296 670 OFFCURVE",
"229 670 CURVE SMOOTH",
"57 670 OFFCURVE",
"-4 578 OFFCURVE",
"-4 483 CURVE SMOOTH",
"-4 387 OFFCURVE",
"58 198 OFFCURVE",
"115 41 CURVE",
"617 41 LINE",
"665 157 OFFCURVE",
"733 365 OFFCURVE",
"733 473 CURVE SMOOTH",
"733 581 OFFCURVE",
"674 672 OFFCURVE",
"526 672 CURVE SMOOTH",
"454 672 OFFCURVE",
"408 649 OFFCURVE",
"367 612 CURVE"
);
},
{
nodes = (
"365 201 LINE",
"459 494 LINE",
"541 494 LINE",
"410 156 LINE",
"320 156 LINE",
"189 494 LINE",
"270 494 LINE"
);
}
);
width = 729;
}
);
unicode = 02C7;
},
{
glyphname = breve;
layers = (
{
layerId = "F859EBB1-02CE-49D6-A9DD-2E3CD13E297E";
paths = (
{
nodes = (
"707 0 LINE",
"819 68 OFFCURVE",
"881 158 OFFCURVE",
"881 279 CURVE SMOOTH",
"881 452 OFFCURVE",
"709 598 OFFCURVE",
"438 598 CURVE SMOOTH",
"168 598 OFFCURVE",
"-4 452 OFFCURVE",
"-4 279 CURVE SMOOTH",
"-4 158 OFFCURVE",
"57 68 OFFCURVE",
"170 0 CURVE"
);
},
{
nodes = (
"256 299 LINE",
"346 299 LINE",
"356 229 LINE",
"412 219 LINE",
"465 219 LINE",
"524 233 LINE",
"535 299 LINE",
"625 299 LINE",
"612 201 LINE",
"553 141 LINE",
"475 129 LINE",
"404 129 LINE",
"326 141 LINE",
"268 199 LINE"
);
}
);
width = 877;
}
);
unicode = 02D8;
},
{
glyphname = dotaccent;
layers = (
{
layerId = "F859EBB1-02CE-49D6-A9DD-2E3CD13E297E";
paths = (
{
nodes = (
"369 190 LINE",
"369 319 LINE",
"500 319 LINE",
"500 190 LINE"
);
},
{
nodes = (
"787 18 LINE",
"848 90 OFFCURVE",
"881 175 OFFCURVE",
"881 279 CURVE SMOOTH",
"881 452 OFFCURVE",
"709 598 OFFCURVE",
"438 598 CURVE SMOOTH",
"168 598 OFFCURVE",
"-4 452 OFFCURVE",
"-4 279 CURVE SMOOTH",
"-4 192 OFFCURVE",
"30 77 OFFCURVE",
"92 18 CURVE"
);
}
);
width = 877;
}
);
unicode = 02D9;
},
{
glyphname = ring;
layers = (
{
layerId = "F859EBB1-02CE-49D6-A9DD-2E3CD13E297E";
paths = (
{
nodes = (
"670 0 LINE",
"726 68 OFFCURVE",
"758 156 OFFCURVE",
"758 256 CURVE SMOOTH",
"758 465 OFFCURVE",
"609 637 OFFCURVE",
"377 637 CURVE SMOOTH",
"142 637 OFFCURVE",
"-4 465 OFFCURVE",
"-4 256 CURVE SMOOTH",
"-4 160 OFFCURVE",
"24 68 OFFCURVE",
"84 0 CURVE"
);
},
{
nodes = (
"410 455 LINE",
"481 440 LINE",
"539 387 LINE",
"547 289 LINE",
"539 203 LINE",
"481 147 LINE",
"410 135 LINE",
"342 135 LINE",
"268 147 LINE",
"215 201 LINE",
"203 299 LINE",
"215 387 LINE",
"268 440 LINE",
"342 455 LINE"
);
},
{
nodes = (
"404 375 LINE",
"350 375 LINE",
"291 365 LINE",
"281 295 LINE",
"291 225 LINE",
"346 215 LINE",
"399 215 LINE",
"459 229 LINE",
"469 295 LINE",
"459 360 LINE"
);
}
);
width = 754;
}
);
unicode = 02DA;
},
{
glyphname = ogonek;
layers = (
{
layerId = "F859EBB1-02CE-49D6-A9DD-2E3CD13E297E";
paths = (
{
nodes = (
"86 -156 LINE",
"96 -121 LINE",
"207 6 LINE",
"137 6 LINE",
"66 -33 LINE",
"8 -90 LINE",
"-4 -166 LINE",
"8 -244 LINE",
"68 -303 LINE",
"211 -315 LINE",
"211 -225 LINE",
"100 -215 LINE"
);
}
);
width = 207;
}
);
unicode = 02DB;
},
{
glyphname = tilde;
layers = (
{
layerId = "F859EBB1-02CE-49D6-A9DD-2E3CD13E297E";
paths = (
{
nodes = (
"750 0 LINE",
"834 72 OFFCURVE",
"881 170 OFFCURVE",
"881 279 CURVE SMOOTH",
"881 487 OFFCURVE",
"709 659 OFFCURVE",
"438 659 CURVE SMOOTH",
"168 659 OFFCURVE",
"-4 487 OFFCURVE",
"-4 279 CURVE SMOOTH",
"-4 166 OFFCURVE",
"41 72 OFFCURVE",
"129 0 CURVE"
);
},
{
nodes = (
"435 119 OFFCURVE",
"374 190 OFFCURVE",
"334 190 CURVE SMOOTH",
"315 190 OFFCURVE",
"302 174 OFFCURVE",
"291 123 CURVE",
"201 123 LINE",
"201 135 LINE SMOOTH",
"201 172 OFFCURVE",
"207 272 OFFCURVE",
"285 272 CURVE SMOOTH",
"424 272 OFFCURVE",
"474 207 OFFCURVE",
"506 207 CURVE SMOOTH",
"525 207 OFFCURVE",
"536 223 OFFCURVE",
"555 283 CURVE",
"645 283 LINE",
"645 250 LINE SMOOTH",
"645 201 OFFCURVE",
"637 119 OFFCURVE",
"561 119 CURVE SMOOTH"
);
}
);
width = 877;
}
);
unicode = 02DC;
},
{
glyphname = hungarumlaut;
layers = (
{
layerId = "F859EBB1-02CE-49D6-A9DD-2E3CD13E297E";
paths = (
{
nodes = (
"612 41 LINE",
"864 416 LINE",
"709 707 LINE",
"617 707 LINE",
"561 700 OFFCURVE",
"525 693 OFFCURVE",
"494 674 CURVE",
"477 707 LINE",
"385 707 LINE",
"273 696 OFFCURVE",
"235 672 OFFCURVE",
"182 573 CURVE SMOOTH",
"2 240 LINE",
"-2 217 OFFCURVE",
"-4 195 OFFCURVE",
"-4 176 CURVE SMOOTH",
"-4 119 OFFCURVE",
"10 76 OFFCURVE",
"43 41 CURVE"
);
},
{
nodes = (
"240 176 LINE",
"189 176 LINE",
"369 510 LINE",
"461 510 LINE"
);
},
{
nodes = (
"471 176 LINE",
"420 176 LINE",
"600 510 LINE",
"692 510 LINE"
);
}
);
width = 860;
}
);
unicode = 02DD;
},
{
glyphname = uni030F;
layers = (
{
layerId = "F859EBB1-02CE-49D6-A9DD-2E3CD13E297E";
paths = (
{
nodes = (
"817 41 LINE",
"850 76 OFFCURVE",
"864 119 OFFCURVE",
"864 176 CURVE SMOOTH",
"864 195 OFFCURVE",
"862 217 OFFCURVE",
"858 240 CURVE",
"678 573 LINE SMOOTH",
"624 672 OFFCURVE",
"587 696 OFFCURVE",
"475 707 CURVE",
"383 707 LINE",
"367 674 LINE",
"336 693 OFFCURVE",
"300 700 OFFCURVE",
"244 707 CURVE",
"152 707 LINE",
"-4 416 LINE",
"248 41 LINE"
);
},
{
nodes = (
"399 510 LINE",
"492 510 LINE",
"672 176 LINE",
"621 176 LINE"
);
},
{
nodes = (
"168 510 LINE",
"260 510 LINE",
"440 176 LINE",
"389 176 LINE"
);
}
);
width = 860;
}
);
unicode = 030F;
},
{
glyphname = mu;
layers = (
{
layerId = "F859EBB1-02CE-49D6-A9DD-2E3CD13E297E";
paths = (
{
nodes = (
"320 1280 LINE",
"424 1280 LINE",
"424 559 LINE",
"760 559 LINE",
"825 569 LINE",
"830 586 OFFCURVE",
"837 608 OFFCURVE",
"840 625 CURVE",
"840 1280 LINE",
"946 1280 LINE",
"946 614 LINE",
"932 528 LINE",
"868 465 LINE",
"766 453 LINE",
"498 453 LINE",
"424 462 LINE",
"424 384 LINE",
"320 384 LINE"
);
},
{
nodes = (
"438 1370 LINE SMOOTH",
"168 1370 OFFCURVE",
"-4 1198 OFFCURVE",
"-4 989 CURVE SMOOTH",
"-4 381 LINE SMOOTH",
"-4 172 OFFCURVE",
"168 0 OFFCURVE",
"438 0 CURVE SMOOTH",
"746 0 LINE SMOOTH",
"1016 0 OFFCURVE",
"1188 172 OFFCURVE",
"1188 381 CURVE SMOOTH",
"1188 989 LINE SMOOTH",
"1188 1198 OFFCURVE",
"1016 1370 OFFCURVE",
"746 1370 CURVE SMOOTH"
);
}
);
width = 1184;
}
);
unicode = 03BC;
},
{
glyphname = pi;
layers = (
{
layerId = "F859EBB1-02CE-49D6-A9DD-2E3CD13E297E";
paths = (
{
nodes = (
"438 1370 LINE SMOOTH",
"168 1370 OFFCURVE",
"-4 1198 OFFCURVE",
"-4 989 CURVE SMOOTH",
"-4 381 LINE SMOOTH",
"-4 172 OFFCURVE",
"168 0 OFFCURVE",
"438 0 CURVE SMOOTH",
"746 0 LINE SMOOTH",
"1016 0 OFFCURVE",
"1188 172 OFFCURVE",
"1188 381 CURVE SMOOTH",
"1188 989 LINE SMOOTH",
"1188 1198 OFFCURVE",
"1016 1370 OFFCURVE",
"746 1370 CURVE SMOOTH"
);
},
{
nodes = (
"211 588 OFFCURVE",
"393 406 OFFCURVE",
"617 406 CURVE SMOOTH",
"840 406 OFFCURVE",
"1022 588 OFFCURVE",
"1022 811 CURVE SMOOTH",
"1022 1034 OFFCURVE",
"840 1217 OFFCURVE",
"617 1217 CURVE SMOOTH",
"393 1217 OFFCURVE",
"211 1034 OFFCURVE",
"211 811 CURVE SMOOTH"
);
},
{
nodes = (
"143 1073 OFFCURVE",
"354 1284 OFFCURVE",
"617 1284 CURVE SMOOTH",
"879 1284 OFFCURVE",
"1090 1073 OFFCURVE",
"1090 811 CURVE SMOOTH",
"1090 549 OFFCURVE",
"879 338 OFFCURVE",
"617 338 CURVE SMOOTH",
"354 338 OFFCURVE",
"143 549 OFFCURVE",
"143 811 CURVE SMOOTH"
);
},
{
nodes = (
"748 705 LINE",
"741 768 LINE",
"483 768 LINE",
"475 705 LINE",
"465 555 LINE",
"381 555 LINE",
"438 1077 LINE",
"481 1120 LINE",
"576 1135 LINE",
"649 1135 LINE",
"744 1120 LINE",
"787 1077 LINE",
"842 555 LINE",
"762 555 LINE"
);
},
{
nodes = (
"647 1061 LINE",
"578 1061 LINE",
"551 1057 OFFCURVE",
"537 1054 OFFCURVE",
"510 1051 CURVE",
"490 836 LINE",
"735 836 LINE",
"728 912 OFFCURVE",
"720 975 OFFCURVE",
"713 1051 CURVE"
);
}
);
width = 1184;
}
);
unicode = 03C0;
},
{
glyphname = emdash;
layers = (
{
layerId = "F859EBB1-02CE-49D6-A9DD-2E3CD13E297E";
paths = (
{
nodes = (
"709 0 OFFCURVE",
"881 172 OFFCURVE",
"881 381 CURVE SMOOTH",
"881 918 LINE",
"-4 918 LINE",
"-4 381 LINE SMOOTH",
"-4 172 OFFCURVE",
"168 0 OFFCURVE",
"438 0 CURVE SMOOTH"
);
},
{
nodes = (
"183 1370 OFFCURVE",
"17 1217 OFFCURVE",
"-2 1026 CURVE",
"879 1026 LINE",
"858 1217 OFFCURVE",
"692 1370 OFFCURVE",
"438 1370 CURVE SMOOTH"
);
}
);
width = 877;
}
);
unicode = 2014;
},
{
glyphname = quoteleft;
layers = (
{
layerId = "F859EBB1-02CE-49D6-A9DD-2E3CD13E297E";
paths = (
{
nodes = (
"709 0 OFFCURVE",
"881 172 OFFCURVE",
"881 381 CURVE SMOOTH",
"881 989 LINE SMOOTH",
"881 1198 OFFCURVE",
"709 1370 OFFCURVE",
"438 1370 CURVE SMOOTH",
"168 1370 OFFCURVE",
"-4 1198 OFFCURVE",
"-4 989 CURVE SMOOTH",
"-4 381 LINE SMOOTH",
"-4 172 OFFCURVE",
"168 0 OFFCURVE",
"438 0 CURVE SMOOTH"
);
},
{
nodes = (
"498 1253 LINE",
"459 1153 LINE",
"524 1153 LINE",
"524 1024 LINE",
"373 1024 LINE",
"373 1153 LINE",
"434 1282 LINE"
);
}
);
width = 877;
}
);
unicode = 2018;
},
{
glyphname = quoteright;
layers = (
{
layerId = "F859EBB1-02CE-49D6-A9DD-2E3CD13E297E";
paths = (
{
nodes = (
"709 0 OFFCURVE",
"881 172 OFFCURVE",
"881 381 CURVE SMOOTH",
"881 989 LINE SMOOTH",
"881 1198 OFFCURVE",
"709 1370 OFFCURVE",
"438 1370 CURVE SMOOTH",
"168 1370 OFFCURVE",
"-4 1198 OFFCURVE",
"-4 989 CURVE SMOOTH",
"-4 381 LINE SMOOTH",
"-4 172 OFFCURVE",
"168 0 OFFCURVE",
"438 0 CURVE SMOOTH"
);
},
{
nodes = (
"399 1051 LINE",
"438 1151 LINE",
"373 1151 LINE",
"373 1280 LINE",
"524 1280 LINE",
"524 1151 LINE",
"463 1022 LINE"
);
}
);
width = 877;
}
);
unicode = 2019;
},
{
glyphname = quotedblleft;
layers = (
{
layerId = "F859EBB1-02CE-49D6-A9DD-2E3CD13E297E";
paths = (
{
nodes = (
"709 0 OFFCURVE",
"881 172 OFFCURVE",
"881 381 CURVE SMOOTH",
"881 989 LINE SMOOTH",
"881 1198 OFFCURVE",
"709 1370 OFFCURVE",
"438 1370 CURVE SMOOTH",
"168 1370 OFFCURVE",
"-4 1198 OFFCURVE",
"-4 989 CURVE SMOOTH",
"-4 381 LINE SMOOTH",
"-4 172 OFFCURVE",
"168 0 OFFCURVE",
"438 0 CURVE SMOOTH"
);
},
{
nodes = (
"582 1253 LINE",
"543 1153 LINE",
"608 1153 LINE",
"608 1024 LINE",
"457 1024 LINE",
"457 1153 LINE",
"518 1282 LINE"
);
},
{
nodes = (
"397 1253 LINE",
"358 1153 LINE",
"424 1153 LINE",
"424 1024 LINE",
"272 1024 LINE",
"272 1153 LINE",
"334 1282 LINE"
);
}
);
width = 877;
}
);
unicode = 201C;
},
{
glyphname = quotedblright;
layers = (
{
layerId = "F859EBB1-02CE-49D6-A9DD-2E3CD13E297E";
paths = (
{
nodes = (
"709 0 OFFCURVE",
"881 172 OFFCURVE",
"881 381 CURVE SMOOTH",
"881 989 LINE SMOOTH",
"881 1198 OFFCURVE",
"709 1370 OFFCURVE",
"438 1370 CURVE SMOOTH",
"168 1370 OFFCURVE",
"-4 1198 OFFCURVE",
"-4 989 CURVE SMOOTH",
"-4 381 LINE SMOOTH",
"-4 172 OFFCURVE",
"168 0 OFFCURVE",
"438 0 CURVE SMOOTH"
);
},
{
nodes = (
"320 1051 LINE",
"358 1151 LINE",
"293 1151 LINE",
"293 1280 LINE",
"445 1280 LINE",
"445 1151 LINE",
"383 1022 LINE"
);
},
{
nodes = (
"504 1051 LINE",
"543 1151 LINE",
"477 1151 LINE",
"477 1280 LINE",
"629 1280 LINE",
"629 1151 LINE",
"567 1022 LINE"
);
}
);
width = 877;
}
);
unicode = 201D;
},
{
glyphname = quotedblbase;
layers = (
{
layerId = "F859EBB1-02CE-49D6-A9DD-2E3CD13E297E";
paths = (
{
nodes = (
"709 0 OFFCURVE",
"881 172 OFFCURVE",
"881 381 CURVE SMOOTH",
"881 989 LINE SMOOTH",
"881 1198 OFFCURVE",
"709 1370 OFFCURVE",
"438 1370 CURVE SMOOTH",
"168 1370 OFFCURVE",
"-4 1198 OFFCURVE",
"-4 989 CURVE SMOOTH",
"-4 381 LINE SMOOTH",
"-4 172 OFFCURVE",
"168 0 OFFCURVE",
"438 0 CURVE SMOOTH"
);
},
{
nodes = (
"320 352 LINE",
"358 453 LINE",
"293 453 LINE",
"293 582 LINE",
"445 582 LINE",
"445 453 LINE",
"383 324 LINE"
);
},
{
nodes = (
"504 352 LINE",
"543 453 LINE",
"477 453 LINE",
"477 582 LINE",
"629 582 LINE",
"629 453 LINE",
"567 324 LINE"
);
}
);
width = 877;
}
);
unicode = 201E;
},
{
glyphname = dagger;
layers = (
{
layerId = "F859EBB1-02CE-49D6-A9DD-2E3CD13E297E";
paths = (
{
nodes = (
"594 453 LINE",
"594 1010 LINE",
"461 1010 LINE",
"461 1116 LINE",
"594 1116 LINE",
"594 1280 LINE",
"701 1280 LINE",
"701 1116 LINE",
"834 1116 LINE",
"834 1010 LINE",
"701 1010 LINE",
"701 453 LINE"
);
},
{
nodes = (
"438 1370 LINE SMOOTH",
"168 1370 OFFCURVE",
"-4 1198 OFFCURVE",
"-4 989 CURVE SMOOTH",
"-4 381 LINE SMOOTH",
"-4 172 OFFCURVE",
"168 0 OFFCURVE",
"438 0 CURVE SMOOTH",
"746 0 LINE SMOOTH",
"1016 0 OFFCURVE",
"1188 172 OFFCURVE",
"1188 381 CURVE SMOOTH",
"1188 989 LINE SMOOTH",
"1188 1198 OFFCURVE",
"1016 1370 OFFCURVE",
"746 1370 CURVE SMOOTH"
);
}
);
width = 1184;
}
);
unicode = 2020;
},
{
glyphname = daggerdbl;
layers = (
{
layerId = "F859EBB1-02CE-49D6-A9DD-2E3CD13E297E";
paths = (
{
nodes = (
"594 702 LINE",
"594 1010 LINE",
"461 1010 LINE",
"461 1116 LINE",
"594 1116 LINE",
"594 1280 LINE",
"701 1280 LINE",
"701 1116 LINE",
"834 1116 LINE",
"834 1010 LINE",
"701 1010 LINE",
"701 702 LINE",
"834 702 LINE",
"834 596 LINE",
"701 596 LINE",
"701 453 LINE",
"594 453 LINE",
"594 596 LINE",
"461 596 LINE",
"461 702 LINE"
);
},
{
nodes = (
"438 1370 LINE SMOOTH",
"168 1370 OFFCURVE",
"-4 1198 OFFCURVE",
"-4 989 CURVE SMOOTH",
"-4 381 LINE SMOOTH",
"-4 172 OFFCURVE",
"168 0 OFFCURVE",
"438 0 CURVE SMOOTH",
"746 0 LINE SMOOTH",
"1016 0 OFFCURVE",
"1188 172 OFFCURVE",
"1188 381 CURVE SMOOTH",
"1188 989 LINE SMOOTH",
"1188 1198 OFFCURVE",
"1016 1370 OFFCURVE",
"746 1370 CURVE SMOOTH"
);
}
);
width = 1184;
}
);
unicode = 2021;
},
{
glyphname = bullet;
layers = (
{
layerId = "F859EBB1-02CE-49D6-A9DD-2E3CD13E297E";
paths = (
{
nodes = (
"707 1188 LINE SMOOTH",
"844 1188 OFFCURVE",
"932 1100 OFFCURVE",
"932 995 CURVE SMOOTH",
"932 684 LINE SMOOTH",
"932 580 OFFCURVE",
"844 492 OFFCURVE",
"707 492 CURVE SMOOTH",
"551 492 LINE SMOOTH",
"414 492 OFFCURVE",
"326 580 OFFCURVE",
"326 684 CURVE SMOOTH",
"326 995 LINE SMOOTH",
"326 1100 OFFCURVE",
"414 1188 OFFCURVE",
"551 1188 CURVE SMOOTH"
);
},
{
nodes = (
"438 1370 LINE SMOOTH",
"168 1370 OFFCURVE",
"-4 1198 OFFCURVE",
"-4 989 CURVE SMOOTH",
"-4 381 LINE SMOOTH",
"-4 172 OFFCURVE",
"168 0 OFFCURVE",
"438 0 CURVE SMOOTH",
"746 0 LINE SMOOTH",
"1016 0 OFFCURVE",
"1188 172 OFFCURVE",
"1188 381 CURVE SMOOTH",
"1188 989 LINE SMOOTH",
"1188 1198 OFFCURVE",
"1016 1370 OFFCURVE",
"746 1370 CURVE SMOOTH"
);
}
);
width = 1184;
}
);
unicode = 2022;
},
{
glyphname = ellipsis;
layers = (
{
layerId = "F859EBB1-02CE-49D6-A9DD-2E3CD13E297E";
paths = (
{
nodes = (
"516 453 LINE",
"516 582 LINE",
"647 582 LINE",
"647 453 LINE"
);
},
{
nodes = (
"262 453 LINE",
"262 582 LINE",
"393 582 LINE",
"393 453 LINE"
);
},
{
nodes = (
"762 453 LINE",
"762 582 LINE",
"893 582 LINE",
"893 453 LINE"
);
},
{
nodes = (
"438 1370 LINE SMOOTH",
"168 1370 OFFCURVE",
"-4 1198 OFFCURVE",
"-4 989 CURVE SMOOTH",
"-4 381 LINE SMOOTH",
"-4 172 OFFCURVE",
"168 0 OFFCURVE",
"438 0 CURVE SMOOTH",
"746 0 LINE SMOOTH",
"1016 0 OFFCURVE",
"1188 172 OFFCURVE",
"1188 381 CURVE SMOOTH",
"1188 989 LINE SMOOTH",
"1188 1198 OFFCURVE",
"1016 1370 OFFCURVE",
"746 1370 CURVE SMOOTH"
);
}
);
width = 1184;
}
);
unicode = 2026;
},
{
glyphname = perthousand;
layers = (
{
layerId = "F859EBB1-02CE-49D6-A9DD-2E3CD13E297E";
paths = (
{
nodes = (
"633 1200 LINE",
"422 494 LINE",
"322 518 LINE",
"531 1231 LINE"
);
},
{
nodes = (
"412 1024 LINE",
"402 965 LINE",
"336 907 LINE",
"268 893 LINE",
"223 893 LINE",
"150 903 LINE",
"86 967 LINE",
"78 1024 LINE",
"78 1096 LINE",
"88 1155 LINE",
"154 1212 LINE",
"223 1227 LINE",
"266 1227 LINE",
"342 1217 LINE",
"404 1153 LINE",
"412 1096 LINE"
);
},
{
nodes = (
"307 1038 LINE",
"307 1081 LINE",
"297 1114 LINE",
"260 1122 LINE",
"232 1122 LINE",
"217 1118 OFFCURVE",
"209 1118 OFFCURVE",
"193 1114 CURVE",
"182 1081 LINE",
"182 1038 LINE",
"193 1006 LINE",
"229 997 LINE",
"260 997 LINE",
"297 1006 LINE"
);
},
{
nodes = (
"887 625 LINE",
"877 567 LINE",
"813 504 LINE",
"739 494 LINE",
"694 494 LINE",
"627 508 LINE",
"561 565 LINE",
"551 625 LINE",
"551 696 LINE",
"559 754 LINE",
"623 817 LINE",
"696 827 LINE",
"739 827 LINE",
"809 813 LINE",
"875 756 LINE",
"887 696 LINE"
);
},
{
nodes = (
"780 639 LINE",
"780 682 LINE",
"770 715 LINE",
"731 723 LINE",
"703 723 LINE",
"666 715 LINE",
"663 704 OFFCURVE",
"658 693 OFFCURVE",
"655 682 CURVE",
"655 639 LINE",
"666 606 LINE",
"703 598 LINE",
"733 598 LINE",
"770 606 LINE"
);
},
{
nodes = (
"438 1370 LINE SMOOTH",
"168 1370 OFFCURVE",
"-4 1198 OFFCURVE",
"-4 989 CURVE SMOOTH",
"-4 381 LINE SMOOTH",
"-4 172 OFFCURVE",
"168 0 OFFCURVE",
"438 0 CURVE SMOOTH",
"873 0 LINE SMOOTH",
"1143 0 OFFCURVE",
"1315 172 OFFCURVE",
"1315 381 CURVE SMOOTH",
"1315 989 LINE SMOOTH",
"1315 1198 OFFCURVE",
"1143 1370 OFFCURVE",
"873 1370 CURVE SMOOTH"
);
},
{
nodes = (
"1274 625 LINE",
"1264 567 LINE",
"1200 504 LINE",
"1126 494 LINE",
"1081 494 LINE",
"1014 508 LINE",
"948 565 LINE",
"938 625 LINE",
"938 696 LINE",
"946 754 LINE",
"1010 817 LINE",
"1083 827 LINE",
"1126 827 LINE",
"1196 813 LINE",
"1262 756 LINE",
"1274 696 LINE"
);
},
{
nodes = (
"1167 639 LINE",
"1167 682 LINE",
"1157 715 LINE",
"1118 723 LINE",
"1090 723 LINE",
"1053 715 LINE",
"1043 682 LINE",
"1043 639 LINE",
"1053 606 LINE",
"1090 598 LINE",
"1120 598 LINE",
"1157 606 LINE"
);
}
);
width = 1311;
}
);
unicode = 2030;
},
{
glyphname = guilsinglleft;
layers = (
{
layerId = "F859EBB1-02CE-49D6-A9DD-2E3CD13E297E";
paths = (
{
nodes = (
"438 1370 LINE SMOOTH",
"168 1370 OFFCURVE",
"-4 1198 OFFCURVE",
"-4 989 CURVE SMOOTH",
"-4 381 LINE SMOOTH",
"-4 172 OFFCURVE",
"168 0 OFFCURVE",
"438 0 CURVE SMOOTH",
"746 0 LINE SMOOTH",
"1016 0 OFFCURVE",
"1188 172 OFFCURVE",
"1188 381 CURVE SMOOTH",
"1188 989 LINE SMOOTH",
"1188 1198 OFFCURVE",
"1016 1370 OFFCURVE",
"746 1370 CURVE SMOOTH"
);
},
{
nodes = (
"451 781 LINE",
"451 814 LINE",
"745 1203 LINE",
"806 1142 LINE",
"548 797 LINE",
"806 452 LINE",
"745 393 LINE"
);
}
);
width = 1184;
}
);
unicode = 2039;
},
{
glyphname = guilsinglright;
layers = (
{
layerId = "F859EBB1-02CE-49D6-A9DD-2E3CD13E297E";
paths = (
{
nodes = (
"438 1370 LINE SMOOTH",
"168 1370 OFFCURVE",
"-4 1198 OFFCURVE",
"-4 989 CURVE SMOOTH",
"-4 381 LINE SMOOTH",
"-4 172 OFFCURVE",
"168 0 OFFCURVE",
"438 0 CURVE SMOOTH",
"746 0 LINE SMOOTH",
"1016 0 OFFCURVE",
"1188 172 OFFCURVE",
"1188 381 CURVE SMOOTH",
"1188 989 LINE SMOOTH",
"1188 1198 OFFCURVE",
"1016 1370 OFFCURVE",
"746 1370 CURVE SMOOTH"
);
},
{
nodes = (
"523 393 LINE",
"462 452 LINE",
"701 797 LINE",
"462 1142 LINE",
"523 1203 LINE",
"797 814 LINE",
"797 781 LINE"
);
}
);
width = 1184;
}
);
unicode = 203A;
},
{
glyphname = fraction;
layers = (
{
layerId = "F859EBB1-02CE-49D6-A9DD-2E3CD13E297E";
paths = (
{
nodes = (
"168 1370 OFFCURVE",
"-4 1198 OFFCURVE",
"-4 989 CURVE SMOOTH",
"-4 381 LINE SMOOTH",
"-4 172 OFFCURVE",
"168 0 OFFCURVE",
"438 0 CURVE SMOOTH",
"709 0 OFFCURVE",
"881 172 OFFCURVE",
"881 381 CURVE SMOOTH",
"881 989 LINE SMOOTH",
"881 1198 OFFCURVE",
"709 1370 OFFCURVE",
"438 1370 CURVE SMOOTH"
);
},
{
nodes = (
"561 1280 LINE",
"424 453 LINE",
"315 453 LINE",
"453 1280 LINE"
);
}
);
width = 877;
}
);
unicode = 2044;
},
{
glyphname = Euro;
layers = (
{
layerId = "F859EBB1-02CE-49D6-A9DD-2E3CD13E297E";
paths = (
{
nodes = (
"438 1370 LINE SMOOTH",
"168 1370 OFFCURVE",
"-4 1198 OFFCURVE",
"-4 989 CURVE SMOOTH",
"-4 381 LINE SMOOTH",
"-4 172 OFFCURVE",
"168 0 OFFCURVE",
"438 0 CURVE SMOOTH",
"746 0 LINE SMOOTH",
"1016 0 OFFCURVE",
"1188 172 OFFCURVE",
"1188 381 CURVE SMOOTH",
"1188 989 LINE SMOOTH",
"1188 1196 OFFCURVE",
"1013 1370 OFFCURVE",
"746 1370 CURVE SMOOTH"
);
},
{
nodes = (
"850 1266 LINE",
"830 1159 LINE",
"727 1176 LINE",
"498 1176 LINE",
"428 1165 LINE",
"418 1110 LINE",
"418 1018 LINE",
"660 1018 LINE",
"660 924 LINE",
"418 924 LINE",
"418 830 LINE",
"660 830 LINE",
"660 736 LINE",
"418 736 LINE",
"418 629 LINE",
"432 569 LINE",
"498 559 LINE",
"731 559 LINE",
"825 575 LINE",
"850 467 LINE",
"733 453 LINE",
"492 453 LINE",
"391 465 LINE",
"326 528 LINE",
"311 612 LINE",
"311 736 LINE",
"201 736 LINE",
"201 830 LINE",
"311 830 LINE",
"311 924 LINE",
"201 924 LINE",
"201 1018 LINE",
"311 1018 LINE",
"311 1120 LINE",
"326 1204 LINE",
"389 1268 LINE",
"492 1280 LINE",
"733 1280 LINE"
);
}
);
width = 1184;
}
);
unicode = 20AC;
},
{
glyphname = trademark;
layers = (
{
layerId = "F859EBB1-02CE-49D6-A9DD-2E3CD13E297E";
paths = (
{
nodes = (
"438 1370 LINE SMOOTH",
"168 1370 OFFCURVE",
"-4 1198 OFFCURVE",
"-4 989 CURVE SMOOTH",
"-4 381 LINE SMOOTH",
"-4 172 OFFCURVE",
"168 0 OFFCURVE",
"438 0 CURVE SMOOTH",
"746 0 LINE SMOOTH",
"1016 0 OFFCURVE",
"1188 172 OFFCURVE",
"1188 381 CURVE SMOOTH",
"1188 989 LINE SMOOTH",
"1188 1198 OFFCURVE",
"1016 1370 OFFCURVE",
"746 1370 CURVE SMOOTH"
);
},
{
nodes = (
"793 649 LINE",
"793 811 LINE",
"737 649 LINE",
"680 649 LINE",
"623 811 LINE",
"623 649 LINE",
"549 649 LINE",
"549 948 LINE",
"614 948 LINE",
"709 809 LINE",
"799 948 LINE",
"868 948 LINE",
"868 649 LINE"
);
},
{
nodes = (
"516 872 LINE",
"434 872 LINE",
"434 649 LINE",
"361 649 LINE",
"361 872 LINE",
"281 872 LINE",
"281 948 LINE",
"516 948 LINE"
);
}
);
width = 1184;
}
);
unicode = 2122;
},
{
glyphname = product;
layers = (
{
layerId = "F859EBB1-02CE-49D6-A9DD-2E3CD13E297E";
paths = (
{
nodes = (
"438 1370 LINE SMOOTH",
"168 1370 OFFCURVE",
"-4 1198 OFFCURVE",
"-4 989 CURVE SMOOTH",
"-4 381 LINE SMOOTH",
"-4 172 OFFCURVE",
"168 0 OFFCURVE",
"438 0 CURVE SMOOTH",
"746 0 LINE SMOOTH",
"1016 0 OFFCURVE",
"1188 172 OFFCURVE",
"1188 381 CURVE SMOOTH",
"1188 989 LINE SMOOTH",
"1188 1198 OFFCURVE",
"1016 1370 OFFCURVE",
"746 1370 CURVE SMOOTH"
);
},
{
nodes = (
"844 829 LINE",
"834 768 LINE",
"789 725 LINE",
"717 717 LINE",
"531 717 LINE",
"531 510 LINE",
"457 510 LINE",
"457 1087 LINE",
"717 1087 LINE",
"789 1077 LINE",
"834 1034 LINE",
"844 975 LINE"
);
},
{
nodes = (
"768 836 LINE",
"768 965 LINE",
"762 1006 LINE",
"713 1014 LINE",
"531 1014 LINE",
"531 791 LINE",
"713 791 LINE",
"758 797 LINE"
);
},
{
nodes = (
"211 588 OFFCURVE",
"393 406 OFFCURVE",
"617 406 CURVE SMOOTH",
"840 406 OFFCURVE",
"1022 588 OFFCURVE",
"1022 811 CURVE SMOOTH",
"1022 1034 OFFCURVE",
"840 1217 OFFCURVE",
"617 1217 CURVE SMOOTH",
"393 1217 OFFCURVE",
"211 1034 OFFCURVE",
"211 811 CURVE SMOOTH"
);
},
{
nodes = (
"143 1073 OFFCURVE",
"354 1284 OFFCURVE",
"617 1284 CURVE SMOOTH",
"879 1284 OFFCURVE",
"1090 1073 OFFCURVE",
"1090 811 CURVE SMOOTH",
"1090 549 OFFCURVE",
"879 338 OFFCURVE",
"617 338 CURVE SMOOTH",
"354 338 OFFCURVE",
"143 549 OFFCURVE",
"143 811 CURVE SMOOTH"
);
}
);
width = 1184;
}
);
unicode = 220F;
},
{
glyphname = notequal;
layers = (
{
layerId = "F859EBB1-02CE-49D6-A9DD-2E3CD13E297E";
paths = (
{
nodes = (
"438 1370 LINE SMOOTH",
"168 1370 OFFCURVE",
"-4 1198 OFFCURVE",
"-4 989 CURVE SMOOTH",
"-4 381 LINE SMOOTH",
"-4 172 OFFCURVE",
"168 0 OFFCURVE",
"438 0 CURVE SMOOTH",
"746 0 LINE SMOOTH",
"1016 0 OFFCURVE",
"1188 172 OFFCURVE",
"1188 381 CURVE SMOOTH",
"1188 989 LINE SMOOTH",
"1188 1198 OFFCURVE",
"1016 1370 OFFCURVE",
"746 1370 CURVE SMOOTH"
);
},
{
nodes = (
"870 772 LINE",
"578 772 LINE",
"528 664 LINE",
"416 664 LINE",
"467 772 LINE",
"313 772 LINE",
"313 881 LINE",
"518 881 LINE",
"559 971 LINE",
"313 971 LINE",
"313 1075 LINE",
"608 1075 LINE",
"672 1198 LINE",
"782 1198 LINE",
"719 1075 LINE",
"870 1075 LINE",
"870 971 LINE",
"670 971 LINE",
"629 881 LINE",
"870 881 LINE"
);
}
);
width = 1184;
}
);
unicode = 2260;
},
{
glyphname = uni2706;
layers = (
{
layerId = "F859EBB1-02CE-49D6-A9DD-2E3CD13E297E";
paths = (
{
nodes = (
"490 823 LINE",
"490 816 OFFCURVE",
"488 812 OFFCURVE",
"488 805 CURVE SMOOTH",
"488 704 OFFCURVE",
"584 577 OFFCURVE",
"674 545 CURVE",
"791 369 LINE",
"563 369 OFFCURVE",
"340 627 OFFCURVE",
"340 866 CURVE SMOOTH",
"340 915 OFFCURVE",
"348 961 OFFCURVE",
"369 1004 CURVE"
);
},
{
nodes = (
"391 1018 LINE",
"440 1051 LINE",
"444 1052 OFFCURVE",
"448 1053 OFFCURVE",
"453 1053 CURVE SMOOTH",
"462 1053 OFFCURVE",
"468 1050 OFFCURVE",
"471 1044 CURVE",
"569 897 LINE",
"569 887 LINE SMOOTH",
"569 879 OFFCURVE",
"568 874 OFFCURVE",
"565 872 CURVE SMOOTH",
"512 836 LINE"
);
},
{
nodes = (
"696 557 LINE",
"753 593 LINE",
"754 593 OFFCURVE",
"755 594 OFFCURVE",
"758 594 CURVE SMOOTH",
"765 594 OFFCURVE",
"771 591 OFFCURVE",
"776 586 CURVE",
"870 440 LINE",
"872 440 OFFCURVE",
"873 438 OFFCURVE",
"873 434 CURVE SMOOTH",
"873 427 OFFCURVE",
"871 422 OFFCURVE",
"866 420 CURVE",
"811 383 LINE"
);
},
{
nodes = (
"854 1078 OFFCURVE",
"854 903 OFFCURVE",
"854 895 CURVE",
"803 907 LINE",
"803 932 LINE SMOOTH",
"803 976 OFFCURVE",
"799 1074 OFFCURVE",
"762 1130 CURVE SMOOTH",
"720 1193 OFFCURVE",
"637 1231 OFFCURVE",
"574 1255 CURVE",
"576 1309 LINE",
"656 1277 OFFCURVE",
"757 1226 OFFCURVE",
"801 1155 CURVE"
);
},
{
nodes = (
"756 1035 OFFCURVE",
"754 928 OFFCURVE",
"754 918 CURVE",
"698 930 LINE",
"698 954 LINE SMOOTH",
"698 985 OFFCURVE",
"695 1030 OFFCURVE",
"668 1071 CURVE SMOOTH",
"636 1118 OFFCURVE",
"590 1138 OFFCURVE",
"553 1153 CURVE",
"563 1200 LINE",
"614 1183 OFFCURVE",
"676 1155 OFFCURVE",
"717 1096 CURVE"
);
},
{
nodes = (
"642 1011 OFFCURVE",
"643 981 OFFCURVE",
"643 961 CURVE SMOOTH",
"643 942 LINE",
"594 948 LINE",
"594 958 LINE SMOOTH",
"594 988 OFFCURVE",
"554 1050 OFFCURVE",
"535 1050 CURVE",
"533 1050 OFFCURVE",
"532 1050 OFFCURVE",
"531 1049 CURVE",
"539 1096 LINE",
"568 1088 OFFCURVE",
"599 1071 OFFCURVE",
"623 1038 CURVE SMOOTH"
);
},
{
nodes = (
"438 1370 LINE SMOOTH",
"168 1370 OFFCURVE",
"-4 1198 OFFCURVE",
"-4 989 CURVE SMOOTH",
"-4 381 LINE SMOOTH",
"-4 172 OFFCURVE",
"168 0 OFFCURVE",
"438 0 CURVE SMOOTH",
"746 0 LINE SMOOTH",
"1016 0 OFFCURVE",
"1188 172 OFFCURVE",
"1188 381 CURVE SMOOTH",
"1188 989 LINE SMOOTH",
"1188 1198 OFFCURVE",
"1016 1370 OFFCURVE",
"746 1370 CURVE SMOOTH"
);
}
);
width = 1184;
}
);
unicode = 2706;
},
{
glyphname = uni2708;
layers = (
{
layerId = "F859EBB1-02CE-49D6-A9DD-2E3CD13E297E";
paths = (
{
nodes = (
"610 1217 LINE",
"455 1278 LINE",
"455 1239 LINE",
"582 1130 LINE",
"582 889 LINE",
"268 1042 LINE",
"268 995 LINE",
"561 735 LINE",
"569 559 LINE",
"569 532 OFFCURVE",
"598 430 OFFCURVE",
"610 430 CURVE SMOOTH",
"627 430 OFFCURVE",
"650 537 OFFCURVE",
"653 561 CURVE",
"660 733 LINE",
"954 995 LINE",
"954 1042 LINE",
"649 891 LINE",
"649 1130 LINE",
"768 1239 LINE",
"768 1278 LINE"
);
},
{
nodes = (
"506 166 OFFCURVE",
"551 121 OFFCURVE",
"608 121 CURVE SMOOTH",
"668 121 OFFCURVE",
"711 166 OFFCURVE",
"711 223 CURVE SMOOTH",
"711 283 OFFCURVE",
"668 326 OFFCURVE",
"608 326 CURVE SMOOTH",
"551 326 OFFCURVE",
"506 283 OFFCURVE",
"506 223 CURVE SMOOTH"
);
},
{
nodes = (
"438 1370 LINE SMOOTH",
"168 1370 OFFCURVE",
"-4 1198 OFFCURVE",
"-4 989 CURVE SMOOTH",
"-4 381 LINE SMOOTH",
"-4 172 OFFCURVE",
"168 0 OFFCURVE",
"438 0 CURVE SMOOTH",
"746 0 LINE SMOOTH",
"1016 0 OFFCURVE",
"1188 172 OFFCURVE",
"1188 381 CURVE SMOOTH",
"1188 989 LINE SMOOTH",
"1188 1198 OFFCURVE",
"1016 1370 OFFCURVE",
"746 1370 CURVE SMOOTH"
);
},
{
nodes = (
"746 1329 LINE SMOOTH",
"991 1329 OFFCURVE",
"1147 1176 OFFCURVE",
"1147 989 CURVE SMOOTH",
"1147 381 LINE SMOOTH",
"1147 195 OFFCURVE",
"991 41 OFFCURVE",
"746 41 CURVE SMOOTH",
"438 41 LINE SMOOTH",
"193 41 OFFCURVE",
"37 195 OFFCURVE",
"37 381 CURVE SMOOTH",
"37 989 LINE SMOOTH",
"37 1176 OFFCURVE",
"193 1329 OFFCURVE",
"438 1329 CURVE SMOOTH"
);
}
);
width = 1184;
}
);
unicode = 2708;
},
{
glyphname = uniF6D6;
layers = (
{
layerId = "F859EBB1-02CE-49D6-A9DD-2E3CD13E297E";
paths = (
{
nodes = (
"817 41 LINE",
"850 76 OFFCURVE",
"864 119 OFFCURVE",
"864 176 CURVE SMOOTH",
"864 195 OFFCURVE",
"862 217 OFFCURVE",
"858 240 CURVE",
"678 573 LINE SMOOTH",
"624 672 OFFCURVE",
"587 696 OFFCURVE",
"475 707 CURVE",
"383 707 LINE",
"367 674 LINE",
"336 693 OFFCURVE",
"300 700 OFFCURVE",
"244 707 CURVE",
"152 707 LINE",
"-4 416 LINE",
"248 41 LINE"
);
},
{
nodes = (
"399 510 LINE",
"492 510 LINE",
"672 176 LINE",
"621 176 LINE"
);
},
{
nodes = (
"168 510 LINE",
"260 510 LINE",
"440 176 LINE",
"389 176 LINE"
);
}
);
width = 860;
}
);
unicode = F6D6;
},
{
glyphname = uFFFF2;
layers = (
{
layerId = "F859EBB1-02CE-49D6-A9DD-2E3CD13E297E";
paths = (
{
nodes = (
"768 430 LINE",
"768 469 LINE",
"649 578 LINE",
"649 817 LINE",
"954 666 LINE",
"954 713 LINE",
"660 975 LINE",
"653 1147 LINE",
"650 1171 OFFCURVE",
"627 1278 OFFCURVE",
"610 1278 CURVE SMOOTH",
"598 1278 OFFCURVE",
"569 1176 OFFCURVE",
"569 1149 CURVE",
"561 973 LINE",
"268 713 LINE",
"268 666 LINE",
"582 819 LINE",
"582 578 LINE",
"455 469 LINE",
"455 430 LINE",
"610 492 LINE"
);
},
{
nodes = (
"506 166 OFFCURVE",
"551 121 OFFCURVE",
"608 121 CURVE SMOOTH",
"668 121 OFFCURVE",
"711 166 OFFCURVE",
"711 223 CURVE SMOOTH",
"711 283 OFFCURVE",
"668 326 OFFCURVE",
"608 326 CURVE SMOOTH",
"551 326 OFFCURVE",
"506 283 OFFCURVE",
"506 223 CURVE SMOOTH"
);
},
{
nodes = (
"438 1370 LINE SMOOTH",
"168 1370 OFFCURVE",
"-4 1198 OFFCURVE",
"-4 989 CURVE SMOOTH",
"-4 381 LINE SMOOTH",
"-4 172 OFFCURVE",
"168 0 OFFCURVE",
"438 0 CURVE SMOOTH",
"746 0 LINE SMOOTH",
"1016 0 OFFCURVE",
"1188 172 OFFCURVE",
"1188 381 CURVE SMOOTH",
"1188 989 LINE SMOOTH",
"1188 1198 OFFCURVE",
"1016 1370 OFFCURVE",
"746 1370 CURVE SMOOTH"
);
},
{
nodes = (
"746 1329 LINE SMOOTH",
"991 1329 OFFCURVE",
"1147 1176 OFFCURVE",
"1147 989 CURVE SMOOTH",
"1147 381 LINE SMOOTH",
"1147 195 OFFCURVE",
"991 41 OFFCURVE",
"746 41 CURVE SMOOTH",
"438 41 LINE SMOOTH",
"193 41 OFFCURVE",
"37 195 OFFCURVE",
"37 381 CURVE SMOOTH",
"37 989 LINE SMOOTH",
"37 1176 OFFCURVE",
"193 1329 OFFCURVE",
"438 1329 CURVE SMOOTH"
);
}
);
width = 1184;
}
);
unicode = FFFF2;
},
{
glyphname = uFFFF3;
layers = (
{
layerId = "F859EBB1-02CE-49D6-A9DD-2E3CD13E297E";
paths = (
{
nodes = (
"596 334 LINE",
"893 608 LINE",
"698 807 LINE",
"885 999 LINE",
"596 1282 LINE",
"596 918 LINE",
"442 1077 LINE",
"373 1010 LINE",
"576 807 LINE",
"373 608 LINE",
"436 545 LINE",
"596 700 LINE"
);
},
{
nodes = (
"770 612 LINE",
"682 535 LINE",
"682 692 LINE"
);
},
{
nodes = (
"770 995 LINE",
"682 907 LINE",
"682 1096 LINE"
);
},
{
nodes = (
"438 1370 LINE SMOOTH",
"168 1370 OFFCURVE",
"-4 1198 OFFCURVE",
"-4 989 CURVE SMOOTH",
"-4 381 LINE SMOOTH",
"-4 172 OFFCURVE",
"168 0 OFFCURVE",
"438 0 CURVE SMOOTH",
"746 0 LINE SMOOTH",
"1016 0 OFFCURVE",
"1188 172 OFFCURVE",
"1188 381 CURVE SMOOTH",
"1188 989 LINE SMOOTH",
"1188 1198 OFFCURVE",
"1016 1370 OFFCURVE",
"746 1370 CURVE SMOOTH"
);
},
{
nodes = (
"746 1329 LINE SMOOTH",
"991 1329 OFFCURVE",
"1147 1176 OFFCURVE",
"1147 989 CURVE SMOOTH",
"1147 381 LINE SMOOTH",
"1147 195 OFFCURVE",
"991 41 OFFCURVE",
"746 41 CURVE SMOOTH",
"438 41 LINE SMOOTH",
"193 41 OFFCURVE",
"37 195 OFFCURVE",
"37 381 CURVE SMOOTH",
"37 989 LINE SMOOTH",
"37 1176 OFFCURVE",
"193 1329 OFFCURVE",
"438 1329 CURVE SMOOTH"
);
}
);
width = 1184;
}
);
unicode = FFFF3;
},
{
glyphname = uFFFF4;
layers = (
{
layerId = "F859EBB1-02CE-49D6-A9DD-2E3CD13E297E";
paths = (
{
nodes = (
"606 799 OFFCURVE",
"584 802 OFFCURVE",
"584 821 CURVE SMOOTH",
"584 1178 LINE SMOOTH",
"584 1194 OFFCURVE",
"608 1200 OFFCURVE",
"621 1200 CURVE SMOOTH",
"633 1200 OFFCURVE",
"658 1194 OFFCURVE",
"658 1178 CURVE SMOOTH",
"658 821 LINE SMOOTH",
"658 802 OFFCURVE",
"636 799 OFFCURVE",
"621 799 CURVE SMOOTH"
);
},
{
nodes = (
"438 1370 LINE SMOOTH",
"168 1370 OFFCURVE",
"-4 1198 OFFCURVE",
"-4 989 CURVE SMOOTH",
"-4 381 LINE SMOOTH",
"-4 172 OFFCURVE",
"168 0 OFFCURVE",
"438 0 CURVE SMOOTH",
"746 0 LINE SMOOTH",
"1016 0 OFFCURVE",
"1188 172 OFFCURVE",
"1188 381 CURVE SMOOTH",
"1188 989 LINE SMOOTH",
"1188 1198 OFFCURVE",
"1016 1370 OFFCURVE",
"746 1370 CURVE SMOOTH"
);
},
{
nodes = (
"752 567 OFFCURVE",
"864 669 OFFCURVE",
"864 805 CURVE SMOOTH",
"864 944 OFFCURVE",
"789 992 OFFCURVE",
"741 1032 CURVE",
"736 1035 OFFCURVE",
"734 1040 OFFCURVE",
"734 1047 CURVE SMOOTH",
"734 1064 OFFCURVE",
"751 1087 OFFCURVE",
"772 1087 CURVE SMOOTH",
"777 1087 OFFCURVE",
"784 1085 OFFCURVE",
"791 1081 CURVE SMOOTH",
"870 1028 OFFCURVE",
"938 946 OFFCURVE",
"938 801 CURVE SMOOTH",
"938 627 OFFCURVE",
"795 487 OFFCURVE",
"621 487 CURVE SMOOTH",
"447 487 OFFCURVE",
"303 627 OFFCURVE",
"303 801 CURVE SMOOTH",
"303 946 OFFCURVE",
"371 1028 OFFCURVE",
"451 1081 CURVE SMOOTH",
"457 1085 OFFCURVE",
"463 1087 OFFCURVE",
"469 1087 CURVE SMOOTH",
"490 1087 OFFCURVE",
"506 1063 OFFCURVE",
"506 1046 CURVE SMOOTH",
"506 1039 OFFCURVE",
"504 1035 OFFCURVE",
"500 1032 CURVE SMOOTH",
"453 993 OFFCURVE",
"377 944 OFFCURVE",
"377 805 CURVE SMOOTH",
"377 669 OFFCURVE",
"489 567 OFFCURVE",
"621 567 CURVE SMOOTH"
);
}
);
width = 1184;
}
);
unicode = FFFF4;
},
{
glyphname = uFFFF5;
layers = (
{
layerId = "F859EBB1-02CE-49D6-A9DD-2E3CD13E297E";
paths = (
{
nodes = (
"768 1278 LINE",
"768 1239 LINE",
"649 1130 LINE",
"649 891 LINE",
"954 1042 LINE",
"954 995 LINE",
"660 733 LINE",
"653 561 LINE",
"650 537 OFFCURVE",
"627 430 OFFCURVE",
"610 430 CURVE SMOOTH",
"599 430 OFFCURVE",
"569 532 OFFCURVE",
"569 559 CURVE",
"561 735 LINE",
"268 995 LINE",
"268 1042 LINE",
"582 889 LINE",
"582 1130 LINE",
"455 1239 LINE",
"455 1278 LINE",
"610 1217 LINE"
);
},
{
nodes = (
"438 1370 LINE SMOOTH",
"168 1370 OFFCURVE",
"-4 1198 OFFCURVE",
"-4 989 CURVE SMOOTH",
"-4 381 LINE SMOOTH",
"-4 172 OFFCURVE",
"168 0 OFFCURVE",
"438 0 CURVE SMOOTH",
"746 0 LINE SMOOTH",
"1016 0 OFFCURVE",
"1188 172 OFFCURVE",
"1188 381 CURVE SMOOTH",
"1188 989 LINE SMOOTH",
"1188 1198 OFFCURVE",
"1016 1370 OFFCURVE",
"746 1370 CURVE SMOOTH"
);
},
{
nodes = (
"506 283 OFFCURVE",
"551 326 OFFCURVE",
"608 326 CURVE SMOOTH",
"668 326 OFFCURVE",
"711 283 OFFCURVE",
"711 223 CURVE SMOOTH",
"711 166 OFFCURVE",
"668 121 OFFCURVE",
"608 121 CURVE SMOOTH",
"551 121 OFFCURVE",
"506 166 OFFCURVE",
"506 223 CURVE SMOOTH"
);
}
);
width = 1184;
}
);
unicode = FFFF5;
},
{
glyphname = uFFFF6;
layers = (
{
layerId = "F859EBB1-02CE-49D6-A9DD-2E3CD13E297E";
paths = (
{
nodes = (
"610 492 LINE",
"453 430 LINE",
"453 469 LINE",
"569 578 LINE",
"569 819 LINE",
"268 666 LINE",
"268 713 LINE",
"561 973 LINE",
"569 1149 LINE",
"569 1176 OFFCURVE",
"599 1278 OFFCURVE",
"610 1278 CURVE SMOOTH",
"627 1278 OFFCURVE",
"650 1171 OFFCURVE",
"653 1147 CURVE",
"660 975 LINE",
"952 713 LINE",
"952 666 LINE",
"639 817 LINE",
"639 578 LINE",
"768 469 LINE",
"768 430 LINE"
);
},
{
nodes = (
"438 1370 LINE SMOOTH",
"168 1370 OFFCURVE",
"-4 1198 OFFCURVE",
"-4 989 CURVE SMOOTH",
"-4 381 LINE SMOOTH",
"-4 172 OFFCURVE",
"168 0 OFFCURVE",
"438 0 CURVE SMOOTH",
"746 0 LINE SMOOTH",
"1016 0 OFFCURVE",
"1188 172 OFFCURVE",
"1188 381 CURVE SMOOTH",
"1188 989 LINE SMOOTH",
"1188 1198 OFFCURVE",
"1016 1370 OFFCURVE",
"746 1370 CURVE SMOOTH"
);
},
{
nodes = (
"506 283 OFFCURVE",
"551 326 OFFCURVE",
"608 326 CURVE SMOOTH",
"668 326 OFFCURVE",
"711 283 OFFCURVE",
"711 223 CURVE SMOOTH",
"711 166 OFFCURVE",
"668 121 OFFCURVE",
"608 121 CURVE SMOOTH",
"551 121 OFFCURVE",
"506 166 OFFCURVE",
"506 223 CURVE SMOOTH"
);
}
);
width = 1184;
}
);
unicode = FFFF6;
},
{
glyphname = uFFFF8;
layers = (
{
layerId = "F859EBB1-02CE-49D6-A9DD-2E3CD13E297E";
paths = (
{
nodes = (
"893 434 OFFCURVE",
"689 381 OFFCURVE",
"604 381 CURVE SMOOTH",
"430 381 OFFCURVE",
"313 519 OFFCURVE",
"313 676 CURVE SMOOTH",
"313 829 OFFCURVE",
"374 850 OFFCURVE",
"379 879 CURVE SMOOTH",
"391 952 LINE",
"494 1012 LINE",
"512 1057 LINE",
"538 1067 OFFCURVE",
"568 1072 OFFCURVE",
"601 1072 CURVE SMOOTH",
"633 1072 OFFCURVE",
"666 1066 OFFCURVE",
"694 1057 CURVE",
"713 1012 LINE",
"815 952 LINE",
"827 879 LINE",
"830 850 OFFCURVE",
"893 829 OFFCURVE",
"893 676 CURVE SMOOTH"
);
},
{
nodes = (
"739 1024 LINE",
"731 1044 LINE SMOOTH",
"709 1099 OFFCURVE",
"657 1126 OFFCURVE",
"603 1126 CURVE SMOOTH",
"551 1126 OFFCURVE",
"498 1100 OFFCURVE",
"471 1044 CURVE",
"465 1024 LINE",
"432 1032 LINE",
"455 1120 LINE",
"508 1165 LINE SMOOTH",
"538 1191 OFFCURVE",
"568 1204 OFFCURVE",
"599 1204 CURVE SMOOTH",
"630 1204 OFFCURVE",
"662 1191 OFFCURVE",
"694 1165 CURVE SMOOTH",
"750 1120 LINE",
"770 1032 LINE"
);
},
{
nodes = (
"399 738 OFFCURVE",
"425 711 OFFCURVE",
"477 711 CURVE SMOOTH",
"525 711 OFFCURVE",
"549 735 OFFCURVE",
"549 784 CURVE SMOOTH",
"549 846 OFFCURVE",
"524 877 OFFCURVE",
"473 877 CURVE SMOOTH",
"424 877 OFFCURVE",
"399 849 OFFCURVE",
"399 793 CURVE SMOOTH"
);
},
{
nodes = (
"664 738 OFFCURVE",
"689 711 OFFCURVE",
"739 711 CURVE SMOOTH",
"790 711 OFFCURVE",
"811 735 OFFCURVE",
"811 784 CURVE SMOOTH",
"811 846 OFFCURVE",
"786 877 OFFCURVE",
"737 877 CURVE SMOOTH",
"688 877 OFFCURVE",
"664 849 OFFCURVE",
"664 793 CURVE SMOOTH"
);
},
{
nodes = (
"625 896 OFFCURVE",
"658 933 OFFCURVE",
"658 946 CURVE SMOOTH",
"658 967 OFFCURVE",
"647 977 OFFCURVE",
"625 977 CURVE SMOOTH",
"619 977 OFFCURVE",
"612 933 OFFCURVE",
"604 928 CURVE",
"596 933 OFFCURVE",
"590 977 OFFCURVE",
"584 977 CURVE SMOOTH",
"562 977 OFFCURVE",
"551 967 OFFCURVE",
"551 948 CURVE SMOOTH",
"551 927 OFFCURVE",
"583 903 OFFCURVE",
"604 864 CURVE"
);
},
{
nodes = (
"438 1370 LINE SMOOTH",
"168 1370 OFFCURVE",
"-4 1198 OFFCURVE",
"-4 989 CURVE SMOOTH",
"-4 381 LINE SMOOTH",
"-4 172 OFFCURVE",
"168 0 OFFCURVE",
"438 0 CURVE SMOOTH",
"746 0 LINE SMOOTH",
"1016 0 OFFCURVE",
"1188 172 OFFCURVE",
"1188 381 CURVE SMOOTH",
"1188 989 LINE SMOOTH",
"1188 1198 OFFCURVE",
"1016 1370 OFFCURVE",
"746 1370 CURVE SMOOTH"
);
},
{
nodes = (
"496 283 OFFCURVE",
"541 326 OFFCURVE",
"598 326 CURVE SMOOTH",
"655 326 OFFCURVE",
"701 281 OFFCURVE",
"701 223 CURVE SMOOTH",
"701 166 OFFCURVE",
"655 121 OFFCURVE",
"598 121 CURVE SMOOTH",
"541 121 OFFCURVE",
"496 166 OFFCURVE",
"496 223 CURVE SMOOTH"
);
}
);
width = 1184;
}
);
unicode = FFFF8;
},
{
glyphname = uFFFF9;
layers = (
{
layerId = "F859EBB1-02CE-49D6-A9DD-2E3CD13E297E";
paths = (
{
nodes = (
"636 799 OFFCURVE",
"658 802 OFFCURVE",
"658 821 CURVE SMOOTH",
"658 1178 LINE SMOOTH",
"658 1194 OFFCURVE",
"633 1200 OFFCURVE",
"621 1200 CURVE SMOOTH",
"608 1200 OFFCURVE",
"584 1194 OFFCURVE",
"584 1178 CURVE SMOOTH",
"584 821 LINE SMOOTH",
"584 802 OFFCURVE",
"606 799 OFFCURVE",
"621 799 CURVE SMOOTH"
);
},
{
nodes = (
"438 1370 LINE SMOOTH",
"168 1370 OFFCURVE",
"-4 1198 OFFCURVE",
"-4 989 CURVE SMOOTH",
"-4 381 LINE SMOOTH",
"-4 172 OFFCURVE",
"168 0 OFFCURVE",
"438 0 CURVE SMOOTH",
"746 0 LINE SMOOTH",
"1016 0 OFFCURVE",
"1188 172 OFFCURVE",
"1188 381 CURVE SMOOTH",
"1188 989 LINE SMOOTH",
"1188 1198 OFFCURVE",
"1016 1370 OFFCURVE",
"746 1370 CURVE SMOOTH"
);
},
{
nodes = (
"489 567 OFFCURVE",
"377 669 OFFCURVE",
"377 805 CURVE SMOOTH",
"377 944 OFFCURVE",
"453 993 OFFCURVE",
"500 1032 CURVE SMOOTH",
"504 1036 OFFCURVE",
"506 1041 OFFCURVE",
"506 1047 CURVE SMOOTH",
"506 1066 OFFCURVE",
"490 1087 OFFCURVE",
"469 1087 CURVE SMOOTH",
"463 1087 OFFCURVE",
"457 1085 OFFCURVE",
"451 1081 CURVE SMOOTH",
"371 1028 OFFCURVE",
"303 946 OFFCURVE",
"303 801 CURVE SMOOTH",
"303 627 OFFCURVE",
"447 487 OFFCURVE",
"621 487 CURVE SMOOTH",
"795 487 OFFCURVE",
"938 627 OFFCURVE",
"938 801 CURVE SMOOTH",
"938 946 OFFCURVE",
"870 1028 OFFCURVE",
"791 1081 CURVE SMOOTH",
"784 1085 OFFCURVE",
"777 1087 OFFCURVE",
"772 1087 CURVE SMOOTH",
"752 1087 OFFCURVE",
"735 1066 OFFCURVE",
"735 1047 CURVE SMOOTH",
"735 1041 OFFCURVE",
"737 1036 OFFCURVE",
"741 1032 CURVE SMOOTH",
"789 992 OFFCURVE",
"864 944 OFFCURVE",
"864 805 CURVE SMOOTH",
"864 669 OFFCURVE",
"752 567 OFFCURVE",
"621 567 CURVE SMOOTH"
);
},
{
nodes = (
"746 1329 LINE SMOOTH",
"991 1329 OFFCURVE",
"1147 1176 OFFCURVE",
"1147 989 CURVE SMOOTH",
"1147 381 LINE SMOOTH",
"1147 195 OFFCURVE",
"991 41 OFFCURVE",
"746 41 CURVE SMOOTH",
"438 41 LINE SMOOTH",
"193 41 OFFCURVE",
"37 195 OFFCURVE",
"37 381 CURVE SMOOTH",
"37 989 LINE SMOOTH",
"37 1176 OFFCURVE",
"193 1329 OFFCURVE",
"438 1329 CURVE SMOOTH"
);
}
);
width = 1184;
}
);
unicode = FFFF9;
},
{
glyphname = uFFFFB;
layers = (
{
layerId = "F859EBB1-02CE-49D6-A9DD-2E3CD13E297E";
paths = (
{
nodes = (
"555 735 LINE",
"395 580 LINE",
"332 643 LINE",
"535 842 LINE",
"332 1044 LINE",
"402 1112 LINE",
"555 952 LINE",
"555 1317 LINE",
"844 1034 LINE",
"658 842 LINE",
"852 643 LINE",
"555 369 LINE"
);
},
{
nodes = (
"641 727 LINE",
"641 569 LINE",
"729 647 LINE"
);
},
{
nodes = (
"641 1130 LINE",
"641 942 LINE",
"729 1030 LINE"
);
},
{
nodes = (
"438 1370 LINE SMOOTH",
"168 1370 OFFCURVE",
"-4 1198 OFFCURVE",
"-4 989 CURVE SMOOTH",
"-4 381 LINE SMOOTH",
"-4 172 OFFCURVE",
"168 0 OFFCURVE",
"438 0 CURVE SMOOTH",
"746 0 LINE SMOOTH",
"1016 0 OFFCURVE",
"1188 172 OFFCURVE",
"1188 381 CURVE SMOOTH",
"1188 989 LINE SMOOTH",
"1188 1198 OFFCURVE",
"1016 1370 OFFCURVE",
"746 1370 CURVE SMOOTH"
);
}
);
width = 1184;
}
);
unicode = FFFFB;
},
